{"glyphs":{"0":{"ha":842,"x_min":69,"x_max":772,"o":"m 421 -19 q 235 45 314 -19 q 113 226 156 110 q 69 494 69 343 q 114 754 69 642 q 238 929 158 867 q 421 992 318 992 q 606 929 526 992 q 728 754 685 867 q 772 494 772 642 q 730 226 772 343 q 608 45 688 110 q 421 -19 528 -19 m 421 126 q 566 220 514 126 q 618 494 618 314 q 565 756 618 667 q 421 846 511 846 q 278 756 333 846 q 224 494 224 665 q 276 220 224 314 q 421 126 328 126 z "},"1":{"ha":433,"x_min":46,"x_max":319,"o":"m 175 756 q 60 686 124 706 l 46 821 q 144 881 96 838 q 214 972 192 924 l 319 972 l 319 0 l 175 0 l 175 756 z "},"2":{"ha":626,"x_min":68,"x_max":565,"o":"m 276 386 q 367 578 342 508 q 392 714 392 647 q 358 811 392 776 q 267 846 325 846 q 100 779 188 846 l 85 922 q 303 992 186 992 q 482 919 418 992 q 546 735 546 846 q 515 563 546 647 q 404 329 485 479 l 303 142 l 565 142 l 565 0 l 68 0 l 276 386 z "},"3":{"ha":632,"x_min":38,"x_max":563,"o":"m 396 510 q 519 419 475 481 q 563 264 563 357 q 524 113 563 178 q 419 15 486 49 q 264 -19 351 -19 q 38 33 136 -19 l 75 171 q 160 132 118 144 q 251 119 201 119 q 367 159 325 119 q 410 268 410 199 q 365 390 410 346 q 236 433 321 433 l 204 433 l 204 572 l 236 572 q 342 611 306 572 q 378 719 378 650 q 345 818 378 783 q 253 853 313 853 q 96 800 179 853 l 72 943 q 274 992 163 992 q 463 921 394 992 q 531 736 531 850 q 496 599 531 657 q 396 510 461 542 z "},"4":{"ha":657,"x_min":11,"x_max":618,"o":"m 618 351 l 618 231 l 526 231 l 526 0 l 381 0 l 381 231 l 11 231 l 424 972 l 526 972 l 526 351 l 618 351 m 381 351 l 381 663 l 215 351 l 381 351 z "},"5":{"ha":633,"x_min":57,"x_max":581,"o":"m 296 613 q 503 528 426 613 q 581 306 581 444 q 541 133 581 207 q 431 20 501 60 q 272 -19 361 -19 q 57 39 156 -19 l 93 178 q 264 125 179 125 q 383 173 338 125 q 429 301 429 221 q 380 437 429 389 q 246 485 331 485 q 107 464 181 485 l 168 972 l 539 972 l 532 831 l 285 831 l 258 611 q 296 613 271 613 z "},"6":{"ha":660,"x_min":65,"x_max":613,"o":"m 368 583 q 493 545 438 583 q 581 440 549 507 q 613 289 613 374 q 539 65 613 150 q 340 -19 465 -19 q 138 75 210 -19 q 65 328 65 169 q 118 604 65 472 q 253 835 171 736 q 422 992 335 935 l 522 903 q 350 749 428 839 q 236 547 272 658 q 368 583 292 583 m 342 110 q 433 158 400 110 q 467 285 467 207 q 434 408 467 361 q 342 454 401 454 q 249 407 282 454 q 217 283 217 360 q 249 158 217 206 q 342 110 282 110 z "},"7":{"ha":593,"x_min":44,"x_max":581,"o":"m 581 972 l 263 0 l 114 0 l 390 839 l 44 839 l 44 972 l 581 972 z "},"8":{"ha":729,"x_min":71,"x_max":657,"o":"m 531 532 q 624 429 590 494 q 657 281 657 364 q 622 125 657 193 q 519 19 586 57 q 363 -19 453 -19 q 206 19 272 -19 q 106 125 140 57 q 71 281 71 193 q 104 431 71 365 q 200 533 138 496 q 138 619 160 568 q 115 733 115 671 q 141 860 115 801 q 222 955 167 918 q 363 992 278 992 q 549 916 488 992 q 611 733 611 840 q 590 619 611 671 q 531 532 569 567 m 363 864 q 284 827 311 864 q 257 729 257 790 q 285 631 257 671 q 363 592 313 592 q 442 631 414 592 q 469 729 469 671 q 442 827 469 790 q 363 864 414 864 m 363 114 q 470 162 431 114 q 510 289 510 210 q 470 412 510 365 q 363 458 431 458 q 257 412 294 458 q 219 289 219 365 q 257 162 219 210 q 363 114 294 114 z "},"9":{"ha":660,"x_min":47,"x_max":594,"o":"m 319 992 q 522 897 450 992 q 594 644 594 803 q 542 368 594 500 q 407 137 489 236 q 238 -19 325 38 l 138 69 q 309 223 232 133 q 422 424 386 313 q 292 389 365 389 q 166 427 222 389 q 78 533 110 465 q 47 683 47 600 q 121 907 47 822 q 319 992 194 992 m 318 518 q 410 565 376 518 q 443 689 443 613 q 410 815 443 767 q 318 863 378 863 q 226 814 260 863 q 192 688 192 765 q 226 565 192 613 q 318 518 260 518 z "},"\r":{"ha":269,"x_min":0,"x_max":0,"o":""}," ":{"ha":269,"x_min":0,"x_max":0,"o":""},"A":{"ha":747,"x_min":6,"x_max":742,"o":"m 518 250 l 228 250 l 156 0 l 6 0 l 303 972 l 444 972 l 742 0 l 592 0 l 518 250 m 479 385 l 374 749 l 267 385 l 479 385 z "},"Á":{"ha":747,"x_min":6,"x_max":742,"o":"m 518 250 l 228 250 l 156 0 l 6 0 l 303 972 l 444 972 l 742 0 l 592 0 l 518 250 m 479 385 l 374 749 l 267 385 l 479 385 m 269 1146 l 479 1257 l 479 1122 l 269 1058 l 269 1146 z "},"Ă":{"ha":747,"x_min":6,"x_max":742,"o":"m 518 250 l 228 250 l 156 0 l 6 0 l 303 972 l 444 972 l 742 0 l 592 0 l 518 250 m 479 385 l 374 749 l 267 385 l 479 385 m 374 1063 q 232 1111 283 1063 q 181 1229 181 1160 l 294 1229 q 316 1172 294 1192 q 374 1151 338 1151 q 431 1172 410 1151 q 453 1229 453 1192 l 567 1229 q 516 1111 567 1160 q 374 1063 465 1063 z "},"Ắ":{"ha":747,"x_min":6,"x_max":742,"o":"m 518 250 l 228 250 l 156 0 l 6 0 l 303 972 l 444 972 l 742 0 l 592 0 l 518 250 m 479 385 l 374 749 l 267 385 l 479 385 m 374 1063 q 232 1111 283 1063 q 181 1229 181 1160 l 294 1229 q 316 1172 294 1192 q 374 1151 338 1151 q 431 1172 410 1151 q 453 1229 453 1192 l 567 1229 q 516 1111 567 1160 q 374 1063 465 1063 m 269 1379 l 479 1490 l 479 1356 l 269 1292 l 269 1379 z "},"Ặ":{"ha":747,"x_min":6,"x_max":742,"o":"m 518 250 l 228 250 l 156 0 l 6 0 l 303 972 l 444 972 l 742 0 l 592 0 l 518 250 m 479 385 l 374 749 l 267 385 l 479 385 m 374 1093 q 233 1143 283 1093 q 183 1267 183 1193 l 293 1267 q 313 1208 293 1229 q 374 1188 333 1188 q 434 1208 414 1188 q 454 1267 454 1229 l 564 1267 q 514 1143 564 1193 q 374 1093 464 1093 m 310 -112 l 438 -112 l 438 -242 l 310 -242 l 310 -112 z "},"Ằ":{"ha":747,"x_min":6,"x_max":742,"o":"m 518 250 l 228 250 l 156 0 l 6 0 l 303 972 l 444 972 l 742 0 l 592 0 l 518 250 m 479 385 l 374 749 l 267 385 l 479 385 m 374 1061 q 232 1110 283 1061 q 181 1228 181 1158 l 294 1228 q 316 1170 294 1190 q 374 1150 338 1150 q 431 1170 410 1150 q 453 1228 453 1190 l 567 1228 q 516 1110 567 1158 q 374 1061 465 1061 m 268 1353 l 268 1489 l 478 1378 l 478 1290 l 268 1353 z "},"Ẳ":{"ha":747,"x_min":6,"x_max":742,"o":"m 518 250 l 228 250 l 156 0 l 6 0 l 303 972 l 444 972 l 742 0 l 592 0 l 518 250 m 479 385 l 374 749 l 267 385 l 479 385 m 374 1063 q 232 1111 283 1063 q 181 1229 181 1160 l 294 1229 q 316 1172 294 1192 q 374 1151 338 1151 q 431 1172 410 1151 q 453 1229 453 1192 l 567 1229 q 516 1111 567 1160 q 374 1063 465 1063 m 369 1307 q 399 1327 389 1315 q 408 1358 408 1339 q 396 1390 408 1379 q 361 1400 383 1400 q 293 1381 332 1400 l 269 1457 q 369 1476 315 1476 q 458 1449 424 1476 q 493 1371 493 1421 q 467 1298 493 1326 q 389 1250 442 1269 l 369 1307 z "},"Ẵ":{"ha":747,"x_min":6,"x_max":742,"o":"m 518 250 l 228 250 l 156 0 l 6 0 l 303 972 l 444 972 l 742 0 l 592 0 l 518 250 m 479 385 l 374 749 l 267 385 l 479 385 m 374 1063 q 232 1111 283 1063 q 181 1229 181 1160 l 294 1229 q 316 1172 294 1192 q 374 1151 338 1151 q 431 1172 410 1151 q 453 1229 453 1192 l 567 1229 q 516 1111 567 1160 q 374 1063 465 1063 m 476 1296 q 431 1303 453 1296 q 378 1325 410 1311 q 340 1342 358 1335 q 307 1349 321 1349 q 265 1303 265 1349 l 169 1303 q 195 1409 169 1372 q 271 1446 221 1446 q 317 1438 294 1446 q 369 1415 340 1429 q 408 1399 389 1406 q 440 1392 426 1392 q 482 1438 482 1392 l 578 1438 q 552 1332 578 1368 q 476 1296 526 1296 z "},"Â":{"ha":747,"x_min":6,"x_max":742,"o":"m 518 250 l 228 250 l 156 0 l 6 0 l 303 972 l 444 972 l 742 0 l 592 0 l 518 250 m 479 385 l 374 749 l 267 385 l 479 385 m 539 1136 l 539 1043 l 374 1132 l 208 1043 l 208 1136 l 374 1253 l 539 1136 z "},"Ấ":{"ha":747,"x_min":6,"x_max":742,"o":"m 518 250 l 228 250 l 156 0 l 6 0 l 303 972 l 444 972 l 742 0 l 592 0 l 518 250 m 479 385 l 374 749 l 267 385 l 479 385 m 550 1411 l 690 1411 l 565 1243 l 472 1243 l 550 1411 m 539 1140 l 539 1047 l 374 1136 l 208 1047 l 208 1140 l 374 1257 l 539 1140 z "},"Ậ":{"ha":747,"x_min":6,"x_max":742,"o":"m 518 250 l 228 250 l 156 0 l 6 0 l 303 972 l 444 972 l 742 0 l 592 0 l 518 250 m 479 385 l 374 749 l 267 385 l 479 385 m 222 1165 l 374 1293 l 525 1165 l 525 1069 l 374 1164 l 222 1069 l 222 1165 m 310 -112 l 438 -112 l 438 -242 l 310 -242 l 310 -112 z "},"Ầ":{"ha":747,"x_min":6,"x_max":742,"o":"m 518 250 l 228 250 l 156 0 l 6 0 l 303 972 l 444 972 l 742 0 l 592 0 l 518 250 m 479 385 l 374 749 l 267 385 l 479 385 m 503 1243 l 399 1411 l 532 1411 l 593 1243 l 503 1243 m 539 1140 l 539 1047 l 374 1136 l 208 1047 l 208 1140 l 374 1257 l 539 1140 z "},"Ẩ":{"ha":747,"x_min":6,"x_max":742,"o":"m 518 250 l 228 250 l 156 0 l 6 0 l 303 972 l 444 972 l 742 0 l 592 0 l 518 250 m 479 385 l 374 749 l 267 385 l 479 385 m 539 1135 l 539 1042 l 374 1131 l 208 1042 l 208 1135 l 374 1251 l 539 1135 m 493 1265 q 522 1285 513 1274 q 532 1317 532 1297 q 519 1348 532 1338 q 485 1358 507 1358 q 417 1339 456 1358 l 393 1415 q 493 1435 439 1435 q 582 1407 547 1435 q 617 1329 617 1379 q 591 1256 617 1285 q 513 1208 565 1228 l 493 1265 z "},"Ẫ":{"ha":747,"x_min":6,"x_max":742,"o":"m 518 250 l 228 250 l 156 0 l 6 0 l 303 972 l 444 972 l 742 0 l 592 0 l 518 250 m 479 385 l 374 749 l 267 385 l 479 385 m 539 1135 l 539 1042 l 374 1131 l 208 1042 l 208 1135 l 374 1251 l 539 1135 m 476 1306 q 431 1313 453 1306 q 378 1335 410 1321 q 340 1351 358 1344 q 307 1358 321 1358 q 265 1313 265 1358 l 169 1313 q 195 1419 169 1382 q 271 1456 221 1456 q 317 1447 294 1456 q 369 1425 340 1439 q 408 1408 389 1415 q 440 1401 426 1401 q 482 1447 482 1401 l 578 1447 q 552 1342 578 1378 q 476 1306 526 1306 z "},"Ȁ":{"ha":747,"x_min":6,"x_max":742,"o":"m 518 250 l 228 250 l 156 0 l 6 0 l 303 972 l 444 972 l 742 0 l 592 0 l 518 250 m 479 385 l 374 749 l 267 385 l 479 385 m 231 1094 l 110 1304 l 250 1304 l 324 1094 l 231 1094 m 424 1094 l 311 1304 l 451 1304 l 517 1094 l 424 1094 z "},"Ä":{"ha":747,"x_min":6,"x_max":742,"o":"m 518 250 l 228 250 l 156 0 l 6 0 l 303 972 l 444 972 l 742 0 l 592 0 l 518 250 m 479 385 l 374 749 l 267 385 l 479 385 m 203 1207 l 324 1207 l 324 1097 l 203 1097 l 203 1207 m 424 1207 l 544 1207 l 544 1097 l 424 1097 l 424 1207 z "},"Ạ":{"ha":747,"x_min":6,"x_max":742,"o":"m 518 250 l 228 250 l 156 0 l 6 0 l 303 972 l 444 972 l 742 0 l 592 0 l 518 250 m 479 385 l 374 749 l 267 385 l 479 385 m 310 -112 l 438 -112 l 438 -242 l 310 -242 l 310 -112 z "},"À":{"ha":747,"x_min":6,"x_max":742,"o":"m 518 250 l 228 250 l 156 0 l 6 0 l 303 972 l 444 972 l 742 0 l 592 0 l 518 250 m 479 385 l 374 749 l 267 385 l 479 385 m 268 1121 l 268 1257 l 478 1146 l 478 1058 l 268 1121 z "},"Ả":{"ha":747,"x_min":6,"x_max":742,"o":"m 518 250 l 228 250 l 156 0 l 6 0 l 303 972 l 444 972 l 742 0 l 592 0 l 518 250 m 479 385 l 374 749 l 267 385 l 479 385 m 346 1069 q 385 1118 374 1100 q 396 1160 396 1136 q 383 1194 396 1182 q 349 1206 371 1206 q 279 1183 321 1206 l 256 1257 q 356 1279 300 1279 q 442 1249 408 1279 q 476 1164 476 1218 q 457 1090 476 1121 q 394 1021 438 1058 l 346 1069 z "},"Ȃ":{"ha":747,"x_min":6,"x_max":742,"o":"m 518 250 l 228 250 l 156 0 l 6 0 l 303 972 l 444 972 l 742 0 l 592 0 l 518 250 m 479 385 l 374 749 l 267 385 l 479 385 m 374 1250 q 516 1201 465 1250 q 567 1083 567 1153 l 453 1083 q 431 1140 453 1121 q 374 1160 410 1160 q 316 1140 338 1160 q 294 1083 294 1121 l 181 1083 q 232 1201 181 1153 q 374 1250 283 1250 z "},"Ā":{"ha":747,"x_min":6,"x_max":742,"o":"m 518 250 l 228 250 l 156 0 l 6 0 l 303 972 l 444 972 l 742 0 l 592 0 l 518 250 m 479 385 l 374 749 l 267 385 l 479 385 m 163 1197 l 585 1197 l 585 1101 l 163 1101 l 163 1197 z "},"Ą":{"ha":747,"x_min":6,"x_max":767,"o":"m 518 250 l 228 250 l 156 0 l 6 0 l 303 972 l 444 972 l 742 0 l 592 0 l 518 250 m 479 385 l 374 749 l 267 385 l 479 385 m 708 0 q 638 -81 661 -46 q 614 -151 614 -115 q 632 -198 614 -182 q 681 -214 650 -214 q 744 -200 710 -214 l 767 -269 q 667 -290 722 -290 q 569 -260 607 -290 q 531 -174 531 -229 q 557 -85 531 -125 q 629 0 583 -44 l 708 0 z "},"Å":{"ha":747,"x_min":6,"x_max":742,"o":"m 518 250 l 228 250 l 156 0 l 6 0 l 303 972 l 444 972 l 742 0 l 592 0 l 518 250 m 479 385 l 374 749 l 267 385 l 479 385 m 374 1049 q 278 1088 313 1049 q 243 1185 243 1128 q 278 1281 243 1240 q 374 1321 314 1321 q 469 1281 435 1321 q 504 1185 504 1242 q 469 1088 504 1128 q 374 1049 435 1049 m 374 1115 q 415 1134 400 1115 q 431 1185 431 1153 q 415 1235 431 1215 q 374 1254 400 1254 q 332 1235 347 1254 q 317 1185 317 1215 q 332 1134 317 1153 q 374 1115 347 1115 z "},"Ǻ":{"ha":747,"x_min":6,"x_max":742,"o":"m 518 250 l 228 250 l 156 0 l 6 0 l 303 972 l 444 972 l 742 0 l 592 0 l 518 250 m 479 385 l 374 749 l 267 385 l 479 385 m 374 1049 q 278 1088 313 1049 q 243 1185 243 1128 q 278 1281 243 1240 q 374 1321 314 1321 q 469 1281 435 1321 q 504 1185 504 1242 q 469 1088 504 1128 q 374 1049 435 1049 m 374 1115 q 415 1134 400 1115 q 431 1185 431 1153 q 415 1235 431 1215 q 374 1254 400 1254 q 332 1235 347 1254 q 317 1185 317 1215 q 332 1134 317 1153 q 374 1115 347 1115 m 269 1450 l 479 1561 l 479 1426 l 269 1363 l 269 1450 z "},"Ã":{"ha":747,"x_min":6,"x_max":742,"o":"m 518 250 l 228 250 l 156 0 l 6 0 l 303 972 l 444 972 l 742 0 l 592 0 l 518 250 m 479 385 l 374 749 l 267 385 l 479 385 m 476 1089 q 431 1097 453 1089 q 378 1118 410 1104 q 340 1135 358 1128 q 307 1142 321 1142 q 265 1096 265 1142 l 169 1096 q 195 1202 169 1165 q 271 1239 221 1239 q 317 1231 294 1239 q 369 1208 340 1222 q 408 1192 389 1199 q 440 1185 426 1185 q 482 1231 482 1185 l 578 1231 q 552 1125 578 1161 q 476 1089 526 1089 z "},"Æ":{"ha":1064,"x_min":-8,"x_max":1024,"o":"m 1024 133 l 1024 0 l 481 0 l 481 251 l 249 251 l 144 0 l -8 0 l 400 972 l 1011 972 l 1011 839 l 625 839 l 625 575 l 926 575 l 926 442 l 625 442 l 625 133 l 1024 133 m 481 386 l 481 814 l 304 386 l 481 386 z "},"Ǽ":{"ha":1064,"x_min":-8,"x_max":1024,"o":"m 1024 133 l 1024 0 l 481 0 l 481 251 l 249 251 l 144 0 l -8 0 l 400 972 l 1011 972 l 1011 839 l 625 839 l 625 575 l 926 575 l 926 442 l 625 442 l 625 133 l 1024 133 m 481 386 l 481 814 l 304 386 l 481 386 m 603 1146 l 813 1257 l 813 1122 l 603 1058 l 603 1146 z "},"B":{"ha":757,"x_min":92,"x_max":706,"o":"m 547 525 q 706 278 706 464 q 631 74 706 147 q 428 0 557 0 l 92 0 l 92 972 l 376 972 q 567 913 501 972 q 632 735 632 853 q 610 610 632 664 q 547 525 589 556 m 238 575 l 354 575 q 453 605 424 575 q 483 708 483 635 q 453 810 483 781 q 354 839 424 839 l 238 839 l 238 575 m 408 133 q 514 171 476 133 q 551 286 551 208 q 514 407 551 371 q 408 443 476 443 l 238 443 l 238 133 l 408 133 z "},"C":{"ha":728,"x_min":42,"x_max":692,"o":"m 479 -19 q 251 42 350 -19 q 97 219 153 104 q 42 486 42 333 q 98 753 42 638 q 253 930 154 868 q 478 992 353 992 q 692 949 593 992 l 675 807 q 590 840 631 829 q 501 851 549 851 q 281 751 360 851 q 203 486 203 650 q 281 222 203 322 q 501 121 360 121 q 675 163 588 121 l 692 22 q 479 -19 601 -19 z "},"Ć":{"ha":728,"x_min":42,"x_max":692,"o":"m 479 -19 q 251 42 350 -19 q 97 219 153 104 q 42 486 42 333 q 98 753 42 638 q 253 930 154 868 q 478 992 353 992 q 692 949 593 992 l 675 807 q 590 840 631 829 q 501 851 549 851 q 281 751 360 851 q 203 486 203 650 q 281 222 203 322 q 501 121 360 121 q 675 163 588 121 l 692 22 q 479 -19 601 -19 m 357 1146 l 567 1257 l 567 1122 l 357 1058 l 357 1146 z "},"Č":{"ha":728,"x_min":42,"x_max":692,"o":"m 479 -19 q 251 42 350 -19 q 97 219 153 104 q 42 486 42 333 q 98 753 42 638 q 253 930 154 868 q 478 992 353 992 q 692 949 593 992 l 675 807 q 590 840 631 829 q 501 851 549 851 q 281 751 360 851 q 203 486 203 650 q 281 222 203 322 q 501 121 360 121 q 675 163 588 121 l 692 22 q 479 -19 601 -19 m 296 1203 l 296 1296 l 461 1207 l 626 1296 l 626 1203 l 461 1086 l 296 1203 z "},"Ç":{"ha":728,"x_min":42,"x_max":692,"o":"m 692 22 q 513 -18 614 -14 l 494 -76 q 577 -108 547 -78 q 607 -192 607 -139 q 567 -287 607 -253 q 464 -322 526 -322 q 369 -304 411 -322 l 393 -233 q 463 -249 426 -249 q 510 -235 493 -249 q 528 -193 528 -221 q 468 -139 528 -139 q 415 -147 443 -139 l 447 -18 q 235 53 326 -11 q 92 228 143 117 q 42 486 42 340 q 98 753 42 638 q 253 930 154 868 q 478 992 353 992 q 692 949 593 992 l 675 807 q 590 840 631 829 q 501 851 549 851 q 281 751 360 851 q 203 486 203 650 q 281 222 203 322 q 501 121 360 121 q 675 163 588 121 l 692 22 z "},"Ḉ":{"ha":728,"x_min":42,"x_max":692,"o":"m 567 1122 l 357 1058 l 357 1146 l 567 1257 l 567 1122 m 692 22 q 513 -18 614 -14 l 494 -76 q 577 -108 547 -78 q 607 -192 607 -139 q 567 -287 607 -253 q 464 -322 526 -322 q 369 -304 411 -322 l 393 -233 q 463 -249 426 -249 q 510 -235 493 -249 q 528 -193 528 -221 q 468 -139 528 -139 q 415 -147 443 -139 l 447 -18 q 235 53 326 -11 q 92 228 143 117 q 42 486 42 340 q 98 753 42 638 q 253 930 154 868 q 478 992 353 992 q 692 949 593 992 l 675 807 q 590 840 631 829 q 501 851 549 851 q 281 751 360 851 q 203 486 203 650 q 281 222 203 322 q 501 121 360 121 q 675 163 588 121 l 692 22 z "},"Ĉ":{"ha":728,"x_min":42,"x_max":692,"o":"m 479 -19 q 251 42 350 -19 q 97 219 153 104 q 42 486 42 333 q 98 753 42 638 q 253 930 154 868 q 478 992 353 992 q 692 949 593 992 l 675 807 q 590 840 631 829 q 501 851 549 851 q 281 751 360 851 q 203 486 203 650 q 281 222 203 322 q 501 121 360 121 q 675 163 588 121 l 692 22 q 479 -19 601 -19 m 626 1136 l 626 1043 l 461 1132 l 296 1043 l 296 1136 l 461 1253 l 626 1136 z "},"Ċ":{"ha":728,"x_min":42,"x_max":692,"o":"m 479 -19 q 251 42 350 -19 q 97 219 153 104 q 42 486 42 333 q 98 753 42 638 q 253 930 154 868 q 478 992 353 992 q 692 949 593 992 l 675 807 q 590 840 631 829 q 501 851 549 851 q 281 751 360 851 q 203 486 203 650 q 281 222 203 322 q 501 121 360 121 q 675 163 588 121 l 692 22 q 479 -19 601 -19 m 394 1229 l 528 1229 l 528 1100 l 394 1100 l 394 1229 z "},"D":{"ha":860,"x_min":92,"x_max":817,"o":"m 92 972 l 404 972 q 617 914 524 972 q 764 746 711 856 q 817 486 817 636 q 764 226 817 336 q 617 58 711 117 q 404 0 524 0 l 92 0 l 92 972 m 392 133 q 588 226 521 133 q 656 486 656 318 q 588 747 656 654 q 392 839 521 839 l 238 839 l 238 133 l 392 133 z "},"Ǆ":{"ha":1506,"x_min":92,"x_max":1492,"o":"m 92 972 l 404 972 q 617 914 524 972 q 764 746 711 856 q 817 486 817 636 q 764 226 817 336 q 617 58 711 117 q 404 0 524 0 l 92 0 l 92 972 m 392 133 q 588 226 521 133 q 656 486 656 318 q 588 747 656 654 q 392 839 521 839 l 238 839 l 238 133 l 392 133 m 1492 135 l 1492 0 l 850 0 l 1269 838 l 904 838 l 904 972 l 1486 972 l 1068 135 l 1492 135 m 1044 1194 l 1044 1290 l 1196 1194 l 1347 1290 l 1347 1194 l 1196 1065 l 1044 1194 z "},"Ð":{"ha":867,"x_min":17,"x_max":824,"o":"m 100 426 l 17 426 l 17 556 l 100 556 l 100 972 l 411 972 q 624 914 531 972 q 771 746 718 856 q 824 486 824 636 q 771 226 824 336 q 624 58 718 117 q 411 0 531 0 l 100 0 l 100 426 m 397 133 q 595 226 528 133 q 663 486 663 318 q 595 747 663 654 q 397 839 528 839 l 246 839 l 246 556 l 404 556 l 404 426 l 246 426 l 246 133 l 397 133 z "},"Ď":{"ha":860,"x_min":92,"x_max":817,"o":"m 92 972 l 404 972 q 617 914 524 972 q 764 746 711 856 q 817 486 817 636 q 764 226 817 336 q 617 58 711 117 q 404 0 524 0 l 92 0 l 92 972 m 392 133 q 588 226 521 133 q 656 486 656 318 q 588 747 656 654 q 392 839 521 839 l 238 839 l 238 133 l 392 133 m 265 1203 l 265 1296 l 431 1207 l 596 1296 l 596 1203 l 431 1086 l 265 1203 z "},"Đ":{"ha":867,"x_min":17,"x_max":824,"o":"m 100 426 l 17 426 l 17 556 l 100 556 l 100 972 l 411 972 q 624 914 531 972 q 771 746 718 856 q 824 486 824 636 q 771 226 824 336 q 624 58 718 117 q 411 0 531 0 l 100 0 l 100 426 m 397 133 q 595 226 528 133 q 663 486 663 318 q 595 747 663 654 q 397 839 528 839 l 246 839 l 246 556 l 404 556 l 404 426 l 246 426 l 246 133 l 397 133 z "},"Ḍ":{"ha":860,"x_min":92,"x_max":817,"o":"m 92 972 l 404 972 q 617 914 524 972 q 764 746 711 856 q 817 486 817 636 q 764 226 817 336 q 617 58 711 117 q 404 0 524 0 l 92 0 l 92 972 m 392 133 q 588 226 521 133 q 656 486 656 318 q 588 747 656 654 q 392 839 521 839 l 238 839 l 238 133 l 392 133 m 367 -112 l 494 -112 l 494 -242 l 367 -242 l 367 -112 z "},"Ḏ":{"ha":860,"x_min":92,"x_max":817,"o":"m 92 972 l 404 972 q 617 914 524 972 q 764 746 711 856 q 817 486 817 636 q 764 226 817 336 q 617 58 711 117 q 404 0 524 0 l 92 0 l 92 972 m 392 133 q 588 226 521 133 q 656 486 656 318 q 588 747 656 654 q 392 839 521 839 l 238 839 l 238 133 l 392 133 m 233 -129 l 628 -129 l 628 -229 l 233 -229 l 233 -129 z "},"ǅ":{"ha":1414,"x_min":92,"x_max":1388,"o":"m 92 972 l 404 972 q 617 914 524 972 q 764 746 711 856 q 817 486 817 636 q 764 226 817 336 q 617 58 711 117 q 404 0 524 0 l 92 0 l 92 972 m 392 133 q 588 226 521 133 q 656 486 656 318 q 588 747 656 654 q 392 839 521 839 l 238 839 l 238 133 l 392 133 m 1093 122 l 1379 122 l 1379 0 l 878 0 l 1172 564 l 894 564 l 894 686 l 1388 686 l 1093 122 m 990 908 l 990 1004 l 1142 908 l 1293 1004 l 1293 908 l 1142 779 l 990 908 z "},"E":{"ha":675,"x_min":92,"x_max":635,"o":"m 92 972 l 624 972 l 624 839 l 238 839 l 238 575 l 539 575 l 539 442 l 238 442 l 238 133 l 635 133 l 635 0 l 92 0 l 92 972 z "},"É":{"ha":675,"x_min":92,"x_max":635,"o":"m 92 972 l 624 972 l 624 839 l 238 839 l 238 575 l 539 575 l 539 442 l 238 442 l 238 133 l 635 133 l 635 0 l 92 0 l 92 972 m 254 1189 l 464 1321 l 464 1175 l 254 1093 l 254 1189 z "},"Ĕ":{"ha":675,"x_min":92,"x_max":635,"o":"m 92 972 l 624 972 l 624 839 l 238 839 l 238 575 l 539 575 l 539 442 l 238 442 l 238 133 l 635 133 l 635 0 l 92 0 l 92 972 m 358 1093 q 218 1143 268 1093 q 168 1267 168 1193 l 278 1267 q 298 1208 278 1229 q 358 1188 318 1188 q 419 1208 399 1188 q 439 1267 439 1229 l 549 1267 q 499 1143 549 1193 q 358 1093 449 1093 z "},"Ě":{"ha":675,"x_min":92,"x_max":635,"o":"m 92 972 l 624 972 l 624 839 l 238 839 l 238 575 l 539 575 l 539 442 l 238 442 l 238 133 l 635 133 l 635 0 l 92 0 l 92 972 m 207 1194 l 207 1290 l 358 1194 l 510 1290 l 510 1194 l 358 1065 l 207 1194 z "},"Ḝ":{"ha":675,"x_min":92,"x_max":635,"o":"m 92 972 l 624 972 l 624 839 l 238 839 l 238 575 l 539 575 l 539 442 l 238 442 l 238 133 l 635 133 l 635 0 l 92 0 l 92 972 m 388 -76 q 470 -108 440 -78 q 500 -192 500 -139 q 460 -287 500 -253 q 357 -322 419 -322 q 263 -304 304 -322 l 286 -233 q 356 -249 319 -249 q 403 -235 386 -249 q 421 -193 421 -221 q 361 -139 421 -139 q 308 -147 336 -139 l 344 0 l 411 0 l 388 -76 m 358 1063 q 217 1111 268 1063 q 165 1229 165 1160 l 279 1229 q 301 1172 279 1192 q 358 1151 322 1151 q 416 1172 394 1151 q 438 1229 438 1192 l 551 1229 q 501 1111 551 1160 q 358 1063 450 1063 z "},"Ê":{"ha":675,"x_min":92,"x_max":635,"o":"m 92 972 l 624 972 l 624 839 l 238 839 l 238 575 l 539 575 l 539 442 l 238 442 l 238 133 l 635 133 l 635 0 l 92 0 l 92 972 m 207 1165 l 358 1293 l 510 1165 l 510 1069 l 358 1164 l 207 1069 l 207 1165 z "},"Ế":{"ha":675,"x_min":92,"x_max":675,"o":"m 92 972 l 624 972 l 624 839 l 238 839 l 238 575 l 539 575 l 539 442 l 238 442 l 238 133 l 635 133 l 635 0 l 92 0 l 92 972 m 535 1411 l 675 1411 l 550 1243 l 457 1243 l 535 1411 m 524 1140 l 524 1047 l 358 1136 l 193 1047 l 193 1140 l 358 1257 l 524 1140 z "},"Ệ":{"ha":675,"x_min":92,"x_max":635,"o":"m 92 972 l 624 972 l 624 839 l 238 839 l 238 575 l 539 575 l 539 442 l 238 442 l 238 133 l 635 133 l 635 0 l 92 0 l 92 972 m 207 1165 l 358 1293 l 510 1165 l 510 1069 l 358 1164 l 207 1069 l 207 1165 m 300 -112 l 428 -112 l 428 -242 l 300 -242 l 300 -112 z "},"Ề":{"ha":675,"x_min":92,"x_max":635,"o":"m 92 972 l 624 972 l 624 839 l 238 839 l 238 575 l 539 575 l 539 442 l 238 442 l 238 133 l 635 133 l 635 0 l 92 0 l 92 972 m 488 1243 l 383 1411 l 517 1411 l 578 1243 l 488 1243 m 524 1140 l 524 1047 l 358 1136 l 193 1047 l 193 1140 l 358 1257 l 524 1140 z "},"Ể":{"ha":675,"x_min":92,"x_max":635,"o":"m 92 972 l 624 972 l 624 839 l 238 839 l 238 575 l 539 575 l 539 442 l 238 442 l 238 133 l 635 133 l 635 0 l 92 0 l 92 972 m 524 1135 l 524 1042 l 358 1131 l 193 1042 l 193 1135 l 358 1251 l 524 1135 m 478 1265 q 507 1285 497 1274 q 517 1317 517 1297 q 504 1348 517 1338 q 469 1358 492 1358 q 401 1339 440 1358 l 378 1415 q 478 1435 424 1435 q 567 1407 532 1435 q 601 1329 601 1379 q 576 1256 601 1285 q 497 1208 550 1228 l 478 1265 z "},"Ễ":{"ha":675,"x_min":92,"x_max":635,"o":"m 92 972 l 624 972 l 624 839 l 238 839 l 238 575 l 539 575 l 539 442 l 238 442 l 238 133 l 635 133 l 635 0 l 92 0 l 92 972 m 524 1135 l 524 1042 l 358 1131 l 193 1042 l 193 1135 l 358 1251 l 524 1135 m 461 1306 q 416 1313 438 1306 q 363 1335 394 1321 q 324 1351 343 1344 q 292 1358 306 1358 q 250 1313 250 1358 l 154 1313 q 180 1419 154 1382 q 256 1456 206 1456 q 302 1447 279 1456 q 354 1425 325 1439 q 392 1408 374 1415 q 425 1401 411 1401 q 467 1447 467 1401 l 563 1447 q 537 1342 563 1378 q 461 1306 511 1306 z "},"Ȅ":{"ha":675,"x_min":92,"x_max":635,"o":"m 92 972 l 624 972 l 624 839 l 238 839 l 238 575 l 539 575 l 539 442 l 238 442 l 238 133 l 635 133 l 635 0 l 92 0 l 92 972 m 215 1094 l 94 1304 l 235 1304 l 308 1094 l 215 1094 m 408 1094 l 296 1304 l 436 1304 l 501 1094 l 408 1094 z "},"Ë":{"ha":675,"x_min":92,"x_max":635,"o":"m 92 972 l 624 972 l 624 839 l 238 839 l 238 575 l 539 575 l 539 442 l 238 442 l 238 133 l 635 133 l 635 0 l 92 0 l 92 972 m 188 1224 l 307 1224 l 307 1107 l 188 1107 l 188 1224 m 410 1224 l 529 1224 l 529 1107 l 410 1107 l 410 1224 z "},"Ė":{"ha":675,"x_min":92,"x_max":635,"o":"m 92 972 l 624 972 l 624 839 l 238 839 l 238 575 l 539 575 l 539 442 l 238 442 l 238 133 l 635 133 l 635 0 l 92 0 l 92 972 m 292 1229 l 425 1229 l 425 1100 l 292 1100 l 292 1229 z "},"Ẹ":{"ha":675,"x_min":92,"x_max":635,"o":"m 92 972 l 624 972 l 624 839 l 238 839 l 238 575 l 539 575 l 539 442 l 238 442 l 238 133 l 635 133 l 635 0 l 92 0 l 92 972 m 300 -112 l 428 -112 l 428 -242 l 300 -242 l 300 -112 z "},"È":{"ha":675,"x_min":92,"x_max":635,"o":"m 92 972 l 624 972 l 624 839 l 238 839 l 238 575 l 539 575 l 539 442 l 238 442 l 238 133 l 635 133 l 635 0 l 92 0 l 92 972 m 253 1176 l 253 1326 l 463 1192 l 463 1093 l 253 1176 z "},"Ẻ":{"ha":675,"x_min":92,"x_max":635,"o":"m 92 972 l 624 972 l 624 839 l 238 839 l 238 575 l 539 575 l 539 442 l 238 442 l 238 133 l 635 133 l 635 0 l 92 0 l 92 972 m 331 1069 q 369 1118 358 1100 q 381 1160 381 1136 q 368 1194 381 1182 q 333 1206 356 1206 q 264 1183 306 1206 l 240 1257 q 340 1279 285 1279 q 427 1249 393 1279 q 461 1164 461 1218 q 442 1090 461 1121 q 379 1021 422 1058 l 331 1069 z "},"Ȇ":{"ha":675,"x_min":92,"x_max":635,"o":"m 92 972 l 624 972 l 624 839 l 238 839 l 238 575 l 539 575 l 539 442 l 238 442 l 238 133 l 635 133 l 635 0 l 92 0 l 92 972 m 358 1250 q 501 1201 450 1250 q 551 1083 551 1153 l 438 1083 q 416 1140 438 1121 q 358 1160 394 1160 q 301 1140 322 1160 q 279 1083 279 1121 l 165 1083 q 217 1201 165 1153 q 358 1250 268 1250 z "},"Ē":{"ha":675,"x_min":92,"x_max":635,"o":"m 92 972 l 624 972 l 624 839 l 238 839 l 238 575 l 539 575 l 539 442 l 238 442 l 238 133 l 635 133 l 635 0 l 92 0 l 92 972 m 147 1197 l 569 1197 l 569 1101 l 147 1101 l 147 1197 z "},"Ḗ":{"ha":675,"x_min":92,"x_max":635,"o":"m 92 972 l 624 972 l 624 839 l 238 839 l 238 575 l 539 575 l 539 442 l 238 442 l 238 133 l 635 133 l 635 0 l 92 0 l 92 972 m 147 1197 l 569 1197 l 569 1101 l 147 1101 l 147 1197 m 254 1371 l 464 1482 l 464 1347 l 254 1283 l 254 1371 z "},"Ḕ":{"ha":675,"x_min":92,"x_max":635,"o":"m 92 972 l 624 972 l 624 839 l 238 839 l 238 575 l 539 575 l 539 442 l 238 442 l 238 133 l 635 133 l 635 0 l 92 0 l 92 972 m 147 1197 l 569 1197 l 569 1101 l 147 1101 l 147 1197 m 253 1346 l 253 1482 l 463 1371 l 463 1283 l 253 1346 z "},"Ę":{"ha":675,"x_min":92,"x_max":693,"o":"m 92 972 l 624 972 l 624 839 l 238 839 l 238 575 l 539 575 l 539 442 l 238 442 l 238 133 l 635 133 l 635 0 l 92 0 l 92 972 m 635 0 q 564 -81 588 -46 q 540 -151 540 -115 q 558 -198 540 -182 q 607 -214 576 -214 q 671 -200 636 -214 l 693 -269 q 593 -290 649 -290 q 495 -260 533 -290 q 457 -174 457 -229 q 483 -85 457 -125 q 556 0 510 -44 l 635 0 z "},"Ẽ":{"ha":675,"x_min":92,"x_max":635,"o":"m 92 972 l 624 972 l 624 839 l 238 839 l 238 575 l 539 575 l 539 442 l 238 442 l 238 133 l 635 133 l 635 0 l 92 0 l 92 972 m 456 1090 q 407 1100 429 1090 q 358 1128 385 1110 q 325 1148 339 1142 q 296 1154 311 1154 q 268 1140 278 1154 q 258 1101 258 1125 l 153 1101 q 261 1261 160 1261 q 309 1252 288 1261 q 358 1225 331 1243 q 392 1205 378 1211 q 421 1199 406 1199 q 449 1213 439 1199 q 458 1250 458 1226 l 564 1250 q 533 1131 561 1172 q 456 1090 506 1090 z "},"F":{"ha":626,"x_min":92,"x_max":606,"o":"m 92 972 l 606 972 l 606 839 l 238 839 l 238 576 l 522 576 l 522 443 l 238 443 l 238 0 l 92 0 l 92 972 z "},"G":{"ha":793,"x_min":42,"x_max":738,"o":"m 488 -19 q 252 44 353 -19 q 97 223 151 108 q 42 486 42 338 q 99 752 42 638 q 259 929 157 867 q 489 992 361 992 q 710 949 610 992 l 693 807 q 602 840 646 829 q 506 851 558 851 q 283 751 363 851 q 203 486 203 650 q 278 219 203 318 q 499 121 354 121 q 592 136 550 121 l 592 354 l 474 354 l 474 488 l 738 488 l 738 47 q 625 -1 690 17 q 488 -19 560 -19 z "},"Ğ":{"ha":793,"x_min":42,"x_max":738,"o":"m 488 -19 q 252 44 353 -19 q 97 223 151 108 q 42 486 42 338 q 99 752 42 638 q 259 929 157 867 q 489 992 361 992 q 710 949 610 992 l 693 807 q 602 840 646 829 q 506 851 558 851 q 283 751 363 851 q 203 486 203 650 q 278 219 203 318 q 499 121 354 121 q 592 136 550 121 l 592 354 l 474 354 l 474 488 l 738 488 l 738 47 q 625 -1 690 17 q 488 -19 560 -19 m 483 1063 q 342 1111 393 1063 q 290 1229 290 1160 l 404 1229 q 426 1172 404 1192 q 483 1151 447 1151 q 541 1172 519 1151 q 563 1229 563 1192 l 676 1229 q 626 1111 676 1160 q 483 1063 575 1063 z "},"Ǧ":{"ha":793,"x_min":42,"x_max":738,"o":"m 488 -19 q 252 44 353 -19 q 97 223 151 108 q 42 486 42 338 q 99 752 42 638 q 259 929 157 867 q 489 992 361 992 q 710 949 610 992 l 693 807 q 602 840 646 829 q 506 851 558 851 q 283 751 363 851 q 203 486 203 650 q 278 219 203 318 q 499 121 354 121 q 592 136 550 121 l 592 354 l 474 354 l 474 488 l 738 488 l 738 47 q 625 -1 690 17 q 488 -19 560 -19 m 318 1203 l 318 1296 l 483 1207 l 649 1296 l 649 1203 l 483 1086 l 318 1203 z "},"Ĝ":{"ha":793,"x_min":42,"x_max":738,"o":"m 488 -19 q 252 44 353 -19 q 97 223 151 108 q 42 486 42 338 q 99 752 42 638 q 259 929 157 867 q 489 992 361 992 q 710 949 610 992 l 693 807 q 602 840 646 829 q 506 851 558 851 q 283 751 363 851 q 203 486 203 650 q 278 219 203 318 q 499 121 354 121 q 592 136 550 121 l 592 354 l 474 354 l 474 488 l 738 488 l 738 47 q 625 -1 690 17 q 488 -19 560 -19 m 649 1136 l 649 1043 l 483 1132 l 318 1043 l 318 1136 l 483 1253 l 649 1136 z "},"Ģ":{"ha":793,"x_min":42,"x_max":738,"o":"m 488 -19 q 252 44 353 -19 q 97 223 151 108 q 42 486 42 338 q 99 752 42 638 q 259 929 157 867 q 489 992 361 992 q 710 949 610 992 l 693 807 q 602 840 646 829 q 506 851 558 851 q 283 751 363 851 q 203 486 203 650 q 278 219 203 318 q 499 121 354 121 q 592 136 550 121 l 592 354 l 474 354 l 474 488 l 738 488 l 738 47 q 625 -1 690 17 q 488 -19 560 -19 m 418 -403 l 472 -253 l 426 -253 l 426 -126 l 560 -126 l 560 -237 l 481 -403 l 418 -403 z "},"Ġ":{"ha":793,"x_min":42,"x_max":738,"o":"m 488 -19 q 252 44 353 -19 q 97 223 151 108 q 42 486 42 338 q 99 752 42 638 q 259 929 157 867 q 489 992 361 992 q 710 949 610 992 l 693 807 q 602 840 646 829 q 506 851 558 851 q 283 751 363 851 q 203 486 203 650 q 278 219 203 318 q 499 121 354 121 q 592 136 550 121 l 592 354 l 474 354 l 474 488 l 738 488 l 738 47 q 625 -1 690 17 q 488 -19 560 -19 m 417 1229 l 550 1229 l 550 1100 l 417 1100 l 417 1229 z "},"Ḡ":{"ha":793,"x_min":42,"x_max":738,"o":"m 488 -19 q 252 44 353 -19 q 97 223 151 108 q 42 486 42 338 q 99 752 42 638 q 259 929 157 867 q 489 992 361 992 q 710 949 610 992 l 693 807 q 602 840 646 829 q 506 851 558 851 q 283 751 363 851 q 203 486 203 650 q 278 219 203 318 q 499 121 354 121 q 592 136 550 121 l 592 354 l 474 354 l 474 488 l 738 488 l 738 47 q 625 -1 690 17 q 488 -19 560 -19 m 272 1197 l 694 1197 l 694 1101 l 272 1101 l 272 1197 z "},"H":{"ha":883,"x_min":92,"x_max":792,"o":"m 92 972 l 238 972 l 238 578 l 646 578 l 646 972 l 792 972 l 792 0 l 646 0 l 646 435 l 238 435 l 238 0 l 92 0 l 92 972 z "},"Ħ":{"ha":900,"x_min":19,"x_max":881,"o":"m 881 688 l 800 688 l 800 0 l 654 0 l 654 435 l 246 435 l 246 0 l 100 0 l 100 688 l 19 688 l 19 790 l 100 790 l 100 972 l 246 972 l 246 790 l 654 790 l 654 972 l 800 972 l 800 790 l 881 790 l 881 688 m 654 688 l 246 688 l 246 578 l 654 578 l 654 688 z "},"Ḫ":{"ha":883,"x_min":92,"x_max":792,"o":"m 92 972 l 238 972 l 238 578 l 646 578 l 646 972 l 792 972 l 792 0 l 646 0 l 646 435 l 238 435 l 238 0 l 92 0 l 92 972 m 442 -310 q 301 -260 351 -310 q 251 -136 251 -210 l 361 -136 q 381 -194 361 -174 q 442 -215 401 -215 q 502 -194 482 -215 q 522 -136 522 -174 l 632 -136 q 582 -260 632 -210 q 442 -310 532 -310 z "},"Ĥ":{"ha":883,"x_min":92,"x_max":792,"o":"m 92 972 l 238 972 l 238 578 l 646 578 l 646 972 l 792 972 l 792 0 l 646 0 l 646 435 l 238 435 l 238 0 l 92 0 l 92 972 m 607 1136 l 607 1043 l 442 1132 l 276 1043 l 276 1136 l 442 1253 l 607 1136 z "},"Ḥ":{"ha":883,"x_min":92,"x_max":792,"o":"m 92 972 l 238 972 l 238 578 l 646 578 l 646 972 l 792 972 l 792 0 l 646 0 l 646 435 l 238 435 l 238 0 l 92 0 l 92 972 m 378 -112 l 506 -112 l 506 -242 l 378 -242 l 378 -112 z "},"I":{"ha":335,"x_min":94,"x_max":240,"o":"m 94 972 l 240 972 l 240 0 l 94 0 l 94 972 z "},"Ĳ":{"ha":831,"x_min":82,"x_max":749,"o":"m 82 972 l 228 972 l 228 454 l 82 454 l 82 972 m 231 346 q 279 179 239 238 q 415 121 319 121 q 565 198 526 121 q 603 421 603 275 l 603 972 l 749 972 l 749 381 q 666 85 749 190 q 415 -19 583 -19 q 178 71 260 -19 q 85 326 97 161 l 231 346 z "},"Í":{"ha":335,"x_min":63,"x_max":272,"o":"m 94 972 l 240 972 l 240 0 l 94 0 l 94 972 m 63 1189 l 272 1321 l 272 1175 l 63 1093 l 63 1189 z "},"Ĭ":{"ha":335,"x_min":-24,"x_max":357,"o":"m 94 972 l 240 972 l 240 0 l 94 0 l 94 972 m 167 1093 q 26 1143 76 1093 q -24 1267 -24 1193 l 86 1267 q 106 1208 86 1229 q 167 1188 126 1188 q 227 1208 207 1188 q 247 1267 247 1229 l 357 1267 q 307 1143 357 1193 q 167 1093 257 1093 z "},"Î":{"ha":335,"x_min":15,"x_max":318,"o":"m 94 972 l 240 972 l 240 0 l 94 0 l 94 972 m 15 1165 l 167 1293 l 318 1165 l 318 1069 l 167 1164 l 15 1069 l 15 1165 z "},"Ȉ":{"ha":335,"x_min":-97,"x_max":310,"o":"m 94 972 l 240 972 l 240 0 l 94 0 l 94 972 m 24 1094 l -97 1304 l 43 1304 l 117 1094 l 24 1094 m 217 1094 l 104 1304 l 244 1304 l 310 1094 l 217 1094 z "},"Ï":{"ha":335,"x_min":-4,"x_max":338,"o":"m 94 972 l 240 972 l 240 0 l 94 0 l 94 972 m -4 1224 l 115 1224 l 115 1107 l -4 1107 l -4 1224 m 218 1224 l 338 1224 l 338 1107 l 218 1107 l 218 1224 z "},"Ḯ":{"ha":335,"x_min":-4,"x_max":338,"o":"m 94 972 l 240 972 l 240 0 l 94 0 l 94 972 m -4 1207 l 117 1207 l 117 1097 l -4 1097 l -4 1207 m 217 1207 l 338 1207 l 338 1097 l 217 1097 l 217 1207 m 63 1363 l 272 1474 l 272 1339 l 63 1275 l 63 1363 z "},"İ":{"ha":335,"x_min":94,"x_max":240,"o":"m 94 972 l 240 972 l 240 0 l 94 0 l 94 972 m 100 1229 l 233 1229 l 233 1100 l 100 1100 l 100 1229 z "},"Ị":{"ha":335,"x_min":94,"x_max":240,"o":"m 94 972 l 240 972 l 240 0 l 94 0 l 94 972 m 103 -112 l 231 -112 l 231 -242 l 103 -242 l 103 -112 z "},"Ì":{"ha":335,"x_min":61,"x_max":271,"o":"m 94 972 l 240 972 l 240 0 l 94 0 l 94 972 m 61 1176 l 61 1326 l 271 1192 l 271 1093 l 61 1176 z "},"Ỉ":{"ha":335,"x_min":49,"x_max":269,"o":"m 94 972 l 240 972 l 240 0 l 94 0 l 94 972 m 139 1069 q 178 1118 167 1100 q 189 1160 189 1136 q 176 1194 189 1182 q 142 1206 164 1206 q 72 1183 114 1206 l 49 1257 q 149 1279 93 1279 q 235 1249 201 1279 q 269 1164 269 1218 q 250 1090 269 1121 q 188 1021 231 1058 l 139 1069 z "},"Ȋ":{"ha":335,"x_min":-26,"x_max":360,"o":"m 94 972 l 240 972 l 240 0 l 94 0 l 94 972 m 167 1250 q 309 1201 258 1250 q 360 1083 360 1153 l 246 1083 q 224 1140 246 1121 q 167 1160 203 1160 q 109 1140 131 1160 q 88 1083 88 1121 l -26 1083 q 25 1201 -26 1153 q 167 1250 76 1250 z "},"Ī":{"ha":335,"x_min":-44,"x_max":378,"o":"m 94 972 l 240 972 l 240 0 l 94 0 l 94 972 m -44 1197 l 378 1197 l 378 1101 l -44 1101 l -44 1197 z "},"Į":{"ha":335,"x_min":63,"x_max":299,"o":"m 94 972 l 240 972 l 240 0 l 94 0 l 94 972 m 240 0 q 169 -81 193 -46 q 146 -151 146 -115 q 164 -198 146 -182 q 213 -214 182 -214 q 276 -200 242 -214 l 299 -269 q 199 -290 254 -290 q 101 -260 139 -290 q 63 -174 63 -229 q 89 -85 63 -125 q 161 0 115 -44 l 240 0 z "},"Ĩ":{"ha":335,"x_min":-39,"x_max":372,"o":"m 94 972 l 240 972 l 240 0 l 94 0 l 94 972 m 264 1090 q 215 1100 238 1090 q 167 1128 193 1110 q 133 1148 147 1142 q 104 1154 119 1154 q 76 1140 86 1154 q 67 1101 67 1125 l -39 1101 q 69 1261 -32 1261 q 117 1252 96 1261 q 167 1225 139 1243 q 200 1205 186 1211 q 229 1199 214 1199 q 257 1213 247 1199 q 267 1250 267 1226 l 372 1250 q 342 1131 369 1172 q 264 1090 314 1090 z "},"J":{"ha":338,"x_min":-3,"x_max":242,"o":"m -3 -110 q 74 -87 51 -110 q 96 -3 96 -64 l 96 972 l 242 972 l 242 -40 q 188 -188 242 -137 q 39 -239 133 -239 l 10 -239 l -3 -110 z "},"Ĵ":{"ha":338,"x_min":-3,"x_max":333,"o":"m -3 -110 q 74 -87 51 -110 q 96 -3 96 -64 l 96 972 l 242 972 l 242 -40 q 188 -188 242 -137 q 39 -239 133 -239 l 10 -239 l -3 -110 m 333 1136 l 333 1043 l 168 1132 l 3 1043 l 3 1136 l 168 1253 l 333 1136 z "},"K":{"ha":732,"x_min":99,"x_max":721,"o":"m 99 972 l 243 972 l 243 0 l 99 0 l 99 972 m 250 515 l 554 972 l 721 972 l 413 515 l 721 0 l 554 0 l 250 515 z "},"Ķ":{"ha":732,"x_min":99,"x_max":721,"o":"m 99 972 l 243 972 l 243 0 l 99 0 l 99 972 m 250 515 l 554 972 l 721 972 l 413 515 l 721 0 l 554 0 l 250 515 m 324 -403 l 378 -253 l 332 -253 l 332 -126 l 465 -126 l 465 -237 l 386 -403 l 324 -403 z "},"L":{"ha":597,"x_min":92,"x_max":589,"o":"m 92 972 l 238 972 l 238 133 l 589 133 l 589 0 l 92 0 l 92 972 z "},"Ǉ":{"ha":935,"x_min":92,"x_max":839,"o":"m 92 972 l 238 972 l 238 133 l 589 133 l 589 0 l 92 0 l 92 972 m 594 -110 q 671 -87 649 -110 q 693 -3 693 -64 l 693 972 l 839 972 l 839 -40 q 785 -188 839 -137 q 636 -239 731 -239 l 607 -239 l 594 -110 z "},"Ĺ":{"ha":597,"x_min":60,"x_max":589,"o":"m 92 972 l 238 972 l 238 133 l 589 133 l 589 0 l 92 0 l 92 972 m 60 1146 l 269 1257 l 269 1122 l 60 1058 l 60 1146 z "},"Ľ":{"ha":597,"x_min":92,"x_max":589,"o":"m 92 972 l 238 972 l 238 133 l 589 133 l 589 0 l 92 0 l 92 972 m 460 972 l 589 972 l 550 735 l 460 735 l 460 972 z "},"Ļ":{"ha":597,"x_min":92,"x_max":589,"o":"m 92 972 l 238 972 l 238 133 l 589 133 l 589 0 l 92 0 l 92 972 m 265 -403 l 319 -253 l 274 -253 l 274 -126 l 407 -126 l 407 -237 l 328 -403 l 265 -403 z "},"Ŀ":{"ha":597,"x_min":92,"x_max":589,"o":"m 92 972 l 238 972 l 238 133 l 589 133 l 589 0 l 92 0 l 92 972 m 385 617 l 540 617 l 540 458 l 385 458 l 385 617 z "},"Ḷ":{"ha":597,"x_min":92,"x_max":589,"o":"m 92 972 l 238 972 l 238 133 l 589 133 l 589 0 l 92 0 l 92 972 m 276 -112 l 404 -112 l 404 -242 l 276 -242 l 276 -112 z "},"ǈ":{"ha":883,"x_min":92,"x_max":811,"o":"m 92 972 l 238 972 l 238 133 l 589 133 l 589 0 l 92 0 l 92 972 m 671 972 l 811 972 l 811 819 l 671 819 l 671 972 m 596 -221 q 656 -195 640 -218 q 671 -104 671 -172 l 671 686 l 811 686 l 811 -151 q 770 -284 811 -242 q 651 -332 729 -326 l 608 -336 l 596 -221 z "},"Ḻ":{"ha":597,"x_min":92,"x_max":589,"o":"m 92 972 l 238 972 l 238 133 l 589 133 l 589 0 l 92 0 l 92 972 m 143 -129 l 538 -129 l 538 -229 l 143 -229 l 143 -129 z "},"Ł":{"ha":607,"x_min":21,"x_max":599,"o":"m 599 133 l 599 0 l 101 0 l 101 521 l 21 499 l 21 610 l 101 632 l 101 972 l 247 972 l 247 672 l 474 733 l 474 624 l 247 561 l 247 133 l 599 133 z "},"M":{"ha":997,"x_min":58,"x_max":943,"o":"m 790 0 l 722 667 l 501 199 l 281 667 l 211 0 l 58 0 l 171 972 l 292 972 l 501 504 l 710 972 l 831 972 l 943 0 l 790 0 z "},"Ṃ":{"ha":997,"x_min":58,"x_max":943,"o":"m 790 0 l 722 667 l 501 199 l 281 667 l 211 0 l 58 0 l 171 972 l 292 972 l 501 504 l 710 972 l 831 972 l 943 0 l 790 0 m 440 -112 l 568 -112 l 568 -242 l 440 -242 l 440 -112 z "},"N":{"ha":842,"x_min":92,"x_max":750,"o":"m 92 972 l 249 972 l 606 307 l 606 972 l 750 972 l 750 0 l 619 0 l 238 706 l 238 0 l 92 0 l 92 972 z "},"Ǌ":{"ha":1179,"x_min":92,"x_max":1083,"o":"m 92 972 l 249 972 l 606 307 l 606 972 l 750 972 l 750 0 l 619 0 l 238 706 l 238 0 l 92 0 l 92 972 m 839 -110 q 915 -87 893 -110 q 938 -3 938 -64 l 938 972 l 1083 972 l 1083 -40 q 1029 -188 1083 -137 q 881 -239 975 -239 l 851 -239 l 839 -110 z "},"Ń":{"ha":842,"x_min":92,"x_max":750,"o":"m 92 972 l 249 972 l 606 307 l 606 972 l 750 972 l 750 0 l 619 0 l 238 706 l 238 0 l 92 0 l 92 972 m 324 1146 l 533 1257 l 533 1122 l 324 1058 l 324 1146 z "},"Ň":{"ha":842,"x_min":92,"x_max":750,"o":"m 92 972 l 249 972 l 606 307 l 606 972 l 750 972 l 750 0 l 619 0 l 238 706 l 238 0 l 92 0 l 92 972 m 263 1203 l 263 1296 l 428 1207 l 593 1296 l 593 1203 l 428 1086 l 263 1203 z "},"Ņ":{"ha":842,"x_min":92,"x_max":750,"o":"m 92 972 l 249 972 l 606 307 l 606 972 l 750 972 l 750 0 l 619 0 l 238 706 l 238 0 l 92 0 l 92 972 m 353 -403 l 407 -253 l 361 -253 l 361 -126 l 494 -126 l 494 -237 l 415 -403 l 353 -403 z "},"Ṅ":{"ha":842,"x_min":92,"x_max":750,"o":"m 92 972 l 249 972 l 606 307 l 606 972 l 750 972 l 750 0 l 619 0 l 238 706 l 238 0 l 92 0 l 92 972 m 361 1229 l 494 1229 l 494 1100 l 361 1100 l 361 1229 z "},"Ṇ":{"ha":842,"x_min":92,"x_max":750,"o":"m 92 972 l 249 972 l 606 307 l 606 972 l 750 972 l 750 0 l 619 0 l 238 706 l 238 0 l 92 0 l 92 972 m 364 -112 l 492 -112 l 492 -242 l 364 -242 l 364 -112 z "},"Ŋ":{"ha":904,"x_min":94,"x_max":821,"o":"m 821 69 q 733 -182 821 -96 q 497 -268 644 -268 q 381 -253 438 -268 l 399 -124 q 497 -136 447 -136 q 627 -87 579 -136 q 675 57 675 -37 l 675 594 q 621 790 675 722 q 460 858 567 858 q 333 831 389 858 q 240 757 278 803 l 240 0 l 94 0 l 94 972 l 217 972 l 225 879 q 347 963 276 933 q 494 992 417 992 q 738 890 654 992 q 821 614 821 789 l 821 69 z "},"ǋ":{"ha":1117,"x_min":92,"x_max":1044,"o":"m 92 972 l 249 972 l 606 307 l 606 972 l 750 972 l 750 0 l 619 0 l 238 706 l 238 0 l 92 0 l 92 972 m 904 972 l 1044 972 l 1044 819 l 904 819 l 904 972 m 829 -221 q 889 -195 874 -218 q 904 -104 904 -172 l 904 686 l 1044 686 l 1044 -151 q 1003 -284 1044 -242 q 885 -332 963 -326 l 842 -336 l 829 -221 z "},"Ṉ":{"ha":842,"x_min":92,"x_max":750,"o":"m 92 972 l 249 972 l 606 307 l 606 972 l 750 972 l 750 0 l 619 0 l 238 706 l 238 0 l 92 0 l 92 972 m 231 -129 l 625 -129 l 625 -229 l 231 -229 l 231 -129 z "},"Ñ":{"ha":842,"x_min":92,"x_max":750,"o":"m 92 972 l 249 972 l 606 307 l 606 972 l 750 972 l 750 0 l 619 0 l 238 706 l 238 0 l 92 0 l 92 972 m 525 1090 q 476 1100 499 1090 q 428 1128 454 1110 q 394 1148 408 1142 q 365 1154 381 1154 q 338 1140 347 1154 q 328 1101 328 1125 l 222 1101 q 331 1261 229 1261 q 378 1252 357 1261 q 428 1225 400 1243 q 461 1205 447 1211 q 490 1199 475 1199 q 518 1213 508 1199 q 528 1250 528 1226 l 633 1250 q 603 1131 631 1172 q 525 1090 575 1090 z "},"O":{"ha":907,"x_min":42,"x_max":865,"o":"m 454 -19 q 241 43 335 -19 q 94 220 147 106 q 42 486 42 335 q 94 752 42 638 q 241 929 147 867 q 454 992 335 992 q 667 929 574 992 q 813 752 760 867 q 865 486 865 638 q 813 220 865 335 q 667 43 760 106 q 454 -19 574 -19 m 454 126 q 644 226 578 126 q 711 486 711 326 q 644 746 711 646 q 454 846 578 846 q 264 746 331 846 q 197 486 197 646 q 264 226 197 326 q 454 126 331 126 z "},"Ó":{"ha":907,"x_min":42,"x_max":865,"o":"m 454 -19 q 241 43 335 -19 q 94 220 147 106 q 42 486 42 335 q 94 752 42 638 q 241 929 147 867 q 454 992 335 992 q 667 929 574 992 q 813 752 760 867 q 865 486 865 638 q 813 220 865 335 q 667 43 760 106 q 454 -19 574 -19 m 454 126 q 644 226 578 126 q 711 486 711 326 q 644 746 711 646 q 454 846 578 846 q 264 746 331 846 q 197 486 197 646 q 264 226 197 326 q 454 126 331 126 m 350 1189 l 560 1321 l 560 1175 l 350 1093 l 350 1189 z "},"Ŏ":{"ha":907,"x_min":42,"x_max":865,"o":"m 454 -19 q 241 43 335 -19 q 94 220 147 106 q 42 486 42 335 q 94 752 42 638 q 241 929 147 867 q 454 992 335 992 q 667 929 574 992 q 813 752 760 867 q 865 486 865 638 q 813 220 865 335 q 667 43 760 106 q 454 -19 574 -19 m 454 126 q 644 226 578 126 q 711 486 711 326 q 644 746 711 646 q 454 846 578 846 q 264 746 331 846 q 197 486 197 646 q 264 226 197 326 q 454 126 331 126 m 454 1063 q 313 1111 364 1063 q 261 1229 261 1160 l 375 1229 q 397 1172 375 1192 q 454 1151 418 1151 q 512 1172 490 1151 q 533 1229 533 1192 l 647 1229 q 597 1111 647 1160 q 454 1063 546 1063 z "},"Ô":{"ha":907,"x_min":42,"x_max":865,"o":"m 454 -19 q 241 43 335 -19 q 94 220 147 106 q 42 486 42 335 q 94 752 42 638 q 241 929 147 867 q 454 992 335 992 q 667 929 574 992 q 813 752 760 867 q 865 486 865 638 q 813 220 865 335 q 667 43 760 106 q 454 -19 574 -19 m 454 126 q 644 226 578 126 q 711 486 711 326 q 644 746 711 646 q 454 846 578 846 q 264 746 331 846 q 197 486 197 646 q 264 226 197 326 q 454 126 331 126 m 303 1165 l 454 1293 l 606 1165 l 606 1069 l 454 1164 l 303 1069 l 303 1165 z "},"Ố":{"ha":907,"x_min":42,"x_max":865,"o":"m 454 -19 q 241 43 335 -19 q 94 220 147 106 q 42 486 42 335 q 94 752 42 638 q 241 929 147 867 q 454 992 335 992 q 667 929 574 992 q 813 752 760 867 q 865 486 865 638 q 813 220 865 335 q 667 43 760 106 q 454 -19 574 -19 m 454 126 q 644 226 578 126 q 711 486 711 326 q 644 746 711 646 q 454 846 578 846 q 264 746 331 846 q 197 486 197 646 q 264 226 197 326 q 454 126 331 126 m 631 1411 l 771 1411 l 646 1243 l 553 1243 l 631 1411 m 619 1140 l 619 1047 l 454 1136 l 289 1047 l 289 1140 l 454 1257 l 619 1140 z "},"Ộ":{"ha":907,"x_min":42,"x_max":865,"o":"m 454 -19 q 241 43 335 -19 q 94 220 147 106 q 42 486 42 335 q 94 752 42 638 q 241 929 147 867 q 454 992 335 992 q 667 929 574 992 q 813 752 760 867 q 865 486 865 638 q 813 220 865 335 q 667 43 760 106 q 454 -19 574 -19 m 454 126 q 644 226 578 126 q 711 486 711 326 q 644 746 711 646 q 454 846 578 846 q 264 746 331 846 q 197 486 197 646 q 264 226 197 326 q 454 126 331 126 m 303 1165 l 454 1293 l 606 1165 l 606 1069 l 454 1164 l 303 1069 l 303 1165 m 390 -112 l 518 -112 l 518 -242 l 390 -242 l 390 -112 z "},"Ồ":{"ha":907,"x_min":42,"x_max":865,"o":"m 454 -19 q 241 43 335 -19 q 94 220 147 106 q 42 486 42 335 q 94 752 42 638 q 241 929 147 867 q 454 992 335 992 q 667 929 574 992 q 813 752 760 867 q 865 486 865 638 q 813 220 865 335 q 667 43 760 106 q 454 -19 574 -19 m 454 126 q 644 226 578 126 q 711 486 711 326 q 644 746 711 646 q 454 846 578 846 q 264 746 331 846 q 197 486 197 646 q 264 226 197 326 q 454 126 331 126 m 583 1243 l 479 1411 l 613 1411 l 674 1243 l 583 1243 m 619 1140 l 619 1047 l 454 1136 l 289 1047 l 289 1140 l 454 1257 l 619 1140 z "},"Ổ":{"ha":907,"x_min":42,"x_max":865,"o":"m 454 -19 q 241 43 335 -19 q 94 220 147 106 q 42 486 42 335 q 94 752 42 638 q 241 929 147 867 q 454 992 335 992 q 667 929 574 992 q 813 752 760 867 q 865 486 865 638 q 813 220 865 335 q 667 43 760 106 q 454 -19 574 -19 m 454 126 q 644 226 578 126 q 711 486 711 326 q 644 746 711 646 q 454 846 578 846 q 264 746 331 846 q 197 486 197 646 q 264 226 197 326 q 454 126 331 126 m 619 1135 l 619 1042 l 454 1131 l 289 1042 l 289 1135 l 454 1251 l 619 1135 m 574 1265 q 603 1285 593 1274 q 613 1317 613 1297 q 600 1348 613 1338 q 565 1358 588 1358 q 497 1339 536 1358 l 474 1415 q 574 1435 519 1435 q 663 1407 628 1435 q 697 1329 697 1379 q 672 1256 697 1285 q 593 1208 646 1228 l 574 1265 z "},"Ỗ":{"ha":907,"x_min":42,"x_max":865,"o":"m 454 -19 q 241 43 335 -19 q 94 220 147 106 q 42 486 42 335 q 94 752 42 638 q 241 929 147 867 q 454 992 335 992 q 667 929 574 992 q 813 752 760 867 q 865 486 865 638 q 813 220 865 335 q 667 43 760 106 q 454 -19 574 -19 m 454 126 q 644 226 578 126 q 711 486 711 326 q 644 746 711 646 q 454 846 578 846 q 264 746 331 846 q 197 486 197 646 q 264 226 197 326 q 454 126 331 126 m 619 1135 l 619 1042 l 454 1131 l 289 1042 l 289 1135 l 454 1251 l 619 1135 m 557 1306 q 512 1313 533 1306 q 458 1335 490 1321 q 420 1351 439 1344 q 388 1358 401 1358 q 346 1313 346 1358 l 250 1313 q 276 1419 250 1382 q 351 1456 301 1456 q 398 1447 375 1456 q 450 1425 421 1439 q 488 1408 469 1415 q 521 1401 507 1401 q 563 1447 563 1401 l 658 1447 q 633 1342 658 1378 q 557 1306 607 1306 z "},"Ȍ":{"ha":907,"x_min":42,"x_max":865,"o":"m 454 -19 q 241 43 335 -19 q 94 220 147 106 q 42 486 42 335 q 94 752 42 638 q 241 929 147 867 q 454 992 335 992 q 667 929 574 992 q 813 752 760 867 q 865 486 865 638 q 813 220 865 335 q 667 43 760 106 q 454 -19 574 -19 m 454 126 q 644 226 578 126 q 711 486 711 326 q 644 746 711 646 q 454 846 578 846 q 264 746 331 846 q 197 486 197 646 q 264 226 197 326 q 454 126 331 126 m 311 1094 l 190 1304 l 331 1304 l 404 1094 l 311 1094 m 504 1094 l 392 1304 l 532 1304 l 597 1094 l 504 1094 z "},"Ö":{"ha":907,"x_min":42,"x_max":865,"o":"m 454 -19 q 241 43 335 -19 q 94 220 147 106 q 42 486 42 335 q 94 752 42 638 q 241 929 147 867 q 454 992 335 992 q 667 929 574 992 q 813 752 760 867 q 865 486 865 638 q 813 220 865 335 q 667 43 760 106 q 454 -19 574 -19 m 454 126 q 644 226 578 126 q 711 486 711 326 q 644 746 711 646 q 454 846 578 846 q 264 746 331 846 q 197 486 197 646 q 264 226 197 326 q 454 126 331 126 m 283 1224 l 403 1224 l 403 1107 l 283 1107 l 283 1224 m 506 1224 l 625 1224 l 625 1107 l 506 1107 l 506 1224 z "},"Ȫ":{"ha":907,"x_min":42,"x_max":865,"o":"m 454 -19 q 241 43 335 -19 q 94 220 147 106 q 42 486 42 335 q 94 752 42 638 q 241 929 147 867 q 454 992 335 992 q 667 929 574 992 q 813 752 760 867 q 865 486 865 638 q 813 220 865 335 q 667 43 760 106 q 454 -19 574 -19 m 454 126 q 644 226 578 126 q 711 486 711 326 q 644 746 711 646 q 454 846 578 846 q 264 746 331 846 q 197 486 197 646 q 264 226 197 326 q 454 126 331 126 m 283 1207 l 404 1207 l 404 1097 l 283 1097 l 283 1207 m 504 1207 l 625 1207 l 625 1097 l 504 1097 l 504 1207 m 243 1414 l 665 1414 l 665 1318 l 243 1318 l 243 1414 z "},"Ȱ":{"ha":907,"x_min":42,"x_max":865,"o":"m 454 -19 q 241 43 335 -19 q 94 220 147 106 q 42 486 42 335 q 94 752 42 638 q 241 929 147 867 q 454 992 335 992 q 667 929 574 992 q 813 752 760 867 q 865 486 865 638 q 813 220 865 335 q 667 43 760 106 q 454 -19 574 -19 m 454 126 q 644 226 578 126 q 711 486 711 326 q 644 746 711 646 q 454 846 578 846 q 264 746 331 846 q 197 486 197 646 q 264 226 197 326 q 454 126 331 126 m 388 1229 l 521 1229 l 521 1100 l 388 1100 l 388 1229 m 243 1436 l 665 1436 l 665 1340 l 243 1340 l 243 1436 z "},"Ọ":{"ha":907,"x_min":42,"x_max":865,"o":"m 454 -19 q 241 43 335 -19 q 94 220 147 106 q 42 486 42 335 q 94 752 42 638 q 241 929 147 867 q 454 992 335 992 q 667 929 574 992 q 813 752 760 867 q 865 486 865 638 q 813 220 865 335 q 667 43 760 106 q 454 -19 574 -19 m 454 126 q 644 226 578 126 q 711 486 711 326 q 644 746 711 646 q 454 846 578 846 q 264 746 331 846 q 197 486 197 646 q 264 226 197 326 q 454 126 331 126 m 390 -112 l 518 -112 l 518 -242 l 390 -242 l 390 -112 z "},"Ò":{"ha":907,"x_min":42,"x_max":865,"o":"m 454 -19 q 241 43 335 -19 q 94 220 147 106 q 42 486 42 335 q 94 752 42 638 q 241 929 147 867 q 454 992 335 992 q 667 929 574 992 q 813 752 760 867 q 865 486 865 638 q 813 220 865 335 q 667 43 760 106 q 454 -19 574 -19 m 454 126 q 644 226 578 126 q 711 486 711 326 q 644 746 711 646 q 454 846 578 846 q 264 746 331 846 q 197 486 197 646 q 264 226 197 326 q 454 126 331 126 m 349 1176 l 349 1326 l 558 1192 l 558 1093 l 349 1176 z "},"Ỏ":{"ha":907,"x_min":42,"x_max":865,"o":"m 454 -19 q 241 43 335 -19 q 94 220 147 106 q 42 486 42 335 q 94 752 42 638 q 241 929 147 867 q 454 992 335 992 q 667 929 574 992 q 813 752 760 867 q 865 486 865 638 q 813 220 865 335 q 667 43 760 106 q 454 -19 574 -19 m 454 126 q 644 226 578 126 q 711 486 711 326 q 644 746 711 646 q 454 846 578 846 q 264 746 331 846 q 197 486 197 646 q 264 226 197 326 q 454 126 331 126 m 426 1069 q 465 1118 454 1100 q 476 1160 476 1136 q 464 1194 476 1182 q 429 1206 451 1206 q 360 1183 401 1206 l 336 1257 q 436 1279 381 1279 q 523 1249 489 1279 q 557 1164 557 1218 q 538 1090 557 1121 q 475 1021 518 1058 l 426 1069 z "},"Ơ":{"ha":907,"x_min":42,"x_max":865,"o":"m 699 906 q 822 732 778 840 q 865 486 865 624 q 813 220 865 335 q 667 43 760 106 q 454 -19 574 -19 q 241 43 335 -19 q 94 220 147 106 q 42 486 42 335 q 94 752 42 638 q 241 929 147 867 q 454 992 335 992 q 578 972 517 992 q 667 1075 667 976 l 792 1075 q 767 975 792 1018 q 699 906 742 932 m 454 126 q 644 226 578 126 q 711 486 711 326 q 644 746 711 646 q 454 846 578 846 q 264 746 331 846 q 197 486 197 646 q 264 226 197 326 q 454 126 331 126 z "},"Ớ":{"ha":907,"x_min":42,"x_max":865,"o":"m 699 906 q 822 732 778 840 q 865 486 865 624 q 813 220 865 335 q 667 43 760 106 q 454 -19 574 -19 q 241 43 335 -19 q 94 220 147 106 q 42 486 42 335 q 94 752 42 638 q 241 929 147 867 q 454 992 335 992 q 578 972 517 992 q 667 1075 667 976 l 792 1075 q 767 975 792 1018 q 699 906 742 932 m 454 126 q 644 226 578 126 q 711 486 711 326 q 644 746 711 646 q 454 846 578 846 q 264 746 331 846 q 197 486 197 646 q 264 226 197 326 q 454 126 331 126 m 350 1189 l 560 1321 l 560 1175 l 350 1093 l 350 1189 z "},"Ợ":{"ha":907,"x_min":42,"x_max":865,"o":"m 699 906 q 822 732 778 840 q 865 486 865 624 q 813 220 865 335 q 667 43 760 106 q 454 -19 574 -19 q 241 43 335 -19 q 94 220 147 106 q 42 486 42 335 q 94 752 42 638 q 241 929 147 867 q 454 992 335 992 q 578 972 517 992 q 667 1075 667 976 l 792 1075 q 767 975 792 1018 q 699 906 742 932 m 454 126 q 644 226 578 126 q 711 486 711 326 q 644 746 711 646 q 454 846 578 846 q 264 746 331 846 q 197 486 197 646 q 264 226 197 326 q 454 126 331 126 m 390 -112 l 518 -112 l 518 -242 l 390 -242 l 390 -112 z "},"Ờ":{"ha":907,"x_min":42,"x_max":865,"o":"m 699 906 q 822 732 778 840 q 865 486 865 624 q 813 220 865 335 q 667 43 760 106 q 454 -19 574 -19 q 241 43 335 -19 q 94 220 147 106 q 42 486 42 335 q 94 752 42 638 q 241 929 147 867 q 454 992 335 992 q 578 972 517 992 q 667 1075 667 976 l 792 1075 q 767 975 792 1018 q 699 906 742 932 m 454 126 q 644 226 578 126 q 711 486 711 326 q 644 746 711 646 q 454 846 578 846 q 264 746 331 846 q 197 486 197 646 q 264 226 197 326 q 454 126 331 126 m 349 1176 l 349 1326 l 558 1192 l 558 1093 l 349 1176 z "},"Ở":{"ha":907,"x_min":42,"x_max":865,"o":"m 699 906 q 822 732 778 840 q 865 486 865 624 q 813 220 865 335 q 667 43 760 106 q 454 -19 574 -19 q 241 43 335 -19 q 94 220 147 106 q 42 486 42 335 q 94 752 42 638 q 241 929 147 867 q 454 992 335 992 q 578 972 517 992 q 667 1075 667 976 l 792 1075 q 767 975 792 1018 q 699 906 742 932 m 454 126 q 644 226 578 126 q 711 486 711 326 q 644 746 711 646 q 454 846 578 846 q 264 746 331 846 q 197 486 197 646 q 264 226 197 326 q 454 126 331 126 m 426 1069 q 465 1118 454 1100 q 476 1160 476 1136 q 464 1194 476 1182 q 429 1206 451 1206 q 360 1183 401 1206 l 336 1257 q 436 1279 381 1279 q 523 1249 489 1279 q 557 1164 557 1218 q 538 1090 557 1121 q 475 1021 518 1058 l 426 1069 z "},"Ỡ":{"ha":907,"x_min":42,"x_max":865,"o":"m 699 906 q 822 732 778 840 q 865 486 865 624 q 813 220 865 335 q 667 43 760 106 q 454 -19 574 -19 q 241 43 335 -19 q 94 220 147 106 q 42 486 42 335 q 94 752 42 638 q 241 929 147 867 q 454 992 335 992 q 578 972 517 992 q 667 1075 667 976 l 792 1075 q 767 975 792 1018 q 699 906 742 932 m 454 126 q 644 226 578 126 q 711 486 711 326 q 644 746 711 646 q 454 846 578 846 q 264 746 331 846 q 197 486 197 646 q 264 226 197 326 q 454 126 331 126 m 551 1090 q 503 1100 525 1090 q 454 1128 481 1110 q 421 1148 435 1142 q 392 1154 407 1154 q 364 1140 374 1154 q 354 1101 354 1125 l 249 1101 q 357 1261 256 1261 q 405 1252 383 1261 q 454 1225 426 1243 q 488 1205 474 1211 q 517 1199 501 1199 q 544 1213 535 1199 q 554 1250 554 1226 l 660 1250 q 629 1131 657 1172 q 551 1090 601 1090 z "},"Ő":{"ha":907,"x_min":42,"x_max":865,"o":"m 454 -19 q 241 43 335 -19 q 94 220 147 106 q 42 486 42 335 q 94 752 42 638 q 241 929 147 867 q 454 992 335 992 q 667 929 574 992 q 813 752 760 867 q 865 486 865 638 q 813 220 865 335 q 667 43 760 106 q 454 -19 574 -19 m 454 126 q 644 226 578 126 q 711 486 711 326 q 644 746 711 646 q 454 846 578 846 q 264 746 331 846 q 197 486 197 646 q 264 226 197 326 q 454 126 331 126 m 386 1304 l 526 1304 l 401 1094 l 308 1094 l 386 1304 m 588 1304 l 728 1304 l 594 1094 l 501 1094 l 588 1304 z "},"Ȏ":{"ha":907,"x_min":42,"x_max":865,"o":"m 454 -19 q 241 43 335 -19 q 94 220 147 106 q 42 486 42 335 q 94 752 42 638 q 241 929 147 867 q 454 992 335 992 q 667 929 574 992 q 813 752 760 867 q 865 486 865 638 q 813 220 865 335 q 667 43 760 106 q 454 -19 574 -19 m 454 126 q 644 226 578 126 q 711 486 711 326 q 644 746 711 646 q 454 846 578 846 q 264 746 331 846 q 197 486 197 646 q 264 226 197 326 q 454 126 331 126 m 454 1250 q 597 1201 546 1250 q 647 1083 647 1153 l 533 1083 q 512 1140 533 1121 q 454 1160 490 1160 q 397 1140 418 1160 q 375 1083 375 1121 l 261 1083 q 313 1201 261 1153 q 454 1250 364 1250 z "},"Ō":{"ha":907,"x_min":42,"x_max":865,"o":"m 454 -19 q 241 43 335 -19 q 94 220 147 106 q 42 486 42 335 q 94 752 42 638 q 241 929 147 867 q 454 992 335 992 q 667 929 574 992 q 813 752 760 867 q 865 486 865 638 q 813 220 865 335 q 667 43 760 106 q 454 -19 574 -19 m 454 126 q 644 226 578 126 q 711 486 711 326 q 644 746 711 646 q 454 846 578 846 q 264 746 331 846 q 197 486 197 646 q 264 226 197 326 q 454 126 331 126 m 243 1197 l 665 1197 l 665 1101 l 243 1101 l 243 1197 z "},"Ṓ":{"ha":907,"x_min":42,"x_max":865,"o":"m 454 -19 q 241 43 335 -19 q 94 220 147 106 q 42 486 42 335 q 94 752 42 638 q 241 929 147 867 q 454 992 335 992 q 667 929 574 992 q 813 752 760 867 q 865 486 865 638 q 813 220 865 335 q 667 43 760 106 q 454 -19 574 -19 m 454 126 q 644 226 578 126 q 711 486 711 326 q 644 746 711 646 q 454 846 578 846 q 264 746 331 846 q 197 486 197 646 q 264 226 197 326 q 454 126 331 126 m 243 1197 l 665 1197 l 665 1101 l 243 1101 l 243 1197 m 350 1371 l 560 1482 l 560 1347 l 350 1283 l 350 1371 z "},"Ṑ":{"ha":907,"x_min":42,"x_max":865,"o":"m 454 -19 q 241 43 335 -19 q 94 220 147 106 q 42 486 42 335 q 94 752 42 638 q 241 929 147 867 q 454 992 335 992 q 667 929 574 992 q 813 752 760 867 q 865 486 865 638 q 813 220 865 335 q 667 43 760 106 q 454 -19 574 -19 m 454 126 q 644 226 578 126 q 711 486 711 326 q 644 746 711 646 q 454 846 578 846 q 264 746 331 846 q 197 486 197 646 q 264 226 197 326 q 454 126 331 126 m 243 1197 l 665 1197 l 665 1101 l 243 1101 l 243 1197 m 349 1346 l 349 1482 l 558 1371 l 558 1283 l 349 1346 z "},"Ǫ":{"ha":907,"x_min":42,"x_max":865,"o":"m 865 486 q 820 238 865 347 q 694 64 775 129 q 510 -15 614 -1 q 451 -87 471 -54 q 431 -151 431 -119 q 449 -198 431 -182 q 497 -214 467 -214 q 561 -200 526 -214 l 583 -269 q 483 -290 539 -290 q 385 -260 424 -290 q 347 -174 347 -229 q 368 -94 347 -131 q 426 -18 389 -57 q 228 53 315 -11 q 91 230 140 118 q 42 486 42 342 q 94 752 42 638 q 241 929 147 867 q 454 992 335 992 q 667 929 574 992 q 813 752 760 867 q 865 486 865 638 m 197 486 q 264 226 197 326 q 454 126 331 126 q 644 226 578 126 q 711 486 711 326 q 644 746 711 646 q 454 846 578 846 q 264 746 331 846 q 197 486 197 646 z "},"Ø":{"ha":907,"x_min":42,"x_max":865,"o":"m 742 863 q 833 699 801 796 q 865 486 865 603 q 813 220 865 335 q 667 43 760 106 q 454 -19 574 -19 q 247 39 340 -19 l 188 -61 l 63 -61 l 165 110 q 74 274 106 178 q 42 486 42 369 q 94 752 42 638 q 241 929 147 867 q 454 992 335 992 q 661 933 568 992 l 721 1033 l 844 1033 l 742 863 m 197 486 q 250 250 197 344 l 585 807 q 454 846 529 846 q 264 746 331 846 q 197 486 197 646 m 454 126 q 644 226 578 126 q 711 486 711 326 q 658 724 711 629 l 324 165 q 454 126 379 126 z "},"Ǿ":{"ha":907,"x_min":42,"x_max":865,"o":"m 742 863 q 833 699 801 796 q 865 486 865 603 q 813 220 865 335 q 667 43 760 106 q 454 -19 574 -19 q 247 39 340 -19 l 188 -61 l 63 -61 l 165 110 q 74 274 106 178 q 42 486 42 369 q 94 752 42 638 q 241 929 147 867 q 454 992 335 992 q 661 933 568 992 l 721 1033 l 844 1033 l 742 863 m 197 486 q 250 250 197 344 l 585 807 q 454 846 529 846 q 264 746 331 846 q 197 486 197 646 m 454 126 q 644 226 578 126 q 711 486 711 326 q 658 724 711 629 l 324 165 q 454 126 379 126 m 351 1189 l 561 1321 l 561 1175 l 351 1093 l 351 1189 z "},"Õ":{"ha":907,"x_min":42,"x_max":865,"o":"m 454 -19 q 241 43 335 -19 q 94 220 147 106 q 42 486 42 335 q 94 752 42 638 q 241 929 147 867 q 454 992 335 992 q 667 929 574 992 q 813 752 760 867 q 865 486 865 638 q 813 220 865 335 q 667 43 760 106 q 454 -19 574 -19 m 454 126 q 644 226 578 126 q 711 486 711 326 q 644 746 711 646 q 454 846 578 846 q 264 746 331 846 q 197 486 197 646 q 264 226 197 326 q 454 126 331 126 m 551 1090 q 503 1100 525 1090 q 454 1128 481 1110 q 421 1148 435 1142 q 392 1154 407 1154 q 364 1140 374 1154 q 354 1101 354 1125 l 249 1101 q 357 1261 256 1261 q 405 1252 383 1261 q 454 1225 426 1243 q 488 1205 474 1211 q 517 1199 501 1199 q 544 1213 535 1199 q 554 1250 554 1226 l 660 1250 q 629 1131 657 1172 q 551 1090 601 1090 z "},"Ṍ":{"ha":907,"x_min":42,"x_max":865,"o":"m 454 -19 q 241 43 335 -19 q 94 220 147 106 q 42 486 42 335 q 94 752 42 638 q 241 929 147 867 q 454 992 335 992 q 667 929 574 992 q 813 752 760 867 q 865 486 865 638 q 813 220 865 335 q 667 43 760 106 q 454 -19 574 -19 m 454 126 q 644 226 578 126 q 711 486 711 326 q 644 746 711 646 q 454 846 578 846 q 264 746 331 846 q 197 486 197 646 q 264 226 197 326 q 454 126 331 126 m 557 1089 q 512 1097 533 1089 q 458 1118 490 1104 q 420 1135 439 1128 q 388 1142 401 1142 q 346 1096 346 1142 l 250 1096 q 276 1202 250 1165 q 351 1239 301 1239 q 398 1231 375 1239 q 450 1208 421 1222 q 488 1192 469 1199 q 521 1185 507 1185 q 563 1231 563 1185 l 658 1231 q 633 1125 658 1161 q 557 1089 607 1089 m 350 1383 l 560 1494 l 560 1360 l 350 1296 l 350 1383 z "},"Ṏ":{"ha":907,"x_min":42,"x_max":865,"o":"m 454 -19 q 241 43 335 -19 q 94 220 147 106 q 42 486 42 335 q 94 752 42 638 q 241 929 147 867 q 454 992 335 992 q 667 929 574 992 q 813 752 760 867 q 865 486 865 638 q 813 220 865 335 q 667 43 760 106 q 454 -19 574 -19 m 454 126 q 644 226 578 126 q 711 486 711 326 q 644 746 711 646 q 454 846 578 846 q 264 746 331 846 q 197 486 197 646 q 264 226 197 326 q 454 126 331 126 m 557 1089 q 512 1097 533 1089 q 458 1118 490 1104 q 420 1135 439 1128 q 388 1142 401 1142 q 346 1096 346 1142 l 250 1096 q 276 1202 250 1165 q 351 1239 301 1239 q 398 1231 375 1239 q 450 1208 421 1222 q 488 1192 469 1199 q 521 1185 507 1185 q 563 1231 563 1185 l 658 1231 q 633 1125 658 1161 q 557 1089 607 1089 m 283 1444 l 404 1444 l 404 1335 l 283 1335 l 283 1444 m 504 1444 l 625 1444 l 625 1335 l 504 1335 l 504 1444 z "},"Ȭ":{"ha":907,"x_min":42,"x_max":865,"o":"m 454 -19 q 241 43 335 -19 q 94 220 147 106 q 42 486 42 335 q 94 752 42 638 q 241 929 147 867 q 454 992 335 992 q 667 929 574 992 q 813 752 760 867 q 865 486 865 638 q 813 220 865 335 q 667 43 760 106 q 454 -19 574 -19 m 454 126 q 644 226 578 126 q 711 486 711 326 q 644 746 711 646 q 454 846 578 846 q 264 746 331 846 q 197 486 197 646 q 264 226 197 326 q 454 126 331 126 m 557 1089 q 512 1097 533 1089 q 458 1118 490 1104 q 420 1135 439 1128 q 388 1142 401 1142 q 346 1096 346 1142 l 250 1096 q 276 1202 250 1165 q 351 1239 301 1239 q 398 1231 375 1239 q 450 1208 421 1222 q 488 1192 469 1199 q 521 1185 507 1185 q 563 1231 563 1185 l 658 1231 q 633 1125 658 1161 q 557 1089 607 1089 m 243 1435 l 665 1435 l 665 1339 l 243 1339 l 243 1435 z "},"Œ":{"ha":1296,"x_min":42,"x_max":1256,"o":"m 1256 142 l 1256 0 l 713 0 l 713 108 q 591 14 660 47 q 442 -19 522 -19 q 235 43 326 -19 q 93 220 144 106 q 42 486 42 335 q 93 752 42 638 q 235 929 144 867 q 442 992 326 992 q 591 958 522 992 q 713 864 660 925 l 713 972 l 1244 972 l 1244 831 l 863 831 l 863 579 l 1160 579 l 1160 438 l 863 438 l 863 142 l 1256 142 m 454 122 q 640 224 575 122 q 706 486 706 325 q 640 749 706 647 q 454 850 575 850 q 268 749 333 850 q 203 486 203 647 q 268 224 203 325 q 454 122 333 122 z "},"P":{"ha":710,"x_min":94,"x_max":683,"o":"m 94 972 l 358 972 q 597 891 511 972 q 683 654 683 810 q 597 416 683 497 q 358 335 511 335 l 240 335 l 240 0 l 94 0 l 94 972 m 346 465 q 486 512 440 465 q 532 654 532 558 q 346 843 532 843 l 240 843 l 240 465 l 346 465 z "},"Þ":{"ha":722,"x_min":94,"x_max":696,"o":"m 94 972 l 240 972 l 240 763 l 400 763 q 622 696 547 763 q 696 507 696 629 q 622 317 696 385 q 400 250 547 250 l 240 250 l 240 0 l 94 0 l 94 972 m 385 372 q 550 507 550 372 q 510 608 550 575 q 385 640 471 640 l 240 640 l 240 372 l 385 372 z "},"Q":{"ha":907,"x_min":42,"x_max":865,"o":"m 865 486 q 778 157 865 290 l 864 71 l 771 -19 l 690 61 q 454 -19 590 -19 q 241 43 335 -19 q 94 220 147 106 q 42 486 42 335 q 94 752 42 638 q 241 929 147 867 q 454 992 335 992 q 667 929 574 992 q 813 752 760 867 q 865 486 865 638 m 454 126 q 585 165 529 126 l 472 278 l 565 368 l 668 267 q 711 486 711 354 q 644 746 711 646 q 454 846 578 846 q 264 746 331 846 q 197 486 197 646 q 264 226 197 326 q 454 126 331 126 z "},"R":{"ha":749,"x_min":94,"x_max":729,"o":"m 94 972 l 358 972 q 597 897 511 972 q 683 674 683 822 q 645 519 683 588 q 539 414 607 451 l 729 0 l 561 0 l 394 372 q 363 371 386 371 l 240 371 l 240 0 l 94 0 l 94 972 m 346 500 q 486 542 440 500 q 532 671 532 585 q 486 801 532 758 q 346 843 440 843 l 240 843 l 240 500 l 346 500 z "},"Ŕ":{"ha":749,"x_min":94,"x_max":729,"o":"m 94 972 l 358 972 q 597 897 511 972 q 683 674 683 822 q 645 519 683 588 q 539 414 607 451 l 729 0 l 561 0 l 394 372 q 363 371 386 371 l 240 371 l 240 0 l 94 0 l 94 972 m 346 500 q 486 542 440 500 q 532 671 532 585 q 486 801 532 758 q 346 843 440 843 l 240 843 l 240 500 l 346 500 m 271 1146 l 481 1257 l 481 1122 l 271 1058 l 271 1146 z "},"Ř":{"ha":749,"x_min":94,"x_max":729,"o":"m 94 972 l 358 972 q 597 897 511 972 q 683 674 683 822 q 645 519 683 588 q 539 414 607 451 l 729 0 l 561 0 l 394 372 q 363 371 386 371 l 240 371 l 240 0 l 94 0 l 94 972 m 346 500 q 486 542 440 500 q 532 671 532 585 q 486 801 532 758 q 346 843 440 843 l 240 843 l 240 500 l 346 500 m 210 1203 l 210 1296 l 375 1207 l 540 1296 l 540 1203 l 375 1086 l 210 1203 z "},"Ŗ":{"ha":749,"x_min":94,"x_max":729,"o":"m 94 972 l 358 972 q 597 897 511 972 q 683 674 683 822 q 645 519 683 588 q 539 414 607 451 l 729 0 l 561 0 l 394 372 q 363 371 386 371 l 240 371 l 240 0 l 94 0 l 94 972 m 346 500 q 486 542 440 500 q 532 671 532 585 q 486 801 532 758 q 346 843 440 843 l 240 843 l 240 500 l 346 500 m 326 -403 l 381 -253 l 335 -253 l 335 -126 l 468 -126 l 468 -237 l 389 -403 l 326 -403 z "},"Ȑ":{"ha":749,"x_min":94,"x_max":729,"o":"m 94 972 l 358 972 q 597 897 511 972 q 683 674 683 822 q 645 519 683 588 q 539 414 607 451 l 729 0 l 561 0 l 394 372 q 363 371 386 371 l 240 371 l 240 0 l 94 0 l 94 972 m 346 500 q 486 542 440 500 q 532 671 532 585 q 486 801 532 758 q 346 843 440 843 l 240 843 l 240 500 l 346 500 m 232 1094 l 111 1304 l 251 1304 l 325 1094 l 232 1094 m 425 1094 l 313 1304 l 453 1304 l 518 1094 l 425 1094 z "},"Ṛ":{"ha":749,"x_min":94,"x_max":729,"o":"m 94 972 l 358 972 q 597 897 511 972 q 683 674 683 822 q 645 519 683 588 q 539 414 607 451 l 729 0 l 561 0 l 394 372 q 363 371 386 371 l 240 371 l 240 0 l 94 0 l 94 972 m 346 500 q 486 542 440 500 q 532 671 532 585 q 486 801 532 758 q 346 843 440 843 l 240 843 l 240 500 l 346 500 m 338 -112 l 465 -112 l 465 -242 l 338 -242 l 338 -112 z "},"Ȓ":{"ha":749,"x_min":94,"x_max":729,"o":"m 94 972 l 358 972 q 597 897 511 972 q 683 674 683 822 q 645 519 683 588 q 539 414 607 451 l 729 0 l 561 0 l 394 372 q 363 371 386 371 l 240 371 l 240 0 l 94 0 l 94 972 m 346 500 q 486 542 440 500 q 532 671 532 585 q 486 801 532 758 q 346 843 440 843 l 240 843 l 240 500 l 346 500 m 375 1250 q 517 1201 467 1250 q 568 1083 568 1153 l 454 1083 q 433 1140 454 1121 q 375 1160 411 1160 q 317 1140 339 1160 q 296 1083 296 1121 l 182 1083 q 233 1201 182 1153 q 375 1250 285 1250 z "},"Ṟ":{"ha":749,"x_min":94,"x_max":729,"o":"m 94 972 l 358 972 q 597 897 511 972 q 683 674 683 822 q 645 519 683 588 q 539 414 607 451 l 729 0 l 561 0 l 394 372 q 363 371 386 371 l 240 371 l 240 0 l 94 0 l 94 972 m 346 500 q 486 542 440 500 q 532 671 532 585 q 486 801 532 758 q 346 843 440 843 l 240 843 l 240 500 l 346 500 m 204 -129 l 599 -129 l 599 -229 l 204 -229 l 204 -129 z "},"S":{"ha":697,"x_min":50,"x_max":663,"o":"m 328 -19 q 183 -3 257 -19 q 58 38 108 13 l 76 199 q 340 121 208 121 q 462 152 418 121 q 506 243 506 183 q 460 347 506 307 q 301 438 415 388 q 161 513 214 476 q 79 600 108 549 q 50 725 50 651 q 90 865 50 804 q 203 958 131 925 q 374 992 276 992 q 619 938 506 992 l 604 783 q 363 851 481 851 q 249 822 289 851 q 208 732 208 793 q 232 660 208 689 q 294 609 256 631 q 419 547 333 588 q 604 422 546 488 q 663 254 663 356 q 574 54 663 128 q 328 -19 485 -19 z "},"Ś":{"ha":697,"x_min":50,"x_max":663,"o":"m 328 -19 q 183 -3 257 -19 q 58 38 108 13 l 76 199 q 340 121 208 121 q 462 152 418 121 q 506 243 506 183 q 460 347 506 307 q 301 438 415 388 q 161 513 214 476 q 79 600 108 549 q 50 725 50 651 q 90 865 50 804 q 203 958 131 925 q 374 992 276 992 q 619 938 506 992 l 604 783 q 363 851 481 851 q 249 822 289 851 q 208 732 208 793 q 232 660 208 689 q 294 609 256 631 q 419 547 333 588 q 604 422 546 488 q 663 254 663 356 q 574 54 663 128 q 328 -19 485 -19 m 264 1146 l 474 1257 l 474 1122 l 264 1058 l 264 1146 z "},"Ṥ":{"ha":697,"x_min":50,"x_max":663,"o":"m 328 -19 q 183 -3 257 -19 q 58 38 108 13 l 76 199 q 340 121 208 121 q 462 152 418 121 q 506 243 506 183 q 460 347 506 307 q 301 438 415 388 q 161 513 214 476 q 79 600 108 549 q 50 725 50 651 q 90 865 50 804 q 203 958 131 925 q 374 992 276 992 q 619 938 506 992 l 604 783 q 363 851 481 851 q 249 822 289 851 q 208 732 208 793 q 232 660 208 689 q 294 609 256 631 q 419 547 333 588 q 604 422 546 488 q 663 254 663 356 q 574 54 663 128 q 328 -19 485 -19 m 264 1146 l 474 1257 l 474 1122 l 264 1058 l 264 1146 m 301 1456 l 435 1456 l 435 1326 l 301 1326 l 301 1456 z "},"Š":{"ha":697,"x_min":50,"x_max":663,"o":"m 328 -19 q 183 -3 257 -19 q 58 38 108 13 l 76 199 q 340 121 208 121 q 462 152 418 121 q 506 243 506 183 q 460 347 506 307 q 301 438 415 388 q 161 513 214 476 q 79 600 108 549 q 50 725 50 651 q 90 865 50 804 q 203 958 131 925 q 374 992 276 992 q 619 938 506 992 l 604 783 q 363 851 481 851 q 249 822 289 851 q 208 732 208 793 q 232 660 208 689 q 294 609 256 631 q 419 547 333 588 q 604 422 546 488 q 663 254 663 356 q 574 54 663 128 q 328 -19 485 -19 m 217 1194 l 217 1290 l 368 1194 l 519 1290 l 519 1194 l 368 1065 l 217 1194 z "},"Ṧ":{"ha":697,"x_min":50,"x_max":663,"o":"m 328 -19 q 183 -3 257 -19 q 58 38 108 13 l 76 199 q 340 121 208 121 q 462 152 418 121 q 506 243 506 183 q 460 347 506 307 q 301 438 415 388 q 161 513 214 476 q 79 600 108 549 q 50 725 50 651 q 90 865 50 804 q 203 958 131 925 q 374 992 276 992 q 619 938 506 992 l 604 783 q 363 851 481 851 q 249 822 289 851 q 208 732 208 793 q 232 660 208 689 q 294 609 256 631 q 419 547 333 588 q 604 422 546 488 q 663 254 663 356 q 574 54 663 128 q 328 -19 485 -19 m 203 1203 l 203 1296 l 368 1207 l 533 1296 l 533 1203 l 368 1086 l 203 1203 m 301 1488 l 435 1488 l 435 1358 l 301 1358 l 301 1488 z "},"Ş":{"ha":697,"x_min":50,"x_max":663,"o":"m 663 254 q 592 72 663 143 q 396 -15 522 0 l 376 -76 q 459 -108 429 -78 q 489 -192 489 -139 q 449 -287 489 -253 q 346 -322 408 -322 q 251 -304 293 -322 l 275 -233 q 344 -249 308 -249 q 392 -235 375 -249 q 410 -193 410 -221 q 350 -139 410 -139 q 297 -147 325 -139 l 329 -19 l 328 -19 q 183 -3 257 -19 q 58 38 108 13 l 76 199 q 340 121 208 121 q 462 152 418 121 q 506 243 506 183 q 460 347 506 307 q 301 438 415 388 q 161 513 214 476 q 79 600 108 549 q 50 725 50 651 q 90 865 50 804 q 203 958 131 925 q 374 992 276 992 q 619 938 506 992 l 604 783 q 363 851 481 851 q 249 822 289 851 q 208 732 208 793 q 232 660 208 689 q 294 609 256 631 q 419 547 333 588 q 604 422 546 488 q 663 254 663 356 z "},"Ŝ":{"ha":697,"x_min":50,"x_max":663,"o":"m 328 -19 q 183 -3 257 -19 q 58 38 108 13 l 76 199 q 340 121 208 121 q 462 152 418 121 q 506 243 506 183 q 460 347 506 307 q 301 438 415 388 q 161 513 214 476 q 79 600 108 549 q 50 725 50 651 q 90 865 50 804 q 203 958 131 925 q 374 992 276 992 q 619 938 506 992 l 604 783 q 363 851 481 851 q 249 822 289 851 q 208 732 208 793 q 232 660 208 689 q 294 609 256 631 q 419 547 333 588 q 604 422 546 488 q 663 254 663 356 q 574 54 663 128 q 328 -19 485 -19 m 533 1136 l 533 1043 l 368 1132 l 203 1043 l 203 1136 l 368 1253 l 533 1136 z "},"Ș":{"ha":697,"x_min":50,"x_max":663,"o":"m 328 -19 q 183 -3 257 -19 q 58 38 108 13 l 76 199 q 340 121 208 121 q 462 152 418 121 q 506 243 506 183 q 460 347 506 307 q 301 438 415 388 q 161 513 214 476 q 79 600 108 549 q 50 725 50 651 q 90 865 50 804 q 203 958 131 925 q 374 992 276 992 q 619 938 506 992 l 604 783 q 363 851 481 851 q 249 822 289 851 q 208 732 208 793 q 232 660 208 689 q 294 609 256 631 q 419 547 333 588 q 604 422 546 488 q 663 254 663 356 q 574 54 663 128 q 328 -19 485 -19 m 278 -403 l 332 -253 l 286 -253 l 286 -126 l 419 -126 l 419 -237 l 340 -403 l 278 -403 z "},"Ṡ":{"ha":697,"x_min":50,"x_max":663,"o":"m 328 -19 q 183 -3 257 -19 q 58 38 108 13 l 76 199 q 340 121 208 121 q 462 152 418 121 q 506 243 506 183 q 460 347 506 307 q 301 438 415 388 q 161 513 214 476 q 79 600 108 549 q 50 725 50 651 q 90 865 50 804 q 203 958 131 925 q 374 992 276 992 q 619 938 506 992 l 604 783 q 363 851 481 851 q 249 822 289 851 q 208 732 208 793 q 232 660 208 689 q 294 609 256 631 q 419 547 333 588 q 604 422 546 488 q 663 254 663 356 q 574 54 663 128 q 328 -19 485 -19 m 301 1229 l 435 1229 l 435 1100 l 301 1100 l 301 1229 z "},"Ṣ":{"ha":697,"x_min":50,"x_max":663,"o":"m 328 -19 q 183 -3 257 -19 q 58 38 108 13 l 76 199 q 340 121 208 121 q 462 152 418 121 q 506 243 506 183 q 460 347 506 307 q 301 438 415 388 q 161 513 214 476 q 79 600 108 549 q 50 725 50 651 q 90 865 50 804 q 203 958 131 925 q 374 992 276 992 q 619 938 506 992 l 604 783 q 363 851 481 851 q 249 822 289 851 q 208 732 208 793 q 232 660 208 689 q 294 609 256 631 q 419 547 333 588 q 604 422 546 488 q 663 254 663 356 q 574 54 663 128 q 328 -19 485 -19 m 289 -112 l 417 -112 l 417 -242 l 289 -242 l 289 -112 z "},"Ṩ":{"ha":697,"x_min":50,"x_max":663,"o":"m 328 -19 q 183 -3 257 -19 q 58 38 108 13 l 76 199 q 340 121 208 121 q 462 152 418 121 q 506 243 506 183 q 460 347 506 307 q 301 438 415 388 q 161 513 214 476 q 79 600 108 549 q 50 725 50 651 q 90 865 50 804 q 203 958 131 925 q 374 992 276 992 q 619 938 506 992 l 604 783 q 363 851 481 851 q 249 822 289 851 q 208 732 208 793 q 232 660 208 689 q 294 609 256 631 q 419 547 333 588 q 604 422 546 488 q 663 254 663 356 q 574 54 663 128 q 328 -19 485 -19 m 301 1229 l 435 1229 l 435 1100 l 301 1100 l 301 1229 m 289 -112 l 417 -112 l 417 -242 l 289 -242 l 289 -112 z "},"ẞ":{"ha":771,"x_min":92,"x_max":724,"o":"m 507 561 q 667 465 611 536 q 724 275 724 394 q 686 113 724 179 q 586 13 649 46 q 447 -19 524 -19 q 321 0 389 -19 l 321 136 q 421 121 367 121 q 524 165 486 121 q 563 285 563 208 q 519 411 563 367 q 392 456 476 456 l 360 456 l 360 574 l 532 839 q 425 857 482 857 q 290 805 339 857 q 240 663 240 753 l 240 0 l 92 0 l 92 660 q 179 907 92 822 q 415 992 267 992 q 660 919 554 992 l 660 801 l 507 561 z "},"Ə":{"ha":821,"x_min":39,"x_max":779,"o":"m 383 992 q 595 928 506 992 q 732 747 685 864 q 779 472 779 629 q 733 219 779 331 q 603 44 688 107 q 403 -19 518 -19 q 210 29 293 -19 q 83 169 128 78 q 39 386 39 261 q 49 503 39 446 l 624 503 q 354 850 613 850 q 107 781 238 850 l 88 915 q 228 972 156 953 q 383 992 300 992 m 401 122 q 547 186 493 122 q 617 368 600 250 l 193 368 q 244 186 193 250 q 401 122 296 122 z "},"T":{"ha":661,"x_min":19,"x_max":642,"o":"m 258 839 l 19 839 l 19 972 l 642 972 l 642 839 l 403 839 l 403 0 l 258 0 l 258 839 z "},"Ŧ":{"ha":661,"x_min":19,"x_max":642,"o":"m 403 839 l 403 542 l 576 542 l 576 442 l 403 442 l 403 0 l 258 0 l 258 442 l 85 442 l 85 542 l 258 542 l 258 839 l 19 839 l 19 972 l 642 972 l 642 839 l 403 839 z "},"Ť":{"ha":661,"x_min":19,"x_max":642,"o":"m 258 839 l 19 839 l 19 972 l 642 972 l 642 839 l 403 839 l 403 0 l 258 0 l 258 839 m 179 1194 l 179 1290 l 331 1194 l 482 1290 l 482 1194 l 331 1065 l 179 1194 z "},"Ţ":{"ha":661,"x_min":19,"x_max":642,"o":"m 258 839 l 19 839 l 19 972 l 642 972 l 642 839 l 403 839 l 403 0 l 258 0 l 258 839 m 354 -76 q 437 -108 407 -78 q 467 -192 467 -139 q 426 -287 467 -253 q 324 -322 386 -322 q 229 -304 271 -322 l 253 -233 q 322 -249 286 -249 q 370 -235 353 -249 q 388 -193 388 -221 q 328 -139 388 -139 q 275 -147 303 -139 l 311 0 l 378 0 l 354 -76 z "},"Ț":{"ha":661,"x_min":19,"x_max":642,"o":"m 258 839 l 19 839 l 19 972 l 642 972 l 642 839 l 403 839 l 403 0 l 258 0 l 258 839 m 256 -403 l 310 -253 l 264 -253 l 264 -126 l 397 -126 l 397 -237 l 318 -403 l 256 -403 z "},"Ṭ":{"ha":661,"x_min":19,"x_max":642,"o":"m 258 839 l 19 839 l 19 972 l 642 972 l 642 839 l 403 839 l 403 0 l 258 0 l 258 839 m 267 -112 l 394 -112 l 394 -242 l 267 -242 l 267 -112 z "},"Ṯ":{"ha":661,"x_min":19,"x_max":642,"o":"m 258 839 l 19 839 l 19 972 l 642 972 l 642 839 l 403 839 l 403 0 l 258 0 l 258 839 m 133 -129 l 528 -129 l 528 -229 l 133 -229 l 133 -129 z "},"U":{"ha":858,"x_min":82,"x_max":776,"o":"m 429 -19 q 168 85 254 -19 q 82 381 82 190 l 82 972 l 228 972 l 228 421 q 269 198 228 275 q 429 121 310 121 q 556 159 511 121 q 615 262 600 197 q 631 421 631 326 l 631 972 l 776 972 l 776 381 q 690 85 776 190 q 429 -19 604 -19 z "},"Ú":{"ha":858,"x_min":82,"x_max":776,"o":"m 429 -19 q 168 85 254 -19 q 82 381 82 190 l 82 972 l 228 972 l 228 421 q 269 198 228 275 q 429 121 310 121 q 556 159 511 121 q 615 262 600 197 q 631 421 631 326 l 631 972 l 776 972 l 776 381 q 690 85 776 190 q 429 -19 604 -19 m 326 1189 l 536 1321 l 536 1175 l 326 1093 l 326 1189 z "},"Ŭ":{"ha":858,"x_min":82,"x_max":776,"o":"m 429 -19 q 168 85 254 -19 q 82 381 82 190 l 82 972 l 228 972 l 228 421 q 269 198 228 275 q 429 121 310 121 q 556 159 511 121 q 615 262 600 197 q 631 421 631 326 l 631 972 l 776 972 l 776 381 q 690 85 776 190 q 429 -19 604 -19 m 431 1063 q 289 1111 340 1063 q 238 1229 238 1160 l 351 1229 q 373 1172 351 1192 q 431 1151 394 1151 q 488 1172 467 1151 q 510 1229 510 1192 l 624 1229 q 573 1111 624 1160 q 431 1063 522 1063 z "},"Û":{"ha":858,"x_min":82,"x_max":776,"o":"m 429 -19 q 168 85 254 -19 q 82 381 82 190 l 82 972 l 228 972 l 228 421 q 269 198 228 275 q 429 121 310 121 q 556 159 511 121 q 615 262 600 197 q 631 421 631 326 l 631 972 l 776 972 l 776 381 q 690 85 776 190 q 429 -19 604 -19 m 279 1165 l 431 1293 l 582 1165 l 582 1069 l 431 1164 l 279 1069 l 279 1165 z "},"Ȕ":{"ha":858,"x_min":82,"x_max":776,"o":"m 429 -19 q 168 85 254 -19 q 82 381 82 190 l 82 972 l 228 972 l 228 421 q 269 198 228 275 q 429 121 310 121 q 556 159 511 121 q 615 262 600 197 q 631 421 631 326 l 631 972 l 776 972 l 776 381 q 690 85 776 190 q 429 -19 604 -19 m 299 1094 l 171 1332 l 313 1332 l 394 1094 l 299 1094 m 494 1094 l 375 1332 l 511 1332 l 585 1094 l 494 1094 z "},"Ü":{"ha":858,"x_min":82,"x_max":776,"o":"m 429 -19 q 168 85 254 -19 q 82 381 82 190 l 82 972 l 228 972 l 228 421 q 269 198 228 275 q 429 121 310 121 q 556 159 511 121 q 615 262 600 197 q 631 421 631 326 l 631 972 l 776 972 l 776 381 q 690 85 776 190 q 429 -19 604 -19 m 260 1224 l 379 1224 l 379 1107 l 260 1107 l 260 1224 m 482 1224 l 601 1224 l 601 1107 l 482 1107 l 482 1224 z "},"Ụ":{"ha":858,"x_min":82,"x_max":776,"o":"m 429 -19 q 168 85 254 -19 q 82 381 82 190 l 82 972 l 228 972 l 228 421 q 269 198 228 275 q 429 121 310 121 q 556 159 511 121 q 615 262 600 197 q 631 421 631 326 l 631 972 l 776 972 l 776 381 q 690 85 776 190 q 429 -19 604 -19 m 367 -112 l 494 -112 l 494 -242 l 367 -242 l 367 -112 z "},"Ù":{"ha":858,"x_min":82,"x_max":776,"o":"m 429 -19 q 168 85 254 -19 q 82 381 82 190 l 82 972 l 228 972 l 228 421 q 269 198 228 275 q 429 121 310 121 q 556 159 511 121 q 615 262 600 197 q 631 421 631 326 l 631 972 l 776 972 l 776 381 q 690 85 776 190 q 429 -19 604 -19 m 325 1176 l 325 1326 l 535 1192 l 535 1093 l 325 1176 z "},"Ủ":{"ha":858,"x_min":82,"x_max":776,"o":"m 429 -19 q 168 85 254 -19 q 82 381 82 190 l 82 972 l 228 972 l 228 421 q 269 198 228 275 q 429 121 310 121 q 556 159 511 121 q 615 262 600 197 q 631 421 631 326 l 631 972 l 776 972 l 776 381 q 690 85 776 190 q 429 -19 604 -19 m 403 1069 q 442 1118 431 1100 q 453 1160 453 1136 q 440 1194 453 1182 q 406 1206 428 1206 q 336 1183 378 1206 l 313 1257 q 413 1279 357 1279 q 499 1249 465 1279 q 533 1164 533 1218 q 514 1090 533 1121 q 451 1021 494 1058 l 403 1069 z "},"Ư":{"ha":858,"x_min":82,"x_max":901,"o":"m 901 1075 q 867 960 901 1007 q 776 890 833 913 l 776 381 q 690 85 776 190 q 429 -19 604 -19 q 168 85 254 -19 q 82 381 82 190 l 82 972 l 228 972 l 228 421 q 269 198 228 275 q 429 121 310 121 q 556 159 511 121 q 615 262 600 197 q 631 421 631 326 l 631 972 l 678 972 q 776 1075 776 972 l 901 1075 z "},"Ứ":{"ha":858,"x_min":82,"x_max":901,"o":"m 901 1075 q 867 960 901 1007 q 776 890 833 913 l 776 381 q 690 85 776 190 q 429 -19 604 -19 q 168 85 254 -19 q 82 381 82 190 l 82 972 l 228 972 l 228 421 q 269 198 228 275 q 429 121 310 121 q 556 159 511 121 q 615 262 600 197 q 631 421 631 326 l 631 972 l 678 972 q 776 1075 776 972 l 901 1075 m 326 1189 l 536 1321 l 536 1175 l 326 1093 l 326 1189 z "},"Ự":{"ha":858,"x_min":82,"x_max":901,"o":"m 901 1075 q 867 960 901 1007 q 776 890 833 913 l 776 381 q 690 85 776 190 q 429 -19 604 -19 q 168 85 254 -19 q 82 381 82 190 l 82 972 l 228 972 l 228 421 q 269 198 228 275 q 429 121 310 121 q 556 159 511 121 q 615 262 600 197 q 631 421 631 326 l 631 972 l 678 972 q 776 1075 776 972 l 901 1075 m 367 -112 l 494 -112 l 494 -242 l 367 -242 l 367 -112 z "},"Ừ":{"ha":858,"x_min":82,"x_max":901,"o":"m 901 1075 q 867 960 901 1007 q 776 890 833 913 l 776 381 q 690 85 776 190 q 429 -19 604 -19 q 168 85 254 -19 q 82 381 82 190 l 82 972 l 228 972 l 228 421 q 269 198 228 275 q 429 121 310 121 q 556 159 511 121 q 615 262 600 197 q 631 421 631 326 l 631 972 l 678 972 q 776 1075 776 972 l 901 1075 m 325 1176 l 325 1326 l 535 1192 l 535 1093 l 325 1176 z "},"Ử":{"ha":858,"x_min":82,"x_max":901,"o":"m 901 1075 q 867 960 901 1007 q 776 890 833 913 l 776 381 q 690 85 776 190 q 429 -19 604 -19 q 168 85 254 -19 q 82 381 82 190 l 82 972 l 228 972 l 228 421 q 269 198 228 275 q 429 121 310 121 q 556 159 511 121 q 615 262 600 197 q 631 421 631 326 l 631 972 l 678 972 q 776 1075 776 972 l 901 1075 m 403 1069 q 442 1118 431 1100 q 453 1160 453 1136 q 440 1194 453 1182 q 406 1206 428 1206 q 336 1183 378 1206 l 313 1257 q 413 1279 357 1279 q 499 1249 465 1279 q 533 1164 533 1218 q 514 1090 533 1121 q 451 1021 494 1058 l 403 1069 z "},"Ữ":{"ha":858,"x_min":82,"x_max":901,"o":"m 901 1075 q 867 960 901 1007 q 776 890 833 913 l 776 381 q 690 85 776 190 q 429 -19 604 -19 q 168 85 254 -19 q 82 381 82 190 l 82 972 l 228 972 l 228 421 q 269 198 228 275 q 429 121 310 121 q 556 159 511 121 q 615 262 600 197 q 631 421 631 326 l 631 972 l 678 972 q 776 1075 776 972 l 901 1075 m 528 1090 q 479 1100 501 1090 q 431 1128 457 1110 q 397 1148 411 1142 q 368 1154 383 1154 q 340 1140 350 1154 q 331 1101 331 1125 l 225 1101 q 333 1261 232 1261 q 381 1252 360 1261 q 431 1225 403 1243 q 464 1205 450 1211 q 493 1199 478 1199 q 521 1213 511 1199 q 531 1250 531 1226 l 636 1250 q 606 1131 633 1172 q 528 1090 578 1090 z "},"Ű":{"ha":858,"x_min":82,"x_max":776,"o":"m 429 -19 q 168 85 254 -19 q 82 381 82 190 l 82 972 l 228 972 l 228 421 q 269 198 228 275 q 429 121 310 121 q 556 159 511 121 q 615 262 600 197 q 631 421 631 326 l 631 972 l 776 972 l 776 381 q 690 85 776 190 q 429 -19 604 -19 m 363 1304 l 503 1304 l 378 1094 l 285 1094 l 363 1304 m 564 1304 l 704 1304 l 571 1094 l 478 1094 l 564 1304 z "},"Ȗ":{"ha":858,"x_min":82,"x_max":776,"o":"m 429 -19 q 168 85 254 -19 q 82 381 82 190 l 82 972 l 228 972 l 228 421 q 269 198 228 275 q 429 121 310 121 q 556 159 511 121 q 615 262 600 197 q 631 421 631 326 l 631 972 l 776 972 l 776 381 q 690 85 776 190 q 429 -19 604 -19 m 431 1250 q 573 1201 522 1250 q 624 1083 624 1153 l 510 1083 q 488 1140 510 1121 q 431 1160 467 1160 q 373 1140 394 1160 q 351 1083 351 1121 l 238 1083 q 289 1201 238 1153 q 431 1250 340 1250 z "},"Ū":{"ha":858,"x_min":82,"x_max":776,"o":"m 429 -19 q 168 85 254 -19 q 82 381 82 190 l 82 972 l 228 972 l 228 421 q 269 198 228 275 q 429 121 310 121 q 556 159 511 121 q 615 262 600 197 q 631 421 631 326 l 631 972 l 776 972 l 776 381 q 690 85 776 190 q 429 -19 604 -19 m 219 1197 l 642 1197 l 642 1101 l 219 1101 l 219 1197 z "},"Ṻ":{"ha":858,"x_min":82,"x_max":776,"o":"m 429 -19 q 168 85 254 -19 q 82 381 82 190 l 82 972 l 228 972 l 228 421 q 269 198 228 275 q 429 121 310 121 q 556 159 511 121 q 615 262 600 197 q 631 421 631 326 l 631 972 l 776 972 l 776 381 q 690 85 776 190 q 429 -19 604 -19 m 219 1197 l 642 1197 l 642 1101 l 219 1101 l 219 1197 m 260 1432 l 381 1432 l 381 1322 l 260 1322 l 260 1432 m 481 1432 l 601 1432 l 601 1322 l 481 1322 l 481 1432 z "},"Ų":{"ha":858,"x_min":82,"x_max":776,"o":"m 776 972 l 776 381 q 718 124 776 224 q 540 -6 660 25 q 474 -83 496 -50 q 453 -151 453 -117 q 471 -198 453 -182 q 519 -214 489 -214 q 583 -200 549 -214 l 606 -269 q 506 -290 561 -290 q 408 -260 446 -290 q 369 -174 369 -229 q 449 -19 369 -99 l 429 -19 q 168 85 254 -19 q 82 381 82 190 l 82 972 l 228 972 l 228 421 q 269 198 228 275 q 429 121 310 121 q 556 159 511 121 q 615 262 600 197 q 631 421 631 326 l 631 972 l 776 972 z "},"Ů":{"ha":858,"x_min":82,"x_max":776,"o":"m 429 -19 q 168 85 254 -19 q 82 381 82 190 l 82 972 l 228 972 l 228 421 q 269 198 228 275 q 429 121 310 121 q 556 159 511 121 q 615 262 600 197 q 631 421 631 326 l 631 972 l 776 972 l 776 381 q 690 85 776 190 q 429 -19 604 -19 m 431 1049 q 335 1088 369 1049 q 300 1185 300 1128 q 335 1281 300 1240 q 431 1321 371 1321 q 526 1281 492 1321 q 561 1185 561 1242 q 526 1088 561 1128 q 431 1049 492 1049 m 431 1115 q 472 1134 457 1115 q 488 1185 488 1153 q 472 1235 488 1215 q 431 1254 457 1254 q 389 1235 404 1254 q 374 1185 374 1215 q 389 1134 374 1153 q 431 1115 404 1115 z "},"Ũ":{"ha":858,"x_min":82,"x_max":776,"o":"m 429 -19 q 168 85 254 -19 q 82 381 82 190 l 82 972 l 228 972 l 228 421 q 269 198 228 275 q 429 121 310 121 q 556 159 511 121 q 615 262 600 197 q 631 421 631 326 l 631 972 l 776 972 l 776 381 q 690 85 776 190 q 429 -19 604 -19 m 528 1090 q 479 1100 501 1090 q 431 1128 457 1110 q 397 1148 411 1142 q 368 1154 383 1154 q 340 1140 350 1154 q 331 1101 331 1125 l 225 1101 q 333 1261 232 1261 q 381 1252 360 1261 q 431 1225 403 1243 q 464 1205 450 1211 q 493 1199 478 1199 q 521 1213 511 1199 q 531 1250 531 1226 l 636 1250 q 606 1131 633 1172 q 528 1090 578 1090 z "},"Ṹ":{"ha":858,"x_min":82,"x_max":776,"o":"m 429 -19 q 168 85 254 -19 q 82 381 82 190 l 82 972 l 228 972 l 228 421 q 269 198 228 275 q 429 121 310 121 q 556 159 511 121 q 615 262 600 197 q 631 421 631 326 l 631 972 l 776 972 l 776 381 q 690 85 776 190 q 429 -19 604 -19 m 533 1089 q 488 1097 510 1089 q 435 1118 467 1104 q 397 1135 415 1128 q 364 1142 378 1142 q 322 1096 322 1142 l 226 1096 q 252 1202 226 1165 q 328 1239 278 1239 q 374 1231 351 1239 q 426 1208 397 1222 q 465 1192 446 1199 q 497 1185 483 1185 q 539 1231 539 1185 l 635 1231 q 609 1125 635 1161 q 533 1089 583 1089 m 326 1383 l 536 1494 l 536 1360 l 326 1296 l 326 1383 z "},"V":{"ha":792,"x_min":6,"x_max":786,"o":"m 6 972 l 156 972 l 396 186 l 636 972 l 786 972 l 481 0 l 311 0 l 6 972 z "},"W":{"ha":1142,"x_min":6,"x_max":1136,"o":"m 6 972 l 156 972 l 317 211 l 490 953 l 650 953 l 825 211 l 986 972 l 1136 972 l 907 0 l 747 0 l 569 739 l 394 0 l 235 0 l 6 972 z "},"Ẃ":{"ha":1142,"x_min":6,"x_max":1136,"o":"m 6 972 l 156 972 l 317 211 l 490 953 l 650 953 l 825 211 l 986 972 l 1136 972 l 907 0 l 747 0 l 569 739 l 394 0 l 235 0 l 6 972 m 467 1146 l 676 1257 l 676 1122 l 467 1058 l 467 1146 z "},"Ŵ":{"ha":1142,"x_min":6,"x_max":1136,"o":"m 6 972 l 156 972 l 317 211 l 490 953 l 650 953 l 825 211 l 986 972 l 1136 972 l 907 0 l 747 0 l 569 739 l 394 0 l 235 0 l 6 972 m 736 1136 l 736 1043 l 571 1132 l 406 1043 l 406 1136 l 571 1253 l 736 1136 z "},"Ẅ":{"ha":1142,"x_min":6,"x_max":1136,"o":"m 6 972 l 156 972 l 317 211 l 490 953 l 650 953 l 825 211 l 986 972 l 1136 972 l 907 0 l 747 0 l 569 739 l 394 0 l 235 0 l 6 972 m 400 1207 l 521 1207 l 521 1097 l 400 1097 l 400 1207 m 621 1207 l 742 1207 l 742 1097 l 621 1097 l 621 1207 z "},"Ẁ":{"ha":1142,"x_min":6,"x_max":1136,"o":"m 6 972 l 156 972 l 317 211 l 490 953 l 650 953 l 825 211 l 986 972 l 1136 972 l 907 0 l 747 0 l 569 739 l 394 0 l 235 0 l 6 972 m 465 1121 l 465 1257 l 675 1146 l 675 1058 l 465 1121 z "},"X":{"ha":754,"x_min":6,"x_max":750,"o":"m 300 493 l 14 972 l 172 972 l 378 625 l 582 972 l 740 972 l 456 493 l 750 0 l 592 0 l 378 363 l 164 0 l 6 0 l 300 493 z "},"Y":{"ha":722,"x_min":-6,"x_max":718,"o":"m 718 972 l 429 425 l 429 0 l 285 0 l 285 425 l -6 972 l 153 972 l 357 569 l 560 972 l 718 972 z "},"Ý":{"ha":722,"x_min":-6,"x_max":718,"o":"m 718 972 l 429 425 l 429 0 l 285 0 l 285 425 l -6 972 l 153 972 l 357 569 l 560 972 l 718 972 m 253 1189 l 463 1321 l 463 1175 l 253 1093 l 253 1189 z "},"Ŷ":{"ha":722,"x_min":-6,"x_max":718,"o":"m 718 972 l 429 425 l 429 0 l 285 0 l 285 425 l -6 972 l 153 972 l 357 569 l 560 972 l 718 972 m 522 1136 l 522 1043 l 357 1132 l 192 1043 l 192 1136 l 357 1253 l 522 1136 z "},"Ÿ":{"ha":722,"x_min":-6,"x_max":718,"o":"m 718 972 l 429 425 l 429 0 l 285 0 l 285 425 l -6 972 l 153 972 l 357 569 l 560 972 l 718 972 m 186 1224 l 306 1224 l 306 1107 l 186 1107 l 186 1224 m 408 1224 l 528 1224 l 528 1107 l 408 1107 l 408 1224 z "},"Ẏ":{"ha":722,"x_min":-6,"x_max":718,"o":"m 718 972 l 429 425 l 429 0 l 285 0 l 285 425 l -6 972 l 153 972 l 357 569 l 560 972 l 718 972 m 290 1229 l 424 1229 l 424 1100 l 290 1100 l 290 1229 z "},"Ỵ":{"ha":722,"x_min":-6,"x_max":718,"o":"m 718 972 l 429 425 l 429 0 l 285 0 l 285 425 l -6 972 l 153 972 l 357 569 l 560 972 l 718 972 m 293 -112 l 421 -112 l 421 -242 l 293 -242 l 293 -112 z "},"Ỳ":{"ha":722,"x_min":-6,"x_max":718,"o":"m 718 972 l 429 425 l 429 0 l 285 0 l 285 425 l -6 972 l 153 972 l 357 569 l 560 972 l 718 972 m 251 1176 l 251 1326 l 461 1192 l 461 1093 l 251 1176 z "},"Ỷ":{"ha":722,"x_min":-6,"x_max":718,"o":"m 718 972 l 429 425 l 429 0 l 285 0 l 285 425 l -6 972 l 153 972 l 357 569 l 560 972 l 718 972 m 329 1069 q 368 1118 357 1100 q 379 1160 379 1136 q 367 1194 379 1182 q 332 1206 354 1206 q 263 1183 304 1206 l 239 1257 q 339 1279 283 1279 q 426 1249 392 1279 q 460 1164 460 1218 q 440 1090 460 1121 q 378 1021 421 1058 l 329 1069 z "},"Ȳ":{"ha":722,"x_min":-6,"x_max":718,"o":"m 718 972 l 429 425 l 429 0 l 285 0 l 285 425 l -6 972 l 153 972 l 357 569 l 560 972 l 718 972 m 146 1197 l 568 1197 l 568 1101 l 146 1101 l 146 1197 z "},"Ỹ":{"ha":722,"x_min":-6,"x_max":718,"o":"m 718 972 l 429 425 l 429 0 l 285 0 l 285 425 l -6 972 l 153 972 l 357 569 l 560 972 l 718 972 m 454 1090 q 406 1100 428 1090 q 357 1128 383 1110 q 324 1148 338 1142 q 294 1154 310 1154 q 267 1140 276 1154 q 257 1101 257 1125 l 151 1101 q 260 1261 158 1261 q 308 1252 286 1261 q 357 1225 329 1243 q 390 1205 376 1211 q 419 1199 404 1199 q 447 1213 438 1199 q 457 1250 457 1226 l 563 1250 q 532 1131 560 1172 q 454 1090 504 1090 z "},"Z":{"ha":665,"x_min":10,"x_max":651,"o":"m 651 135 l 651 0 l 10 0 l 429 838 l 64 838 l 64 972 l 646 972 l 228 135 l 651 135 z "},"Ź":{"ha":665,"x_min":10,"x_max":651,"o":"m 651 135 l 651 0 l 10 0 l 429 838 l 64 838 l 64 972 l 646 972 l 228 135 l 651 135 m 251 1146 l 461 1257 l 461 1122 l 251 1058 l 251 1146 z "},"Ž":{"ha":665,"x_min":10,"x_max":651,"o":"m 651 135 l 651 0 l 10 0 l 429 838 l 64 838 l 64 972 l 646 972 l 228 135 l 651 135 m 204 1194 l 204 1290 l 356 1194 l 507 1290 l 507 1194 l 356 1065 l 204 1194 z "},"Ż":{"ha":665,"x_min":10,"x_max":651,"o":"m 651 135 l 651 0 l 10 0 l 429 838 l 64 838 l 64 972 l 646 972 l 228 135 l 651 135 m 289 1229 l 422 1229 l 422 1100 l 289 1100 l 289 1229 z "},"Ẓ":{"ha":665,"x_min":10,"x_max":651,"o":"m 651 135 l 651 0 l 10 0 l 429 838 l 64 838 l 64 972 l 646 972 l 228 135 l 651 135 m 267 -112 l 394 -112 l 394 -242 l 267 -242 l 267 -112 z "},"a":{"ha":596,"x_min":26,"x_max":579,"o":"m 207 -14 q 78 40 129 -14 q 26 182 26 93 q 82 329 26 274 q 215 408 138 385 q 364 433 292 432 q 340 541 364 510 q 257 572 315 572 q 92 514 176 572 l 78 632 q 289 699 174 699 q 452 636 397 699 q 507 436 507 574 l 507 233 q 517 131 507 157 q 561 104 528 104 l 579 104 l 567 -14 l 519 -14 q 383 78 419 -14 q 207 -14 310 -14 m 253 100 q 313 119 283 100 q 365 174 342 139 l 365 335 q 175 193 175 321 q 253 100 175 100 z "},"á":{"ha":596,"x_min":26,"x_max":579,"o":"m 207 -14 q 78 40 129 -14 q 26 182 26 93 q 82 329 26 274 q 215 408 138 385 q 364 433 292 432 q 340 541 364 510 q 257 572 315 572 q 92 514 176 572 l 78 632 q 289 699 174 699 q 452 636 397 699 q 507 436 507 574 l 507 233 q 517 131 507 157 q 561 104 528 104 l 579 104 l 567 -14 l 519 -14 q 383 78 419 -14 q 207 -14 310 -14 m 253 100 q 313 119 283 100 q 365 174 342 139 l 365 335 q 175 193 175 321 q 253 100 175 100 m 194 903 l 404 1035 l 404 889 l 194 807 l 194 903 z "},"ă":{"ha":596,"x_min":26,"x_max":579,"o":"m 207 -14 q 78 40 129 -14 q 26 182 26 93 q 82 329 26 274 q 215 408 138 385 q 364 433 292 432 q 340 541 364 510 q 257 572 315 572 q 92 514 176 572 l 78 632 q 289 699 174 699 q 452 636 397 699 q 507 436 507 574 l 507 233 q 517 131 507 157 q 561 104 528 104 l 579 104 l 567 -14 l 519 -14 q 383 78 419 -14 q 207 -14 310 -14 m 253 100 q 313 119 283 100 q 365 174 342 139 l 365 335 q 175 193 175 321 q 253 100 175 100 m 299 807 q 158 857 208 807 q 108 981 108 907 l 218 981 q 238 922 218 943 q 299 901 258 901 q 359 922 339 901 q 379 981 379 943 l 489 981 q 439 857 489 907 q 299 807 389 807 z "},"ắ":{"ha":596,"x_min":26,"x_max":579,"o":"m 207 -14 q 78 40 129 -14 q 26 182 26 93 q 82 329 26 274 q 215 408 138 385 q 364 433 292 432 q 340 541 364 510 q 257 572 315 572 q 92 514 176 572 l 78 632 q 289 699 174 699 q 452 636 397 699 q 507 436 507 574 l 507 233 q 517 131 507 157 q 561 104 528 104 l 579 104 l 567 -14 l 519 -14 q 383 78 419 -14 q 207 -14 310 -14 m 253 100 q 313 119 283 100 q 365 174 342 139 l 365 335 q 175 193 175 321 q 253 100 175 100 m 299 776 q 157 825 208 776 q 106 943 106 874 l 219 943 q 241 885 219 906 q 299 865 263 865 q 356 885 335 865 q 378 943 378 906 l 492 943 q 441 825 492 874 q 299 776 390 776 m 194 1093 l 404 1204 l 404 1069 l 194 1006 l 194 1093 z "},"ặ":{"ha":596,"x_min":26,"x_max":579,"o":"m 207 -14 q 78 40 129 -14 q 26 182 26 93 q 82 329 26 274 q 215 408 138 385 q 364 433 292 432 q 340 541 364 510 q 257 572 315 572 q 92 514 176 572 l 78 632 q 289 699 174 699 q 452 636 397 699 q 507 436 507 574 l 507 233 q 517 131 507 157 q 561 104 528 104 l 579 104 l 567 -14 l 519 -14 q 383 78 419 -14 q 207 -14 310 -14 m 253 100 q 313 119 283 100 q 365 174 342 139 l 365 335 q 175 193 175 321 q 253 100 175 100 m 299 807 q 158 857 208 807 q 108 981 108 907 l 218 981 q 238 922 218 943 q 299 901 258 901 q 359 922 339 901 q 379 981 379 943 l 489 981 q 439 857 489 907 q 299 807 389 807 m 235 -112 l 363 -112 l 363 -242 l 235 -242 l 235 -112 z "},"ằ":{"ha":596,"x_min":26,"x_max":579,"o":"m 207 -14 q 78 40 129 -14 q 26 182 26 93 q 82 329 26 274 q 215 408 138 385 q 364 433 292 432 q 340 541 364 510 q 257 572 315 572 q 92 514 176 572 l 78 632 q 289 699 174 699 q 452 636 397 699 q 507 436 507 574 l 507 233 q 517 131 507 157 q 561 104 528 104 l 579 104 l 567 -14 l 519 -14 q 383 78 419 -14 q 207 -14 310 -14 m 253 100 q 313 119 283 100 q 365 174 342 139 l 365 335 q 175 193 175 321 q 253 100 175 100 m 299 775 q 157 824 208 775 q 106 942 106 872 l 219 942 q 241 884 219 904 q 299 864 263 864 q 356 884 335 864 q 378 942 378 904 l 492 942 q 441 824 492 872 q 299 775 390 775 m 193 1067 l 193 1203 l 403 1092 l 403 1004 l 193 1067 z "},"ẳ":{"ha":596,"x_min":26,"x_max":579,"o":"m 207 -14 q 78 40 129 -14 q 26 182 26 93 q 82 329 26 274 q 215 408 138 385 q 364 433 292 432 q 340 541 364 510 q 257 572 315 572 q 92 514 176 572 l 78 632 q 289 699 174 699 q 452 636 397 699 q 507 436 507 574 l 507 233 q 517 131 507 157 q 561 104 528 104 l 579 104 l 567 -14 l 519 -14 q 383 78 419 -14 q 207 -14 310 -14 m 253 100 q 313 119 283 100 q 365 174 342 139 l 365 335 q 175 193 175 321 q 253 100 175 100 m 299 776 q 157 825 208 776 q 106 943 106 874 l 219 943 q 241 885 219 906 q 299 865 263 865 q 356 885 335 865 q 378 943 378 906 l 492 943 q 441 825 492 874 q 299 776 390 776 m 294 1021 q 324 1041 314 1029 q 333 1072 333 1053 q 321 1103 333 1093 q 286 1114 308 1114 q 218 1094 257 1114 l 194 1171 q 294 1190 240 1190 q 383 1163 349 1190 q 418 1085 418 1135 q 392 1012 418 1040 q 314 964 367 983 l 294 1021 z "},"ẵ":{"ha":596,"x_min":26,"x_max":579,"o":"m 207 -14 q 78 40 129 -14 q 26 182 26 93 q 82 329 26 274 q 215 408 138 385 q 364 433 292 432 q 340 541 364 510 q 257 572 315 572 q 92 514 176 572 l 78 632 q 289 699 174 699 q 452 636 397 699 q 507 436 507 574 l 507 233 q 517 131 507 157 q 561 104 528 104 l 579 104 l 567 -14 l 519 -14 q 383 78 419 -14 q 207 -14 310 -14 m 253 100 q 313 119 283 100 q 365 174 342 139 l 365 335 q 175 193 175 321 q 253 100 175 100 m 299 776 q 157 825 208 776 q 106 943 106 874 l 219 943 q 241 885 219 906 q 299 865 263 865 q 356 885 335 865 q 378 943 378 906 l 492 943 q 441 825 492 874 q 299 776 390 776 m 401 1010 q 356 1017 378 1010 q 303 1039 335 1025 q 265 1056 283 1049 q 232 1063 246 1063 q 190 1017 190 1063 l 94 1017 q 120 1123 94 1086 q 196 1160 146 1160 q 242 1151 219 1160 q 294 1129 265 1143 q 333 1113 314 1119 q 365 1106 351 1106 q 407 1151 407 1106 l 503 1151 q 477 1046 503 1082 q 401 1010 451 1010 z "},"â":{"ha":596,"x_min":26,"x_max":579,"o":"m 207 -14 q 78 40 129 -14 q 26 182 26 93 q 82 329 26 274 q 215 408 138 385 q 364 433 292 432 q 340 541 364 510 q 257 572 315 572 q 92 514 176 572 l 78 632 q 289 699 174 699 q 452 636 397 699 q 507 436 507 574 l 507 233 q 517 131 507 157 q 561 104 528 104 l 579 104 l 567 -14 l 519 -14 q 383 78 419 -14 q 207 -14 310 -14 m 253 100 q 313 119 283 100 q 365 174 342 139 l 365 335 q 175 193 175 321 q 253 100 175 100 m 147 879 l 299 1007 l 450 879 l 450 783 l 299 878 l 147 783 l 147 879 z "},"ấ":{"ha":596,"x_min":26,"x_max":615,"o":"m 207 -14 q 78 40 129 -14 q 26 182 26 93 q 82 329 26 274 q 215 408 138 385 q 364 433 292 432 q 340 541 364 510 q 257 572 315 572 q 92 514 176 572 l 78 632 q 289 699 174 699 q 452 636 397 699 q 507 436 507 574 l 507 233 q 517 131 507 157 q 561 104 528 104 l 579 104 l 567 -14 l 519 -14 q 383 78 419 -14 q 207 -14 310 -14 m 253 100 q 313 119 283 100 q 365 174 342 139 l 365 335 q 175 193 175 321 q 253 100 175 100 m 475 1125 l 615 1125 l 490 957 l 397 957 l 475 1125 m 464 854 l 464 761 l 299 850 l 133 761 l 133 854 l 299 971 l 464 854 z "},"ậ":{"ha":596,"x_min":26,"x_max":579,"o":"m 207 -14 q 78 40 129 -14 q 26 182 26 93 q 82 329 26 274 q 215 408 138 385 q 364 433 292 432 q 340 541 364 510 q 257 572 315 572 q 92 514 176 572 l 78 632 q 289 699 174 699 q 452 636 397 699 q 507 436 507 574 l 507 233 q 517 131 507 157 q 561 104 528 104 l 579 104 l 567 -14 l 519 -14 q 383 78 419 -14 q 207 -14 310 -14 m 253 100 q 313 119 283 100 q 365 174 342 139 l 365 335 q 175 193 175 321 q 253 100 175 100 m 147 879 l 299 1007 l 450 879 l 450 783 l 299 878 l 147 783 l 147 879 m 235 -112 l 363 -112 l 363 -242 l 235 -242 l 235 -112 z "},"ầ":{"ha":596,"x_min":26,"x_max":579,"o":"m 207 -14 q 78 40 129 -14 q 26 182 26 93 q 82 329 26 274 q 215 408 138 385 q 364 433 292 432 q 340 541 364 510 q 257 572 315 572 q 92 514 176 572 l 78 632 q 289 699 174 699 q 452 636 397 699 q 507 436 507 574 l 507 233 q 517 131 507 157 q 561 104 528 104 l 579 104 l 567 -14 l 519 -14 q 383 78 419 -14 q 207 -14 310 -14 m 253 100 q 313 119 283 100 q 365 174 342 139 l 365 335 q 175 193 175 321 q 253 100 175 100 m 428 957 l 324 1125 l 457 1125 l 518 957 l 428 957 m 464 854 l 464 761 l 299 850 l 133 761 l 133 854 l 299 971 l 464 854 z "},"ẩ":{"ha":596,"x_min":26,"x_max":579,"o":"m 207 -14 q 78 40 129 -14 q 26 182 26 93 q 82 329 26 274 q 215 408 138 385 q 364 433 292 432 q 340 541 364 510 q 257 572 315 572 q 92 514 176 572 l 78 632 q 289 699 174 699 q 452 636 397 699 q 507 436 507 574 l 507 233 q 517 131 507 157 q 561 104 528 104 l 579 104 l 567 -14 l 519 -14 q 383 78 419 -14 q 207 -14 310 -14 m 253 100 q 313 119 283 100 q 365 174 342 139 l 365 335 q 175 193 175 321 q 253 100 175 100 m 464 849 l 464 756 l 299 844 l 133 756 l 133 849 l 299 965 l 464 849 m 418 979 q 447 999 438 988 q 457 1031 457 1011 q 444 1062 457 1051 q 410 1072 432 1072 q 342 1053 381 1072 l 318 1129 q 418 1149 364 1149 q 507 1121 472 1149 q 542 1043 542 1093 q 516 970 542 999 q 438 922 490 942 l 418 979 z "},"ẫ":{"ha":596,"x_min":26,"x_max":579,"o":"m 207 -14 q 78 40 129 -14 q 26 182 26 93 q 82 329 26 274 q 215 408 138 385 q 364 433 292 432 q 340 541 364 510 q 257 572 315 572 q 92 514 176 572 l 78 632 q 289 699 174 699 q 452 636 397 699 q 507 436 507 574 l 507 233 q 517 131 507 157 q 561 104 528 104 l 579 104 l 567 -14 l 519 -14 q 383 78 419 -14 q 207 -14 310 -14 m 253 100 q 313 119 283 100 q 365 174 342 139 l 365 335 q 175 193 175 321 q 253 100 175 100 m 464 849 l 464 756 l 299 844 l 133 756 l 133 849 l 299 965 l 464 849 m 401 1019 q 356 1027 378 1019 q 303 1049 335 1035 q 265 1065 283 1058 q 232 1072 246 1072 q 190 1026 190 1072 l 94 1026 q 120 1133 94 1096 q 196 1169 146 1169 q 242 1161 219 1169 q 294 1139 265 1153 q 333 1122 314 1129 q 365 1115 351 1115 q 407 1161 407 1115 l 503 1161 q 477 1056 503 1092 q 401 1019 451 1019 z "},"ȁ":{"ha":596,"x_min":26,"x_max":579,"o":"m 207 -14 q 78 40 129 -14 q 26 182 26 93 q 82 329 26 274 q 215 408 138 385 q 364 433 292 432 q 340 541 364 510 q 257 572 315 572 q 92 514 176 572 l 78 632 q 289 699 174 699 q 452 636 397 699 q 507 436 507 574 l 507 233 q 517 131 507 157 q 561 104 528 104 l 579 104 l 567 -14 l 519 -14 q 383 78 419 -14 q 207 -14 310 -14 m 253 100 q 313 119 283 100 q 365 174 342 139 l 365 335 q 175 193 175 321 q 253 100 175 100 m 167 808 l 39 1046 l 181 1046 l 263 808 l 167 808 m 363 808 l 243 1046 l 379 1046 l 453 808 l 363 808 z "},"ä":{"ha":596,"x_min":26,"x_max":579,"o":"m 207 -14 q 78 40 129 -14 q 26 182 26 93 q 82 329 26 274 q 215 408 138 385 q 364 433 292 432 q 340 541 364 510 q 257 572 315 572 q 92 514 176 572 l 78 632 q 289 699 174 699 q 452 636 397 699 q 507 436 507 574 l 507 233 q 517 131 507 157 q 561 104 528 104 l 579 104 l 567 -14 l 519 -14 q 383 78 419 -14 q 207 -14 310 -14 m 253 100 q 313 119 283 100 q 365 174 342 139 l 365 335 q 175 193 175 321 q 253 100 175 100 m 128 938 l 247 938 l 247 821 l 128 821 l 128 938 m 350 938 l 469 938 l 469 821 l 350 821 l 350 938 z "},"ạ":{"ha":596,"x_min":26,"x_max":579,"o":"m 207 -14 q 78 40 129 -14 q 26 182 26 93 q 82 329 26 274 q 215 408 138 385 q 364 433 292 432 q 340 541 364 510 q 257 572 315 572 q 92 514 176 572 l 78 632 q 289 699 174 699 q 452 636 397 699 q 507 436 507 574 l 507 233 q 517 131 507 157 q 561 104 528 104 l 579 104 l 567 -14 l 519 -14 q 383 78 419 -14 q 207 -14 310 -14 m 253 100 q 313 119 283 100 q 365 174 342 139 l 365 335 q 175 193 175 321 q 253 100 175 100 m 235 -112 l 363 -112 l 363 -242 l 235 -242 l 235 -112 z "},"à":{"ha":596,"x_min":26,"x_max":579,"o":"m 207 -14 q 78 40 129 -14 q 26 182 26 93 q 82 329 26 274 q 215 408 138 385 q 364 433 292 432 q 340 541 364 510 q 257 572 315 572 q 92 514 176 572 l 78 632 q 289 699 174 699 q 452 636 397 699 q 507 436 507 574 l 507 233 q 517 131 507 157 q 561 104 528 104 l 579 104 l 567 -14 l 519 -14 q 383 78 419 -14 q 207 -14 310 -14 m 253 100 q 313 119 283 100 q 365 174 342 139 l 365 335 q 175 193 175 321 q 253 100 175 100 m 193 890 l 193 1040 l 403 906 l 403 807 l 193 890 z "},"ả":{"ha":596,"x_min":26,"x_max":579,"o":"m 207 -14 q 78 40 129 -14 q 26 182 26 93 q 82 329 26 274 q 215 408 138 385 q 364 433 292 432 q 340 541 364 510 q 257 572 315 572 q 92 514 176 572 l 78 632 q 289 699 174 699 q 452 636 397 699 q 507 436 507 574 l 507 233 q 517 131 507 157 q 561 104 528 104 l 579 104 l 567 -14 l 519 -14 q 383 78 419 -14 q 207 -14 310 -14 m 253 100 q 313 119 283 100 q 365 174 342 139 l 365 335 q 175 193 175 321 q 253 100 175 100 m 271 783 q 310 832 299 814 q 321 874 321 850 q 308 908 321 896 q 274 919 296 919 q 204 897 246 919 l 181 971 q 281 993 225 993 q 367 963 333 993 q 401 878 401 932 q 382 803 401 835 q 319 735 363 772 l 271 783 z "},"ȃ":{"ha":596,"x_min":26,"x_max":579,"o":"m 207 -14 q 78 40 129 -14 q 26 182 26 93 q 82 329 26 274 q 215 408 138 385 q 364 433 292 432 q 340 541 364 510 q 257 572 315 572 q 92 514 176 572 l 78 632 q 289 699 174 699 q 452 636 397 699 q 507 436 507 574 l 507 233 q 517 131 507 157 q 561 104 528 104 l 579 104 l 567 -14 l 519 -14 q 383 78 419 -14 q 207 -14 310 -14 m 253 100 q 313 119 283 100 q 365 174 342 139 l 365 335 q 175 193 175 321 q 253 100 175 100 m 299 976 q 444 928 392 976 q 496 807 496 879 l 383 807 q 361 860 383 840 q 299 879 339 879 q 236 860 258 879 q 214 807 214 840 l 101 807 q 153 928 101 879 q 299 976 206 976 z "},"ā":{"ha":596,"x_min":26,"x_max":579,"o":"m 207 -14 q 78 40 129 -14 q 26 182 26 93 q 82 329 26 274 q 215 408 138 385 q 364 433 292 432 q 340 541 364 510 q 257 572 315 572 q 92 514 176 572 l 78 632 q 289 699 174 699 q 452 636 397 699 q 507 436 507 574 l 507 233 q 517 131 507 157 q 561 104 528 104 l 579 104 l 567 -14 l 519 -14 q 383 78 419 -14 q 207 -14 310 -14 m 253 100 q 313 119 283 100 q 365 174 342 139 l 365 335 q 175 193 175 321 q 253 100 175 100 m 101 928 l 496 928 l 496 828 l 101 828 l 101 928 z "},"ą":{"ha":596,"x_min":26,"x_max":615,"o":"m 615 -269 q 515 -290 571 -290 q 417 -260 456 -290 q 379 -174 379 -229 q 403 -89 379 -128 q 469 -7 426 -50 q 383 78 410 11 q 207 -14 310 -14 q 78 40 129 -14 q 26 182 26 93 q 82 329 26 274 q 215 408 138 385 q 364 433 292 432 q 340 541 364 510 q 257 572 315 572 q 92 514 176 572 l 78 632 q 289 699 174 699 q 452 636 397 699 q 507 436 507 574 l 507 233 q 517 131 507 157 q 561 104 528 104 l 579 104 l 567 -14 l 543 -14 q 483 -86 503 -54 q 463 -151 463 -118 q 481 -198 463 -182 q 529 -214 499 -214 q 593 -200 558 -214 l 615 -269 m 365 335 q 175 193 175 321 q 253 100 175 100 q 313 119 283 100 q 365 174 342 139 l 365 335 z "},"å":{"ha":596,"x_min":26,"x_max":579,"o":"m 207 -14 q 78 40 129 -14 q 26 182 26 93 q 82 329 26 274 q 215 408 138 385 q 364 433 292 432 q 340 541 364 510 q 257 572 315 572 q 92 514 176 572 l 78 632 q 289 699 174 699 q 452 636 397 699 q 507 436 507 574 l 507 233 q 517 131 507 157 q 561 104 528 104 l 579 104 l 567 -14 l 519 -14 q 383 78 419 -14 q 207 -14 310 -14 m 253 100 q 313 119 283 100 q 365 174 342 139 l 365 335 q 175 193 175 321 q 253 100 175 100 m 299 790 q 202 830 236 790 q 168 928 168 869 q 202 1025 168 985 q 299 1065 236 1065 q 395 1025 361 1065 q 429 928 429 985 q 396 830 429 869 q 299 790 363 790 m 299 854 q 342 874 326 854 q 357 928 357 893 q 341 980 357 960 q 299 1000 325 1000 q 256 980 272 1000 q 240 928 240 960 q 256 874 240 893 q 299 854 271 854 z "},"ǻ":{"ha":596,"x_min":26,"x_max":579,"o":"m 207 -14 q 78 40 129 -14 q 26 182 26 93 q 82 329 26 274 q 215 408 138 385 q 364 433 292 432 q 340 541 364 510 q 257 572 315 572 q 92 514 176 572 l 78 632 q 289 699 174 699 q 452 636 397 699 q 507 436 507 574 l 507 233 q 517 131 507 157 q 561 104 528 104 l 579 104 l 567 -14 l 519 -14 q 383 78 419 -14 q 207 -14 310 -14 m 253 100 q 313 119 283 100 q 365 174 342 139 l 365 335 q 175 193 175 321 q 253 100 175 100 m 299 790 q 202 830 236 790 q 168 928 168 869 q 202 1025 168 985 q 299 1065 236 1065 q 395 1025 361 1065 q 429 928 429 985 q 396 830 429 869 q 299 790 363 790 m 299 854 q 342 874 326 854 q 357 928 357 893 q 341 980 357 960 q 299 1000 325 1000 q 256 980 272 1000 q 240 928 240 960 q 256 874 240 893 q 299 854 271 854 m 194 1207 l 404 1318 l 404 1183 l 194 1119 l 194 1207 z "},"ã":{"ha":596,"x_min":26,"x_max":579,"o":"m 207 -14 q 78 40 129 -14 q 26 182 26 93 q 82 329 26 274 q 215 408 138 385 q 364 433 292 432 q 340 541 364 510 q 257 572 315 572 q 92 514 176 572 l 78 632 q 289 699 174 699 q 452 636 397 699 q 507 436 507 574 l 507 233 q 517 131 507 157 q 561 104 528 104 l 579 104 l 567 -14 l 519 -14 q 383 78 419 -14 q 207 -14 310 -14 m 253 100 q 313 119 283 100 q 365 174 342 139 l 365 335 q 175 193 175 321 q 253 100 175 100 m 396 804 q 347 814 369 804 q 299 842 325 824 q 265 862 279 856 q 236 868 251 868 q 208 853 218 868 q 199 815 199 839 l 93 815 q 201 975 100 975 q 249 966 228 975 q 299 939 271 957 q 332 919 318 925 q 361 913 346 913 q 389 926 379 913 q 399 964 399 940 l 504 964 q 474 845 501 886 q 396 804 446 804 z "},"æ":{"ha":950,"x_min":26,"x_max":918,"o":"m 918 407 q 911 328 918 372 l 515 328 q 574 164 521 219 q 707 108 626 108 q 799 120 753 108 q 883 154 846 132 l 892 29 q 694 -14 813 -14 q 547 17 611 -14 q 443 104 483 49 q 342 16 394 46 q 219 -14 290 -14 q 81 40 136 -14 q 26 182 26 93 q 124 364 26 307 q 369 426 222 421 l 369 440 q 343 542 369 513 q 257 572 317 572 q 92 514 176 572 l 78 632 q 289 699 174 699 q 467 600 414 699 q 681 699 544 699 q 854 619 790 699 q 918 407 918 539 m 775 426 q 747 536 775 494 q 658 578 718 578 q 565 540 601 578 q 518 426 529 501 l 775 426 m 258 100 q 399 188 335 100 q 371 328 375 247 q 228 288 281 324 q 175 189 175 253 q 197 123 175 146 q 258 100 219 100 z "},"ǽ":{"ha":950,"x_min":26,"x_max":918,"o":"m 918 407 q 911 328 918 372 l 515 328 q 574 164 521 219 q 707 108 626 108 q 799 120 753 108 q 883 154 846 132 l 892 29 q 694 -14 813 -14 q 547 17 611 -14 q 443 104 483 49 q 342 16 394 46 q 219 -14 290 -14 q 81 40 136 -14 q 26 182 26 93 q 124 364 26 307 q 369 426 222 421 l 369 440 q 343 542 369 513 q 257 572 317 572 q 92 514 176 572 l 78 632 q 289 699 174 699 q 467 600 414 699 q 681 699 544 699 q 854 619 790 699 q 918 407 918 539 m 775 426 q 747 536 775 494 q 658 578 718 578 q 565 540 601 578 q 518 426 529 501 l 775 426 m 258 100 q 399 188 335 100 q 371 328 375 247 q 228 288 281 324 q 175 189 175 253 q 197 123 175 146 q 258 100 219 100 m 378 903 l 588 1035 l 588 889 l 378 807 l 378 903 z "},"b":{"ha":683,"x_min":69,"x_max":647,"o":"m 381 699 q 524 650 464 699 q 616 520 585 601 q 647 343 647 439 q 615 162 647 243 q 522 33 582 81 q 381 -14 461 -14 q 204 58 272 -14 l 200 0 l 69 0 l 69 1042 l 211 1042 l 211 629 q 381 699 283 699 m 354 106 q 464 173 424 106 q 504 343 504 240 q 464 513 504 447 q 354 579 424 579 q 241 517 282 579 q 200 343 200 456 q 241 167 200 228 q 354 106 282 106 z "},"c":{"ha":535,"x_min":33,"x_max":503,"o":"m 354 -14 q 178 33 250 -14 q 69 160 106 79 q 33 340 33 240 q 117 599 33 499 q 358 699 200 699 q 503 669 442 699 l 486 550 q 368 579 431 579 q 228 516 278 579 q 178 343 178 453 q 228 171 178 236 q 371 106 279 106 q 489 135 433 106 l 503 17 q 435 -6 475 3 q 354 -14 396 -14 z "},"ć":{"ha":535,"x_min":33,"x_max":503,"o":"m 354 -14 q 178 33 250 -14 q 69 160 106 79 q 33 340 33 240 q 117 599 33 499 q 358 699 200 699 q 503 669 442 699 l 486 550 q 368 579 431 579 q 228 516 278 579 q 178 343 178 453 q 228 171 178 236 q 371 106 279 106 q 489 135 433 106 l 503 17 q 435 -6 475 3 q 354 -14 396 -14 m 221 903 l 431 1035 l 431 889 l 221 807 l 221 903 z "},"č":{"ha":535,"x_min":33,"x_max":503,"o":"m 354 -14 q 178 33 250 -14 q 69 160 106 79 q 33 340 33 240 q 117 599 33 499 q 358 699 200 699 q 503 669 442 699 l 486 550 q 368 579 431 579 q 228 516 278 579 q 178 343 178 453 q 228 171 178 236 q 371 106 279 106 q 489 135 433 106 l 503 17 q 435 -6 475 3 q 354 -14 396 -14 m 174 908 l 174 1004 l 325 908 l 476 1004 l 476 908 l 325 779 l 174 908 z "},"ç":{"ha":535,"x_min":33,"x_max":503,"o":"m 503 17 q 371 -14 453 -10 l 351 -76 q 434 -108 404 -78 q 464 -192 464 -139 q 424 -287 464 -253 q 321 -322 383 -322 q 226 -304 268 -322 l 250 -233 q 319 -249 283 -249 q 367 -235 350 -249 q 385 -193 385 -221 q 325 -139 385 -139 q 272 -147 300 -139 l 306 -11 q 103 102 174 6 q 33 340 33 199 q 117 599 33 499 q 358 699 200 699 q 503 669 442 699 l 486 550 q 368 579 431 579 q 228 516 278 579 q 178 343 178 453 q 228 171 178 236 q 371 106 279 106 q 489 135 433 106 l 503 17 z "},"ḉ":{"ha":535,"x_min":33,"x_max":503,"o":"m 431 889 l 221 807 l 221 903 l 431 1035 l 431 889 m 503 17 q 371 -14 453 -10 l 351 -76 q 434 -108 404 -78 q 464 -192 464 -139 q 424 -287 464 -253 q 321 -322 383 -322 q 226 -304 268 -322 l 250 -233 q 319 -249 283 -249 q 367 -235 350 -249 q 385 -193 385 -221 q 325 -139 385 -139 q 272 -147 300 -139 l 306 -11 q 103 102 174 6 q 33 340 33 199 q 117 599 33 499 q 358 699 200 699 q 503 669 442 699 l 486 550 q 368 579 431 579 q 228 516 278 579 q 178 343 178 453 q 228 171 178 236 q 371 106 279 106 q 489 135 433 106 l 503 17 z "},"ĉ":{"ha":535,"x_min":33,"x_max":503,"o":"m 354 -14 q 178 33 250 -14 q 69 160 106 79 q 33 340 33 240 q 117 599 33 499 q 358 699 200 699 q 503 669 442 699 l 486 550 q 368 579 431 579 q 228 516 278 579 q 178 343 178 453 q 228 171 178 236 q 371 106 279 106 q 489 135 433 106 l 503 17 q 435 -6 475 3 q 354 -14 396 -14 m 174 879 l 325 1007 l 476 879 l 476 783 l 325 878 l 174 783 l 174 879 z "},"ċ":{"ha":535,"x_min":33,"x_max":503,"o":"m 354 -14 q 178 33 250 -14 q 69 160 106 79 q 33 340 33 240 q 117 599 33 499 q 358 699 200 699 q 503 669 442 699 l 486 550 q 368 579 431 579 q 228 516 278 579 q 178 343 178 453 q 228 171 178 236 q 371 106 279 106 q 489 135 433 106 l 503 17 q 435 -6 475 3 q 354 -14 396 -14 m 261 957 l 389 957 l 389 828 l 261 828 l 261 957 z "},"d":{"ha":683,"x_min":32,"x_max":611,"o":"m 611 1042 l 611 0 l 482 0 l 475 56 q 308 -14 408 -14 q 163 33 226 -14 q 66 162 100 81 q 32 342 32 243 q 65 520 32 439 q 161 650 99 601 q 308 699 224 699 q 469 636 403 699 l 469 1042 l 611 1042 m 325 106 q 439 166 399 106 q 479 342 479 226 q 439 517 479 456 q 325 579 399 579 q 217 513 258 579 q 176 342 176 446 q 218 173 176 240 q 325 106 260 106 z "},"ð":{"ha":611,"x_min":24,"x_max":568,"o":"m 397 828 q 524 622 481 743 q 568 363 568 501 q 494 78 568 172 q 290 -17 421 -17 q 149 22 210 -17 q 56 129 89 61 q 24 285 24 197 q 92 505 24 418 q 282 592 161 592 q 413 549 360 592 q 306 772 390 679 l 171 690 l 121 769 l 232 836 q 121 892 185 869 l 146 974 q 324 893 244 949 l 456 972 l 504 893 l 397 828 m 293 108 q 385 159 351 108 q 419 290 419 210 q 385 419 419 369 q 293 468 351 468 q 201 418 235 468 q 168 292 168 368 q 201 160 168 211 q 293 108 235 108 z "},"ď":{"ha":774,"x_min":32,"x_max":796,"o":"m 611 1042 l 611 0 l 482 0 l 475 56 q 308 -14 408 -14 q 163 33 226 -14 q 66 162 100 81 q 32 342 32 243 q 65 520 32 439 q 161 650 99 601 q 308 699 224 699 q 469 636 403 699 l 469 1042 l 611 1042 m 325 106 q 439 166 399 106 q 479 342 479 226 q 439 517 479 456 q 325 579 399 579 q 217 513 258 579 q 176 342 176 446 q 218 173 176 240 q 325 106 260 106 m 667 1042 l 796 1042 l 757 804 l 667 804 l 667 1042 z "},"đ":{"ha":699,"x_min":32,"x_max":697,"o":"m 697 815 l 611 815 l 611 0 l 482 0 l 475 56 q 308 -14 408 -14 q 163 33 226 -14 q 66 162 100 81 q 32 342 32 243 q 65 520 32 439 q 161 650 99 601 q 308 699 224 699 q 469 636 403 699 l 469 815 l 275 815 l 275 921 l 469 921 l 469 1042 l 611 1042 l 611 921 l 697 921 l 697 815 m 325 106 q 439 166 399 106 q 479 342 479 226 q 439 517 479 456 q 325 579 399 579 q 217 513 258 579 q 176 342 176 446 q 218 173 176 240 q 325 106 260 106 z "},"ḍ":{"ha":683,"x_min":32,"x_max":611,"o":"m 611 1042 l 611 0 l 482 0 l 475 56 q 308 -14 408 -14 q 163 33 226 -14 q 66 162 100 81 q 32 342 32 243 q 65 520 32 439 q 161 650 99 601 q 308 699 224 699 q 469 636 403 699 l 469 1042 l 611 1042 m 325 106 q 439 166 399 106 q 479 342 479 226 q 439 517 479 456 q 325 579 399 579 q 217 513 258 579 q 176 342 176 446 q 218 173 176 240 q 325 106 260 106 m 282 -112 l 410 -112 l 410 -242 l 282 -242 l 282 -112 z "},"ḏ":{"ha":683,"x_min":32,"x_max":611,"o":"m 611 1042 l 611 0 l 482 0 l 475 56 q 308 -14 408 -14 q 163 33 226 -14 q 66 162 100 81 q 32 342 32 243 q 65 520 32 439 q 161 650 99 601 q 308 699 224 699 q 469 636 403 699 l 469 1042 l 611 1042 m 325 106 q 439 166 399 106 q 479 342 479 226 q 439 517 479 456 q 325 579 399 579 q 217 513 258 579 q 176 342 176 446 q 218 173 176 240 q 325 106 260 106 m 149 -129 l 543 -129 l 543 -229 l 149 -229 l 149 -129 z "},"ǆ":{"ha":1244,"x_min":32,"x_max":1218,"o":"m 611 1042 l 611 0 l 482 0 l 475 56 q 308 -14 408 -14 q 163 33 226 -14 q 66 162 100 81 q 32 342 32 243 q 65 520 32 439 q 161 650 99 601 q 308 699 224 699 q 469 636 403 699 l 469 1042 l 611 1042 m 325 106 q 439 166 399 106 q 479 342 479 226 q 439 517 479 456 q 325 579 399 579 q 217 513 258 579 q 176 342 176 446 q 218 173 176 240 q 325 106 260 106 m 924 122 l 1210 122 l 1210 0 l 708 0 l 1003 564 l 725 564 l 725 686 l 1218 686 l 924 122 m 821 908 l 821 1004 l 972 908 l 1124 1004 l 1124 908 l 972 779 l 821 908 z "},"e":{"ha":614,"x_min":35,"x_max":582,"o":"m 582 403 q 575 328 582 372 l 179 328 q 238 164 185 219 q 371 108 290 108 q 463 120 417 108 q 547 154 510 132 l 556 29 q 358 -14 476 -14 q 181 34 254 -14 q 72 164 108 82 q 35 346 35 246 q 69 525 35 444 q 169 652 103 606 q 326 699 235 699 q 512 619 442 699 q 582 403 582 540 m 439 426 q 410 536 439 494 q 322 578 382 578 q 231 540 267 578 q 183 426 194 501 l 439 426 z "},"é":{"ha":614,"x_min":35,"x_max":582,"o":"m 582 403 q 575 328 582 372 l 179 328 q 238 164 185 219 q 371 108 290 108 q 463 120 417 108 q 547 154 510 132 l 556 29 q 358 -14 476 -14 q 181 34 254 -14 q 72 164 108 82 q 35 346 35 246 q 69 525 35 444 q 169 652 103 606 q 326 699 235 699 q 512 619 442 699 q 582 403 582 540 m 439 426 q 410 536 439 494 q 322 578 382 578 q 231 540 267 578 q 183 426 194 501 l 439 426 m 224 903 l 433 1035 l 433 889 l 224 807 l 224 903 z "},"ĕ":{"ha":614,"x_min":35,"x_max":582,"o":"m 582 403 q 575 328 582 372 l 179 328 q 238 164 185 219 q 371 108 290 108 q 463 120 417 108 q 547 154 510 132 l 556 29 q 358 -14 476 -14 q 181 34 254 -14 q 72 164 108 82 q 35 346 35 246 q 69 525 35 444 q 169 652 103 606 q 326 699 235 699 q 512 619 442 699 q 582 403 582 540 m 439 426 q 410 536 439 494 q 322 578 382 578 q 231 540 267 578 q 183 426 194 501 l 439 426 m 328 807 q 188 857 238 807 q 138 981 138 907 l 247 981 q 267 922 247 943 q 328 901 288 901 q 388 922 368 901 q 408 981 408 943 l 518 981 q 468 857 518 907 q 328 807 418 807 z "},"ě":{"ha":614,"x_min":35,"x_max":582,"o":"m 582 403 q 575 328 582 372 l 179 328 q 238 164 185 219 q 371 108 290 108 q 463 120 417 108 q 547 154 510 132 l 556 29 q 358 -14 476 -14 q 181 34 254 -14 q 72 164 108 82 q 35 346 35 246 q 69 525 35 444 q 169 652 103 606 q 326 699 235 699 q 512 619 442 699 q 582 403 582 540 m 439 426 q 410 536 439 494 q 322 578 382 578 q 231 540 267 578 q 183 426 194 501 l 439 426 m 176 908 l 176 1004 l 328 908 l 479 1004 l 479 908 l 328 779 l 176 908 z "},"ḝ":{"ha":614,"x_min":35,"x_max":582,"o":"m 328 807 q 188 857 238 807 q 138 981 138 907 l 247 981 q 267 922 247 943 q 328 901 288 901 q 388 922 368 901 q 408 981 408 943 l 518 981 q 468 857 518 907 q 328 807 418 807 m 582 403 q 575 328 582 372 l 179 328 q 238 164 185 219 q 371 108 290 108 q 463 120 417 108 q 547 154 510 132 l 556 29 q 393 -12 489 -7 l 374 -76 q 456 -108 426 -78 q 486 -192 486 -139 q 446 -287 486 -253 q 343 -322 406 -322 q 249 -304 290 -322 l 272 -233 q 342 -249 306 -249 q 390 -235 372 -249 q 407 -193 407 -221 q 347 -139 407 -139 q 294 -147 321 -139 l 328 -12 q 167 44 233 -6 q 68 172 101 93 q 35 346 35 251 q 69 525 35 444 q 169 652 103 606 q 326 699 235 699 q 512 619 442 699 q 582 403 582 540 m 439 426 q 410 536 439 494 q 322 578 382 578 q 231 540 267 578 q 183 426 194 501 l 439 426 z "},"ê":{"ha":614,"x_min":35,"x_max":582,"o":"m 582 403 q 575 328 582 372 l 179 328 q 238 164 185 219 q 371 108 290 108 q 463 120 417 108 q 547 154 510 132 l 556 29 q 358 -14 476 -14 q 181 34 254 -14 q 72 164 108 82 q 35 346 35 246 q 69 525 35 444 q 169 652 103 606 q 326 699 235 699 q 512 619 442 699 q 582 403 582 540 m 439 426 q 410 536 439 494 q 322 578 382 578 q 231 540 267 578 q 183 426 194 501 l 439 426 m 176 879 l 328 1007 l 479 879 l 479 783 l 328 878 l 176 783 l 176 879 z "},"ế":{"ha":614,"x_min":35,"x_max":644,"o":"m 582 403 q 575 328 582 372 l 179 328 q 238 164 185 219 q 371 108 290 108 q 463 120 417 108 q 547 154 510 132 l 556 29 q 358 -14 476 -14 q 181 34 254 -14 q 72 164 108 82 q 35 346 35 246 q 69 525 35 444 q 169 652 103 606 q 326 699 235 699 q 512 619 442 699 q 582 403 582 540 m 439 426 q 410 536 439 494 q 322 578 382 578 q 231 540 267 578 q 183 426 194 501 l 439 426 m 504 1125 l 644 1125 l 519 957 l 426 957 l 504 1125 m 493 854 l 493 761 l 328 850 l 163 761 l 163 854 l 328 971 l 493 854 z "},"ệ":{"ha":614,"x_min":35,"x_max":582,"o":"m 582 403 q 575 328 582 372 l 179 328 q 238 164 185 219 q 371 108 290 108 q 463 120 417 108 q 547 154 510 132 l 556 29 q 358 -14 476 -14 q 181 34 254 -14 q 72 164 108 82 q 35 346 35 246 q 69 525 35 444 q 169 652 103 606 q 326 699 235 699 q 512 619 442 699 q 582 403 582 540 m 439 426 q 410 536 439 494 q 322 578 382 578 q 231 540 267 578 q 183 426 194 501 l 439 426 m 176 879 l 328 1007 l 479 879 l 479 783 l 328 878 l 176 783 l 176 879 m 286 -112 l 414 -112 l 414 -242 l 286 -242 l 286 -112 z "},"ề":{"ha":614,"x_min":35,"x_max":582,"o":"m 582 403 q 575 328 582 372 l 179 328 q 238 164 185 219 q 371 108 290 108 q 463 120 417 108 q 547 154 510 132 l 556 29 q 358 -14 476 -14 q 181 34 254 -14 q 72 164 108 82 q 35 346 35 246 q 69 525 35 444 q 169 652 103 606 q 326 699 235 699 q 512 619 442 699 q 582 403 582 540 m 439 426 q 410 536 439 494 q 322 578 382 578 q 231 540 267 578 q 183 426 194 501 l 439 426 m 457 957 l 353 1125 l 486 1125 l 547 957 l 457 957 m 493 854 l 493 761 l 328 850 l 163 761 l 163 854 l 328 971 l 493 854 z "},"ể":{"ha":614,"x_min":35,"x_max":582,"o":"m 582 403 q 575 328 582 372 l 179 328 q 238 164 185 219 q 371 108 290 108 q 463 120 417 108 q 547 154 510 132 l 556 29 q 358 -14 476 -14 q 181 34 254 -14 q 72 164 108 82 q 35 346 35 246 q 69 525 35 444 q 169 652 103 606 q 326 699 235 699 q 512 619 442 699 q 582 403 582 540 m 439 426 q 410 536 439 494 q 322 578 382 578 q 231 540 267 578 q 183 426 194 501 l 439 426 m 493 849 l 493 756 l 328 844 l 163 756 l 163 849 l 328 965 l 493 849 m 447 979 q 476 999 467 988 q 486 1031 486 1011 q 474 1062 486 1051 q 439 1072 461 1072 q 371 1053 410 1072 l 347 1129 q 447 1149 393 1149 q 536 1121 501 1149 q 571 1043 571 1093 q 545 970 571 999 q 467 922 519 942 l 447 979 z "},"ễ":{"ha":614,"x_min":35,"x_max":582,"o":"m 582 403 q 575 328 582 372 l 179 328 q 238 164 185 219 q 371 108 290 108 q 463 120 417 108 q 547 154 510 132 l 556 29 q 358 -14 476 -14 q 181 34 254 -14 q 72 164 108 82 q 35 346 35 246 q 69 525 35 444 q 169 652 103 606 q 326 699 235 699 q 512 619 442 699 q 582 403 582 540 m 439 426 q 410 536 439 494 q 322 578 382 578 q 231 540 267 578 q 183 426 194 501 l 439 426 m 493 849 l 493 756 l 328 844 l 163 756 l 163 849 l 328 965 l 493 849 m 431 1019 q 385 1027 407 1019 q 332 1049 364 1035 q 294 1065 313 1058 q 261 1072 275 1072 q 219 1026 219 1072 l 124 1026 q 149 1133 124 1096 q 225 1169 175 1169 q 272 1161 249 1169 q 324 1139 294 1153 q 362 1122 343 1129 q 394 1115 381 1115 q 436 1161 436 1115 l 532 1161 q 506 1056 532 1092 q 431 1019 481 1019 z "},"ȅ":{"ha":614,"x_min":35,"x_max":582,"o":"m 582 403 q 575 328 582 372 l 179 328 q 238 164 185 219 q 371 108 290 108 q 463 120 417 108 q 547 154 510 132 l 556 29 q 358 -14 476 -14 q 181 34 254 -14 q 72 164 108 82 q 35 346 35 246 q 69 525 35 444 q 169 652 103 606 q 326 699 235 699 q 512 619 442 699 q 582 403 582 540 m 439 426 q 410 536 439 494 q 322 578 382 578 q 231 540 267 578 q 183 426 194 501 l 439 426 m 196 808 l 68 1046 l 210 1046 l 292 808 l 196 808 m 392 808 l 272 1046 l 408 1046 l 482 808 l 392 808 z "},"ë":{"ha":614,"x_min":35,"x_max":582,"o":"m 582 403 q 575 328 582 372 l 179 328 q 238 164 185 219 q 371 108 290 108 q 463 120 417 108 q 547 154 510 132 l 556 29 q 358 -14 476 -14 q 181 34 254 -14 q 72 164 108 82 q 35 346 35 246 q 69 525 35 444 q 169 652 103 606 q 326 699 235 699 q 512 619 442 699 q 582 403 582 540 m 439 426 q 410 536 439 494 q 322 578 382 578 q 231 540 267 578 q 183 426 194 501 l 439 426 m 157 938 l 276 938 l 276 821 l 157 821 l 157 938 m 379 938 l 499 938 l 499 821 l 379 821 l 379 938 z "},"ė":{"ha":614,"x_min":35,"x_max":582,"o":"m 582 403 q 575 328 582 372 l 179 328 q 238 164 185 219 q 371 108 290 108 q 463 120 417 108 q 547 154 510 132 l 556 29 q 358 -14 476 -14 q 181 34 254 -14 q 72 164 108 82 q 35 346 35 246 q 69 525 35 444 q 169 652 103 606 q 326 699 235 699 q 512 619 442 699 q 582 403 582 540 m 439 426 q 410 536 439 494 q 322 578 382 578 q 231 540 267 578 q 183 426 194 501 l 439 426 m 264 957 l 392 957 l 392 828 l 264 828 l 264 957 z "},"ẹ":{"ha":614,"x_min":35,"x_max":582,"o":"m 582 403 q 575 328 582 372 l 179 328 q 238 164 185 219 q 371 108 290 108 q 463 120 417 108 q 547 154 510 132 l 556 29 q 358 -14 476 -14 q 181 34 254 -14 q 72 164 108 82 q 35 346 35 246 q 69 525 35 444 q 169 652 103 606 q 326 699 235 699 q 512 619 442 699 q 582 403 582 540 m 439 426 q 410 536 439 494 q 322 578 382 578 q 231 540 267 578 q 183 426 194 501 l 439 426 m 286 -112 l 414 -112 l 414 -242 l 286 -242 l 286 -112 z "},"è":{"ha":614,"x_min":35,"x_max":582,"o":"m 582 403 q 575 328 582 372 l 179 328 q 238 164 185 219 q 371 108 290 108 q 463 120 417 108 q 547 154 510 132 l 556 29 q 358 -14 476 -14 q 181 34 254 -14 q 72 164 108 82 q 35 346 35 246 q 69 525 35 444 q 169 652 103 606 q 326 699 235 699 q 512 619 442 699 q 582 403 582 540 m 439 426 q 410 536 439 494 q 322 578 382 578 q 231 540 267 578 q 183 426 194 501 l 439 426 m 222 890 l 222 1040 l 432 906 l 432 807 l 222 890 z "},"ẻ":{"ha":614,"x_min":35,"x_max":582,"o":"m 582 403 q 575 328 582 372 l 179 328 q 238 164 185 219 q 371 108 290 108 q 463 120 417 108 q 547 154 510 132 l 556 29 q 358 -14 476 -14 q 181 34 254 -14 q 72 164 108 82 q 35 346 35 246 q 69 525 35 444 q 169 652 103 606 q 326 699 235 699 q 512 619 442 699 q 582 403 582 540 m 439 426 q 410 536 439 494 q 322 578 382 578 q 231 540 267 578 q 183 426 194 501 l 439 426 m 300 783 q 339 832 328 814 q 350 874 350 850 q 338 908 350 896 q 303 919 325 919 q 233 897 275 919 l 210 971 q 310 993 254 993 q 397 963 363 993 q 431 878 431 932 q 411 803 431 835 q 349 735 392 772 l 300 783 z "},"ȇ":{"ha":614,"x_min":35,"x_max":582,"o":"m 582 403 q 575 328 582 372 l 179 328 q 238 164 185 219 q 371 108 290 108 q 463 120 417 108 q 547 154 510 132 l 556 29 q 358 -14 476 -14 q 181 34 254 -14 q 72 164 108 82 q 35 346 35 246 q 69 525 35 444 q 169 652 103 606 q 326 699 235 699 q 512 619 442 699 q 582 403 582 540 m 439 426 q 410 536 439 494 q 322 578 382 578 q 231 540 267 578 q 183 426 194 501 l 439 426 m 328 976 q 473 928 421 976 q 525 807 525 879 l 413 807 q 390 860 413 840 q 328 879 368 879 q 265 860 288 879 q 243 807 243 840 l 131 807 q 183 928 131 879 q 328 976 235 976 z "},"ē":{"ha":614,"x_min":35,"x_max":582,"o":"m 582 403 q 575 328 582 372 l 179 328 q 238 164 185 219 q 371 108 290 108 q 463 120 417 108 q 547 154 510 132 l 556 29 q 358 -14 476 -14 q 181 34 254 -14 q 72 164 108 82 q 35 346 35 246 q 69 525 35 444 q 169 652 103 606 q 326 699 235 699 q 512 619 442 699 q 582 403 582 540 m 439 426 q 410 536 439 494 q 322 578 382 578 q 231 540 267 578 q 183 426 194 501 l 439 426 m 131 928 l 525 928 l 525 828 l 131 828 l 131 928 z "},"ḗ":{"ha":614,"x_min":35,"x_max":582,"o":"m 582 403 q 575 328 582 372 l 179 328 q 238 164 185 219 q 371 108 290 108 q 463 120 417 108 q 547 154 510 132 l 556 29 q 358 -14 476 -14 q 181 34 254 -14 q 72 164 108 82 q 35 346 35 246 q 69 525 35 444 q 169 652 103 606 q 326 699 235 699 q 512 619 442 699 q 582 403 582 540 m 439 426 q 410 536 439 494 q 322 578 382 578 q 231 540 267 578 q 183 426 194 501 l 439 426 m 117 911 l 539 911 l 539 815 l 117 815 l 117 911 m 224 1085 l 433 1196 l 433 1061 l 224 997 l 224 1085 z "},"ḕ":{"ha":614,"x_min":35,"x_max":582,"o":"m 582 403 q 575 328 582 372 l 179 328 q 238 164 185 219 q 371 108 290 108 q 463 120 417 108 q 547 154 510 132 l 556 29 q 358 -14 476 -14 q 181 34 254 -14 q 72 164 108 82 q 35 346 35 246 q 69 525 35 444 q 169 652 103 606 q 326 699 235 699 q 512 619 442 699 q 582 403 582 540 m 439 426 q 410 536 439 494 q 322 578 382 578 q 231 540 267 578 q 183 426 194 501 l 439 426 m 117 911 l 539 911 l 539 815 l 117 815 l 117 911 m 222 1060 l 222 1196 l 432 1085 l 432 997 l 222 1060 z "},"ę":{"ha":614,"x_min":35,"x_max":615,"o":"m 615 -240 q 515 -261 571 -261 q 417 -231 456 -261 q 379 -144 379 -200 q 395 -74 379 -107 q 442 -7 411 -40 q 358 -14 397 -14 q 181 34 254 -14 q 72 164 108 82 q 35 346 35 246 q 69 525 35 444 q 169 652 103 606 q 326 699 235 699 q 512 619 442 699 q 582 403 582 540 q 575 328 582 372 l 179 328 q 238 164 185 219 q 371 108 290 108 q 463 120 417 108 q 547 154 510 132 l 556 29 l 557 29 q 486 -51 510 -17 q 463 -122 463 -86 q 481 -169 463 -153 q 529 -185 499 -185 q 593 -171 558 -185 l 615 -240 m 322 578 q 231 540 267 578 q 183 426 194 501 l 439 426 q 410 536 439 494 q 322 578 382 578 z "},"ẽ":{"ha":614,"x_min":35,"x_max":582,"o":"m 582 403 q 575 328 582 372 l 179 328 q 238 164 185 219 q 371 108 290 108 q 463 120 417 108 q 547 154 510 132 l 556 29 q 358 -14 476 -14 q 181 34 254 -14 q 72 164 108 82 q 35 346 35 246 q 69 525 35 444 q 169 652 103 606 q 326 699 235 699 q 512 619 442 699 q 582 403 582 540 m 439 426 q 410 536 439 494 q 322 578 382 578 q 231 540 267 578 q 183 426 194 501 l 439 426 m 425 804 q 376 814 399 804 q 328 842 354 824 q 294 862 308 856 q 265 868 281 868 q 238 853 247 868 q 228 815 228 839 l 122 815 q 231 975 129 975 q 278 966 257 975 q 328 939 300 957 q 361 919 347 925 q 390 913 375 913 q 418 926 408 913 q 428 964 428 940 l 533 964 q 503 845 531 886 q 425 804 475 804 z "},"ə":{"ha":614,"x_min":32,"x_max":579,"o":"m 256 700 q 433 652 360 700 q 542 522 506 604 q 579 340 579 440 q 545 161 579 242 q 445 34 511 81 q 288 -12 379 -12 q 102 67 172 -12 q 32 283 32 146 q 39 358 32 314 l 435 358 q 376 522 429 467 q 243 578 324 578 q 151 566 197 578 q 67 532 104 554 l 58 657 q 256 700 138 700 m 292 108 q 383 147 347 108 q 431 260 419 185 l 175 260 q 203 150 175 192 q 292 108 232 108 z "},"f":{"ha":406,"x_min":21,"x_max":385,"o":"m 108 571 l 21 571 l 33 686 l 108 686 l 108 854 q 156 990 108 939 q 293 1042 203 1042 q 383 1026 346 1042 l 369 908 q 322 917 342 917 q 268 894 288 917 q 249 832 249 872 l 249 686 l 385 686 l 385 571 l 249 571 l 249 0 l 108 0 l 108 571 z "},"g":{"ha":593,"x_min":29,"x_max":597,"o":"m 382 61 q 547 -15 497 29 q 597 -140 597 -60 q 515 -292 597 -236 q 303 -347 433 -347 q 105 -297 181 -347 q 29 -158 29 -247 q 136 8 29 -60 q 74 103 74 40 q 144 199 74 165 q 65 297 93 236 q 38 431 38 357 q 67 567 38 506 q 153 663 97 628 q 283 699 208 699 q 435 649 372 699 q 550 699 489 699 q 585 696 568 699 l 572 594 q 544 597 558 597 q 489 586 519 597 q 529 431 529 518 q 499 293 529 356 q 414 194 469 231 q 283 157 358 157 q 221 164 253 157 q 201 136 201 156 q 216 111 201 121 q 265 92 231 101 l 382 61 m 283 590 q 199 546 229 590 q 169 429 169 501 q 199 310 169 356 q 283 265 229 265 q 367 310 336 265 q 397 429 397 356 q 367 545 397 500 q 283 590 336 590 m 310 -236 q 423 -214 381 -236 q 465 -149 465 -192 q 440 -92 465 -112 q 350 -54 415 -72 l 236 -22 q 150 -137 150 -76 q 193 -211 150 -186 q 310 -236 236 -236 z "},"ğ":{"ha":593,"x_min":29,"x_max":597,"o":"m 382 61 q 547 -15 497 29 q 597 -140 597 -60 q 515 -292 597 -236 q 303 -347 433 -347 q 105 -297 181 -347 q 29 -158 29 -247 q 136 8 29 -60 q 74 103 74 40 q 144 199 74 165 q 65 297 93 236 q 38 431 38 357 q 67 567 38 506 q 153 663 97 628 q 283 699 208 699 q 435 649 372 699 q 550 699 489 699 q 585 696 568 699 l 572 594 q 544 597 558 597 q 489 586 519 597 q 529 431 529 518 q 499 293 529 356 q 414 194 469 231 q 283 157 358 157 q 221 164 253 157 q 201 136 201 156 q 216 111 201 121 q 265 92 231 101 l 382 61 m 283 590 q 199 546 229 590 q 169 429 169 501 q 199 310 169 356 q 283 265 229 265 q 367 310 336 265 q 397 429 397 356 q 367 545 397 500 q 283 590 336 590 m 310 -236 q 423 -214 381 -236 q 465 -149 465 -192 q 440 -92 465 -112 q 350 -54 415 -72 l 236 -22 q 150 -137 150 -76 q 193 -211 150 -186 q 310 -236 236 -236 m 325 807 q 185 857 235 807 q 135 981 135 907 l 244 981 q 265 922 244 943 q 325 901 285 901 q 385 922 365 901 q 406 981 406 943 l 515 981 q 465 857 515 907 q 325 807 415 807 z "},"ǧ":{"ha":593,"x_min":29,"x_max":597,"o":"m 382 61 q 547 -15 497 29 q 597 -140 597 -60 q 515 -292 597 -236 q 303 -347 433 -347 q 105 -297 181 -347 q 29 -158 29 -247 q 136 8 29 -60 q 74 103 74 40 q 144 199 74 165 q 65 297 93 236 q 38 431 38 357 q 67 567 38 506 q 153 663 97 628 q 283 699 208 699 q 435 649 372 699 q 550 699 489 699 q 585 696 568 699 l 572 594 q 544 597 558 597 q 489 586 519 597 q 529 431 529 518 q 499 293 529 356 q 414 194 469 231 q 283 157 358 157 q 221 164 253 157 q 201 136 201 156 q 216 111 201 121 q 265 92 231 101 l 382 61 m 283 590 q 199 546 229 590 q 169 429 169 501 q 199 310 169 356 q 283 265 229 265 q 367 310 336 265 q 397 429 397 356 q 367 545 397 500 q 283 590 336 590 m 310 -236 q 423 -214 381 -236 q 465 -149 465 -192 q 440 -92 465 -112 q 350 -54 415 -72 l 236 -22 q 150 -137 150 -76 q 193 -211 150 -186 q 310 -236 236 -236 m 174 908 l 174 1004 l 325 908 l 476 1004 l 476 908 l 325 779 l 174 908 z "},"ĝ":{"ha":593,"x_min":29,"x_max":597,"o":"m 382 61 q 547 -15 497 29 q 597 -140 597 -60 q 515 -292 597 -236 q 303 -347 433 -347 q 105 -297 181 -347 q 29 -158 29 -247 q 136 8 29 -60 q 74 103 74 40 q 144 199 74 165 q 65 297 93 236 q 38 431 38 357 q 67 567 38 506 q 153 663 97 628 q 283 699 208 699 q 435 649 372 699 q 550 699 489 699 q 585 696 568 699 l 572 594 q 544 597 558 597 q 489 586 519 597 q 529 431 529 518 q 499 293 529 356 q 414 194 469 231 q 283 157 358 157 q 221 164 253 157 q 201 136 201 156 q 216 111 201 121 q 265 92 231 101 l 382 61 m 283 590 q 199 546 229 590 q 169 429 169 501 q 199 310 169 356 q 283 265 229 265 q 367 310 336 265 q 397 429 397 356 q 367 545 397 500 q 283 590 336 590 m 310 -236 q 423 -214 381 -236 q 465 -149 465 -192 q 440 -92 465 -112 q 350 -54 415 -72 l 236 -22 q 150 -137 150 -76 q 193 -211 150 -186 q 310 -236 236 -236 m 174 879 l 325 1007 l 476 879 l 476 783 l 325 878 l 174 783 l 174 879 z "},"ģ":{"ha":593,"x_min":29,"x_max":597,"o":"m 382 61 q 547 -15 497 29 q 597 -140 597 -60 q 515 -292 597 -236 q 303 -347 433 -347 q 105 -297 181 -347 q 29 -158 29 -247 q 136 8 29 -60 q 74 103 74 40 q 144 199 74 165 q 65 297 93 236 q 38 431 38 357 q 67 567 38 506 q 153 663 97 628 q 283 699 208 699 q 435 649 372 699 q 550 699 489 699 q 585 696 568 699 l 572 594 q 544 597 558 597 q 489 586 519 597 q 529 431 529 518 q 499 293 529 356 q 414 194 469 231 q 283 157 358 157 q 221 164 253 157 q 201 136 201 156 q 216 111 201 121 q 265 92 231 101 l 382 61 m 283 590 q 199 546 229 590 q 169 429 169 501 q 199 310 169 356 q 283 265 229 265 q 367 310 336 265 q 397 429 397 356 q 367 545 397 500 q 283 590 336 590 m 310 -236 q 423 -214 381 -236 q 465 -149 465 -192 q 440 -92 465 -112 q 350 -54 415 -72 l 236 -22 q 150 -137 150 -76 q 193 -211 150 -186 q 310 -236 236 -236 m 401 1083 l 347 933 l 393 933 l 393 807 l 260 807 l 260 918 l 339 1083 l 401 1083 z "},"ġ":{"ha":593,"x_min":29,"x_max":597,"o":"m 382 61 q 547 -15 497 29 q 597 -140 597 -60 q 515 -292 597 -236 q 303 -347 433 -347 q 105 -297 181 -347 q 29 -158 29 -247 q 136 8 29 -60 q 74 103 74 40 q 144 199 74 165 q 65 297 93 236 q 38 431 38 357 q 67 567 38 506 q 153 663 97 628 q 283 699 208 699 q 435 649 372 699 q 550 699 489 699 q 585 696 568 699 l 572 594 q 544 597 558 597 q 489 586 519 597 q 529 431 529 518 q 499 293 529 356 q 414 194 469 231 q 283 157 358 157 q 221 164 253 157 q 201 136 201 156 q 216 111 201 121 q 265 92 231 101 l 382 61 m 283 590 q 199 546 229 590 q 169 429 169 501 q 199 310 169 356 q 283 265 229 265 q 367 310 336 265 q 397 429 397 356 q 367 545 397 500 q 283 590 336 590 m 310 -236 q 423 -214 381 -236 q 465 -149 465 -192 q 440 -92 465 -112 q 350 -54 415 -72 l 236 -22 q 150 -137 150 -76 q 193 -211 150 -186 q 310 -236 236 -236 m 261 957 l 389 957 l 389 828 l 261 828 l 261 957 z "},"ḡ":{"ha":593,"x_min":29,"x_max":597,"o":"m 382 61 q 547 -15 497 29 q 597 -140 597 -60 q 515 -292 597 -236 q 303 -347 433 -347 q 105 -297 181 -347 q 29 -158 29 -247 q 136 8 29 -60 q 74 103 74 40 q 144 199 74 165 q 65 297 93 236 q 38 431 38 357 q 67 567 38 506 q 153 663 97 628 q 283 699 208 699 q 435 649 372 699 q 550 699 489 699 q 585 696 568 699 l 572 594 q 544 597 558 597 q 489 586 519 597 q 529 431 529 518 q 499 293 529 356 q 414 194 469 231 q 283 157 358 157 q 221 164 253 157 q 201 136 201 156 q 216 111 201 121 q 265 92 231 101 l 382 61 m 283 590 q 199 546 229 590 q 169 429 169 501 q 199 310 169 356 q 283 265 229 265 q 367 310 336 265 q 397 429 397 356 q 367 545 397 500 q 283 590 336 590 m 310 -236 q 423 -214 381 -236 q 465 -149 465 -192 q 440 -92 465 -112 q 350 -54 415 -72 l 236 -22 q 150 -137 150 -76 q 193 -211 150 -186 q 310 -236 236 -236 m 128 928 l 522 928 l 522 828 l 128 828 l 128 928 z "},"h":{"ha":660,"x_min":71,"x_max":596,"o":"m 379 699 q 540 622 485 699 q 596 417 596 546 l 596 0 l 454 0 l 454 399 q 427 533 454 489 q 343 578 400 578 q 213 497 261 578 l 213 0 l 71 0 l 71 1042 l 213 1042 l 213 631 q 379 699 276 699 z "},"ħ":{"ha":675,"x_min":1,"x_max":613,"o":"m 396 699 q 557 622 501 699 q 613 417 613 546 l 613 0 l 471 0 l 471 399 q 444 533 471 489 q 360 578 417 578 q 229 497 278 578 l 229 0 l 88 0 l 88 815 l 1 815 l 1 921 l 88 921 l 88 1042 l 229 1042 l 229 921 l 424 921 l 424 815 l 229 815 l 229 631 q 396 699 293 699 z "},"ḫ":{"ha":660,"x_min":71,"x_max":596,"o":"m 379 699 q 540 622 485 699 q 596 417 596 546 l 596 0 l 454 0 l 454 399 q 427 533 454 489 q 343 578 400 578 q 213 497 261 578 l 213 0 l 71 0 l 71 1042 l 213 1042 l 213 631 q 379 699 276 699 m 333 -310 q 193 -260 243 -310 q 143 -136 143 -210 l 253 -136 q 273 -194 253 -174 q 333 -215 293 -215 q 394 -194 374 -215 q 414 -136 414 -174 l 524 -136 q 474 -260 524 -210 q 333 -310 424 -310 z "},"ĥ":{"ha":660,"x_min":-24,"x_max":596,"o":"m 379 699 q 540 622 485 699 q 596 417 596 546 l 596 0 l 454 0 l 454 399 q 427 533 454 489 q 343 578 400 578 q 213 497 261 578 l 213 0 l 71 0 l 71 1042 l 213 1042 l 213 631 q 379 699 276 699 m 307 1206 l 307 1113 l 142 1201 l -24 1113 l -24 1206 l 142 1322 l 307 1206 z "},"ḥ":{"ha":660,"x_min":71,"x_max":596,"o":"m 379 699 q 540 622 485 699 q 596 417 596 546 l 596 0 l 454 0 l 454 399 q 427 533 454 489 q 343 578 400 578 q 213 497 261 578 l 213 0 l 71 0 l 71 1042 l 213 1042 l 213 631 q 379 699 276 699 m 269 -112 l 397 -112 l 397 -242 l 269 -242 l 269 -112 z "},"i":{"ha":286,"x_min":72,"x_max":214,"o":"m 72 972 l 214 972 l 214 819 l 72 819 l 72 972 m 72 686 l 214 686 l 214 0 l 72 0 l 72 686 z "},"ı":{"ha":286,"x_min":72,"x_max":214,"o":"m 72 686 l 214 686 l 214 0 l 72 0 l 72 686 z "},"í":{"ha":286,"x_min":39,"x_max":249,"o":"m 72 686 l 214 686 l 214 0 l 72 0 l 72 686 m 39 903 l 249 1035 l 249 889 l 39 807 l 39 903 z "},"ĭ":{"ha":286,"x_min":-47,"x_max":333,"o":"m 72 686 l 214 686 l 214 0 l 72 0 l 72 686 m 143 807 q 3 857 53 807 q -47 981 -47 907 l 63 981 q 83 922 63 943 q 143 901 103 901 q 203 922 183 901 q 224 981 224 943 l 333 981 q 283 857 333 907 q 143 807 233 807 z "},"î":{"ha":286,"x_min":-8,"x_max":294,"o":"m 72 686 l 214 686 l 214 0 l 72 0 l 72 686 m -8 879 l 143 1007 l 294 879 l 294 783 l 143 878 l -8 783 l -8 879 z "},"ȉ":{"ha":286,"x_min":-117,"x_max":297,"o":"m 72 686 l 214 686 l 214 0 l 72 0 l 72 686 m 11 808 l -117 1046 l 25 1046 l 107 808 l 11 808 m 207 808 l 88 1046 l 224 1046 l 297 808 l 207 808 z "},"ï":{"ha":286,"x_min":-28,"x_max":314,"o":"m 72 686 l 214 686 l 214 0 l 72 0 l 72 686 m -28 938 l 92 938 l 92 821 l -28 821 l -28 938 m 194 938 l 314 938 l 314 821 l 194 821 l 194 938 z "},"ḯ":{"ha":286,"x_min":-28,"x_max":314,"o":"m 72 686 l 214 686 l 214 0 l 72 0 l 72 686 m -28 921 l 93 921 l 93 811 l -28 811 l -28 921 m 193 921 l 314 921 l 314 811 l 193 811 l 193 921 m 39 1076 l 249 1188 l 249 1053 l 39 989 l 39 1076 z "},"ị":{"ha":286,"x_min":72,"x_max":214,"o":"m 72 972 l 214 972 l 214 819 l 72 819 l 72 972 m 72 686 l 214 686 l 214 0 l 72 0 l 72 686 m 79 -112 l 207 -112 l 207 -242 l 79 -242 l 79 -112 z "},"ì":{"ha":286,"x_min":38,"x_max":247,"o":"m 72 686 l 214 686 l 214 0 l 72 0 l 72 686 m 38 890 l 38 1040 l 247 906 l 247 807 l 38 890 z "},"ỉ":{"ha":286,"x_min":25,"x_max":246,"o":"m 72 686 l 214 686 l 214 0 l 72 0 l 72 686 m 115 783 q 154 832 143 814 q 165 874 165 850 q 153 908 165 896 q 118 919 140 919 q 49 897 90 919 l 25 971 q 125 993 69 993 q 212 963 178 993 q 246 878 246 932 q 226 803 246 835 q 164 735 207 772 l 115 783 z "},"ȋ":{"ha":286,"x_min":-54,"x_max":340,"o":"m 72 686 l 214 686 l 214 0 l 72 0 l 72 686 m 143 976 q 288 928 236 976 q 340 807 340 879 l 228 807 q 206 860 228 840 q 143 879 183 879 q 81 860 103 879 q 58 807 58 840 l -54 807 q -2 928 -54 879 q 143 976 50 976 z "},"ĳ":{"ha":572,"x_min":72,"x_max":500,"o":"m 72 972 l 214 972 l 214 819 l 72 819 l 72 972 m 72 686 l 214 686 l 214 0 l 72 0 l 72 686 m 360 972 l 500 972 l 500 819 l 360 819 l 360 972 m 285 -221 q 344 -195 329 -218 q 360 -104 360 -172 l 360 686 l 500 686 l 500 -151 q 459 -284 500 -242 q 340 -332 418 -326 l 297 -336 l 285 -221 z "},"ī":{"ha":286,"x_min":-54,"x_max":340,"o":"m 72 686 l 214 686 l 214 0 l 72 0 l 72 686 m -54 928 l 340 928 l 340 828 l -54 828 l -54 928 z "},"į":{"ha":286,"x_min":36,"x_max":272,"o":"m 72 972 l 214 972 l 214 819 l 72 819 l 72 972 m 72 686 l 214 686 l 214 0 l 72 0 l 72 686 m 214 0 q 143 -81 167 -46 q 119 -151 119 -115 q 138 -198 119 -182 q 186 -214 156 -214 q 250 -200 215 -214 l 272 -269 q 172 -290 228 -290 q 74 -260 113 -290 q 36 -174 36 -229 q 63 -85 36 -125 q 135 0 89 -44 l 214 0 z "},"ĩ":{"ha":286,"x_min":-62,"x_max":349,"o":"m 72 686 l 214 686 l 214 0 l 72 0 l 72 686 m 240 804 q 192 814 214 804 q 143 842 169 824 q 110 862 124 856 q 81 868 96 868 q 53 853 63 868 q 43 815 43 839 l -62 815 q 46 975 -56 975 q 94 966 72 975 q 143 939 115 957 q 176 919 163 925 q 206 913 190 913 q 233 926 224 913 q 243 964 243 940 l 349 964 q 318 845 346 886 q 240 804 290 804 z "},"j":{"ha":286,"x_min":-1,"x_max":214,"o":"m 74 972 l 214 972 l 214 819 l 74 819 l 74 972 m -1 -221 q 58 -195 43 -218 q 74 -104 74 -172 l 74 686 l 214 686 l 214 -151 q 173 -284 214 -242 q 54 -332 132 -326 l 11 -336 l -1 -221 z "},"ȷ":{"ha":286,"x_min":-1,"x_max":214,"o":"m -1 -221 q 58 -195 43 -218 q 74 -104 74 -172 l 74 686 l 214 686 l 214 -151 q 173 -284 214 -242 q 54 -332 132 -326 l 11 -336 l -1 -221 z "},"ĵ":{"ha":286,"x_min":-8,"x_max":294,"o":"m -1 -221 q 58 -195 43 -218 q 74 -104 74 -172 l 74 686 l 214 686 l 214 -151 q 173 -284 214 -242 q 54 -332 132 -326 l 11 -336 l -1 -221 m -8 879 l 143 1007 l 294 879 l 294 783 l 143 878 l -8 783 l -8 879 z "},"k":{"ha":583,"x_min":72,"x_max":572,"o":"m 72 1042 l 214 1042 l 214 392 l 404 686 l 568 686 l 351 367 l 572 0 l 408 0 l 214 333 l 214 0 l 72 0 l 72 1042 z "},"ķ":{"ha":583,"x_min":72,"x_max":572,"o":"m 72 1042 l 214 1042 l 214 392 l 404 686 l 568 686 l 351 367 l 572 0 l 408 0 l 214 333 l 214 0 l 72 0 l 72 1042 m 236 -403 l 290 -253 l 244 -253 l 244 -126 l 378 -126 l 378 -237 l 299 -403 l 236 -403 z "},"ĸ":{"ha":644,"x_min":69,"x_max":638,"o":"m 69 686 l 211 686 l 211 382 l 460 686 l 633 686 l 350 353 l 638 0 l 464 0 l 211 322 l 211 0 l 69 0 l 69 686 z "},"l":{"ha":317,"x_min":71,"x_max":289,"o":"m 224 -14 q 109 34 147 -14 q 71 158 71 82 l 71 1042 l 213 1042 l 213 224 q 218 148 213 172 q 240 114 224 124 q 289 104 256 104 l 275 -14 l 224 -14 z "},"ĺ":{"ha":317,"x_min":38,"x_max":289,"o":"m 224 -14 q 109 34 147 -14 q 71 158 71 82 l 71 1042 l 213 1042 l 213 224 q 218 148 213 172 q 240 114 224 124 q 289 104 256 104 l 275 -14 l 224 -14 m 38 1215 l 247 1326 l 247 1192 l 38 1128 l 38 1215 z "},"ľ":{"ha":375,"x_min":71,"x_max":397,"o":"m 224 -14 q 109 34 147 -14 q 71 158 71 82 l 71 1042 l 213 1042 l 213 224 q 218 148 213 172 q 240 114 224 124 q 289 104 256 104 l 275 -14 l 224 -14 m 268 1042 l 397 1042 l 358 804 l 268 804 l 268 1042 z "},"ļ":{"ha":317,"x_min":71,"x_max":289,"o":"m 224 -14 q 109 34 147 -14 q 71 158 71 82 l 71 1042 l 213 1042 l 213 224 q 218 148 213 172 q 240 114 224 124 q 289 104 256 104 l 275 -14 l 224 -14 m 119 -403 l 174 -253 l 128 -253 l 128 -126 l 261 -126 l 261 -237 l 182 -403 l 119 -403 z "},"ŀ":{"ha":414,"x_min":71,"x_max":415,"o":"m 224 -14 q 109 34 147 -14 q 71 158 71 82 l 71 1042 l 213 1042 l 213 224 q 218 148 213 172 q 240 114 224 124 q 289 104 256 104 l 275 -14 l 224 -14 m 282 647 l 415 647 l 415 506 l 282 506 l 282 647 z "},"ḷ":{"ha":317,"x_min":71,"x_max":289,"o":"m 224 -14 q 109 34 147 -14 q 71 158 71 82 l 71 1042 l 213 1042 l 213 224 q 218 148 213 172 q 240 114 224 124 q 289 104 256 104 l 275 -14 l 224 -14 m 131 -112 l 258 -112 l 258 -242 l 131 -242 l 131 -112 z "},"ǉ":{"ha":603,"x_min":71,"x_max":531,"o":"m 224 -14 q 109 34 147 -14 q 71 158 71 82 l 71 1042 l 213 1042 l 213 224 q 218 148 213 172 q 240 114 224 124 q 289 104 256 104 l 275 -14 l 224 -14 m 390 972 l 531 972 l 531 819 l 390 819 l 390 972 m 315 -221 q 375 -195 360 -218 q 390 -104 390 -172 l 390 686 l 531 686 l 531 -151 q 490 -284 531 -242 q 371 -332 449 -326 l 328 -336 l 315 -221 z "},"ḻ":{"ha":317,"x_min":-3,"x_max":392,"o":"m 224 -14 q 109 34 147 -14 q 71 158 71 82 l 71 1042 l 213 1042 l 213 224 q 218 148 213 172 q 240 114 224 124 q 289 104 256 104 l 275 -14 l 224 -14 m -3 -129 l 392 -129 l 392 -229 l -3 -229 l -3 -129 z "},"ł":{"ha":313,"x_min":-29,"x_max":293,"o":"m 196 601 l 196 224 q 201 148 196 172 q 223 114 207 124 q 272 104 239 104 l 258 -14 l 207 -14 q 92 34 131 -14 q 54 158 54 82 l 54 563 l -29 540 l -29 646 l 54 668 l 54 1042 l 196 1042 l 196 707 l 293 733 l 293 628 l 196 601 z "},"m":{"ha":1036,"x_min":69,"x_max":974,"o":"m 747 699 q 919 624 864 699 q 974 417 974 549 l 974 0 l 833 0 l 833 399 q 807 534 833 490 q 718 578 781 578 q 624 536 657 578 q 592 417 592 494 l 592 0 l 451 0 l 451 399 q 424 533 451 489 q 342 578 397 578 q 211 497 260 578 l 211 0 l 69 0 l 69 686 l 188 686 l 196 614 q 272 676 226 654 q 374 699 318 699 q 478 672 433 699 q 549 596 522 644 q 628 672 578 644 q 747 699 679 699 z "},"ṃ":{"ha":1036,"x_min":69,"x_max":974,"o":"m 747 699 q 919 624 864 699 q 974 417 974 549 l 974 0 l 833 0 l 833 399 q 807 534 833 490 q 718 578 781 578 q 624 536 657 578 q 592 417 592 494 l 592 0 l 451 0 l 451 399 q 424 533 451 489 q 342 578 397 578 q 211 497 260 578 l 211 0 l 69 0 l 69 686 l 188 686 l 196 614 q 272 676 226 654 q 374 699 318 699 q 478 672 433 699 q 549 596 522 644 q 628 672 578 644 q 747 699 679 699 m 458 -112 l 586 -112 l 586 -242 l 458 -242 l 458 -112 z "},"n":{"ha":657,"x_min":69,"x_max":594,"o":"m 378 699 q 538 622 482 699 q 594 417 594 546 l 594 0 l 453 0 l 453 399 q 426 534 453 489 q 342 579 399 579 q 211 499 260 579 l 211 0 l 69 0 l 69 686 l 190 686 l 197 615 q 274 676 228 654 q 378 699 321 699 z "},"ń":{"ha":657,"x_min":69,"x_max":594,"o":"m 378 699 q 538 622 482 699 q 594 417 594 546 l 594 0 l 453 0 l 453 399 q 426 534 453 489 q 342 579 399 579 q 211 499 260 579 l 211 0 l 69 0 l 69 686 l 190 686 l 197 615 q 274 676 228 654 q 378 699 321 699 m 233 897 l 443 1029 l 443 883 l 233 801 l 233 897 z "},"ŉ":{"ha":861,"x_min":76,"x_max":799,"o":"m 76 696 l 131 846 l 85 846 l 85 972 l 218 972 l 218 861 l 139 696 l 76 696 m 582 699 q 742 622 686 699 q 799 417 799 546 l 799 0 l 657 0 l 657 399 q 630 534 657 489 q 546 579 603 579 q 415 499 464 579 l 415 0 l 274 0 l 274 686 l 394 686 l 401 615 q 478 676 432 654 q 582 699 525 699 z "},"ň":{"ha":657,"x_min":69,"x_max":594,"o":"m 378 699 q 538 622 482 699 q 594 417 594 546 l 594 0 l 453 0 l 453 399 q 426 534 453 489 q 342 579 399 579 q 211 499 260 579 l 211 0 l 69 0 l 69 686 l 190 686 l 197 615 q 274 676 228 654 q 378 699 321 699 m 186 903 l 186 999 l 338 903 l 489 999 l 489 903 l 338 774 l 186 903 z "},"ņ":{"ha":657,"x_min":69,"x_max":594,"o":"m 378 699 q 538 622 482 699 q 594 417 594 546 l 594 0 l 453 0 l 453 399 q 426 534 453 489 q 342 579 399 579 q 211 499 260 579 l 211 0 l 69 0 l 69 686 l 190 686 l 197 615 q 274 676 228 654 q 378 699 321 699 m 256 -403 l 310 -253 l 264 -253 l 264 -126 l 397 -126 l 397 -237 l 318 -403 l 256 -403 z "},"ṅ":{"ha":657,"x_min":69,"x_max":594,"o":"m 378 699 q 538 622 482 699 q 594 417 594 546 l 594 0 l 453 0 l 453 399 q 426 534 453 489 q 342 579 399 579 q 211 499 260 579 l 211 0 l 69 0 l 69 686 l 190 686 l 197 615 q 274 676 228 654 q 378 699 321 699 m 274 951 l 401 951 l 401 822 l 274 822 l 274 951 z "},"ṇ":{"ha":657,"x_min":69,"x_max":594,"o":"m 378 699 q 538 622 482 699 q 594 417 594 546 l 594 0 l 453 0 l 453 399 q 426 534 453 489 q 342 579 399 579 q 211 499 260 579 l 211 0 l 69 0 l 69 686 l 190 686 l 197 615 q 274 676 228 654 q 378 699 321 699 m 267 -112 l 394 -112 l 394 -242 l 267 -242 l 267 -112 z "},"ŋ":{"ha":671,"x_min":69,"x_max":608,"o":"m 608 22 q 538 -179 608 -110 q 350 -249 467 -249 q 288 -244 319 -249 q 238 -233 257 -240 l 256 -117 q 340 -129 297 -129 q 431 -94 397 -129 q 464 10 464 -58 l 464 399 q 436 536 464 493 q 344 579 408 579 q 267 559 301 579 q 211 501 232 539 l 211 0 l 69 0 l 69 686 l 185 686 l 196 622 q 379 699 274 699 q 551 623 494 699 q 608 413 608 547 l 608 22 z "},"ǌ":{"ha":943,"x_min":69,"x_max":871,"o":"m 378 699 q 538 622 482 699 q 594 417 594 546 l 594 0 l 453 0 l 453 399 q 426 534 453 489 q 342 579 399 579 q 211 499 260 579 l 211 0 l 69 0 l 69 686 l 190 686 l 197 615 q 274 676 228 654 q 378 699 321 699 m 731 972 l 871 972 l 871 819 l 731 819 l 731 972 m 656 -221 q 715 -195 700 -218 q 731 -104 731 -172 l 731 686 l 871 686 l 871 -151 q 830 -284 871 -242 q 711 -332 789 -326 l 668 -336 l 656 -221 z "},"ṉ":{"ha":657,"x_min":69,"x_max":594,"o":"m 378 699 q 538 622 482 699 q 594 417 594 546 l 594 0 l 453 0 l 453 399 q 426 534 453 489 q 342 579 399 579 q 211 499 260 579 l 211 0 l 69 0 l 69 686 l 190 686 l 197 615 q 274 676 228 654 q 378 699 321 699 m 133 -129 l 528 -129 l 528 -229 l 133 -229 l 133 -129 z "},"ñ":{"ha":657,"x_min":69,"x_max":594,"o":"m 378 699 q 538 622 482 699 q 594 417 594 546 l 594 0 l 453 0 l 453 399 q 426 534 453 489 q 342 579 399 579 q 211 499 260 579 l 211 0 l 69 0 l 69 686 l 190 686 l 197 615 q 274 676 228 654 q 378 699 321 699 m 435 799 q 386 808 408 799 q 338 836 364 818 q 304 856 318 850 q 275 863 290 863 q 247 848 257 863 q 238 810 238 833 l 132 810 q 240 969 139 969 q 288 960 267 969 q 338 933 310 951 q 371 913 357 919 q 400 907 385 907 q 428 921 418 907 q 438 958 438 935 l 543 958 q 513 840 540 881 q 435 799 485 799 z "},"o":{"ha":668,"x_min":33,"x_max":635,"o":"m 333 -14 q 174 34 242 -14 q 69 163 106 82 q 33 343 33 244 q 69 523 33 442 q 173 651 106 604 q 333 699 240 699 q 494 651 426 699 q 599 523 563 604 q 635 343 635 442 q 599 163 635 244 q 494 34 563 82 q 333 -14 426 -14 m 333 106 q 449 169 408 106 q 490 343 490 233 q 449 516 490 453 q 333 579 407 579 q 219 516 260 579 q 178 343 178 453 q 219 169 178 233 q 333 106 260 106 z "},"ó":{"ha":668,"x_min":33,"x_max":635,"o":"m 333 -14 q 174 34 242 -14 q 69 163 106 82 q 33 343 33 244 q 69 523 33 442 q 173 651 106 604 q 333 699 240 699 q 494 651 426 699 q 599 523 563 604 q 635 343 635 442 q 599 163 635 244 q 494 34 563 82 q 333 -14 426 -14 m 333 106 q 449 169 408 106 q 490 343 490 233 q 449 516 490 453 q 333 579 407 579 q 219 516 260 579 q 178 343 178 453 q 219 169 178 233 q 333 106 260 106 m 231 903 l 440 1035 l 440 889 l 231 807 l 231 903 z "},"ŏ":{"ha":668,"x_min":33,"x_max":635,"o":"m 333 -14 q 174 34 242 -14 q 69 163 106 82 q 33 343 33 244 q 69 523 33 442 q 173 651 106 604 q 333 699 240 699 q 494 651 426 699 q 599 523 563 604 q 635 343 635 442 q 599 163 635 244 q 494 34 563 82 q 333 -14 426 -14 m 333 106 q 449 169 408 106 q 490 343 490 233 q 449 516 490 453 q 333 579 407 579 q 219 516 260 579 q 178 343 178 453 q 219 169 178 233 q 333 106 260 106 m 335 807 q 194 857 244 807 q 144 981 144 907 l 254 981 q 274 922 254 943 q 335 901 294 901 q 395 922 375 901 q 415 981 415 943 l 525 981 q 475 857 525 907 q 335 807 425 807 z "},"ô":{"ha":668,"x_min":33,"x_max":635,"o":"m 333 -14 q 174 34 242 -14 q 69 163 106 82 q 33 343 33 244 q 69 523 33 442 q 173 651 106 604 q 333 699 240 699 q 494 651 426 699 q 599 523 563 604 q 635 343 635 442 q 599 163 635 244 q 494 34 563 82 q 333 -14 426 -14 m 333 106 q 449 169 408 106 q 490 343 490 233 q 449 516 490 453 q 333 579 407 579 q 219 516 260 579 q 178 343 178 453 q 219 169 178 233 q 333 106 260 106 m 183 879 l 335 1007 l 486 879 l 486 783 l 335 878 l 183 783 l 183 879 z "},"ố":{"ha":668,"x_min":33,"x_max":651,"o":"m 333 -14 q 174 34 242 -14 q 69 163 106 82 q 33 343 33 244 q 69 523 33 442 q 173 651 106 604 q 333 699 240 699 q 494 651 426 699 q 599 523 563 604 q 635 343 635 442 q 599 163 635 244 q 494 34 563 82 q 333 -14 426 -14 m 333 106 q 449 169 408 106 q 490 343 490 233 q 449 516 490 453 q 333 579 407 579 q 219 516 260 579 q 178 343 178 453 q 219 169 178 233 q 333 106 260 106 m 511 1125 l 651 1125 l 526 957 l 433 957 l 511 1125 m 500 854 l 500 761 l 335 850 l 169 761 l 169 854 l 335 971 l 500 854 z "},"ộ":{"ha":668,"x_min":33,"x_max":635,"o":"m 333 -14 q 174 34 242 -14 q 69 163 106 82 q 33 343 33 244 q 69 523 33 442 q 173 651 106 604 q 333 699 240 699 q 494 651 426 699 q 599 523 563 604 q 635 343 635 442 q 599 163 635 244 q 494 34 563 82 q 333 -14 426 -14 m 333 106 q 449 169 408 106 q 490 343 490 233 q 449 516 490 453 q 333 579 407 579 q 219 516 260 579 q 178 343 178 453 q 219 169 178 233 q 333 106 260 106 m 183 879 l 335 1007 l 486 879 l 486 783 l 335 878 l 183 783 l 183 879 m 271 -112 l 399 -112 l 399 -242 l 271 -242 l 271 -112 z "},"ồ":{"ha":668,"x_min":33,"x_max":635,"o":"m 333 -14 q 174 34 242 -14 q 69 163 106 82 q 33 343 33 244 q 69 523 33 442 q 173 651 106 604 q 333 699 240 699 q 494 651 426 699 q 599 523 563 604 q 635 343 635 442 q 599 163 635 244 q 494 34 563 82 q 333 -14 426 -14 m 333 106 q 449 169 408 106 q 490 343 490 233 q 449 516 490 453 q 333 579 407 579 q 219 516 260 579 q 178 343 178 453 q 219 169 178 233 q 333 106 260 106 m 464 957 l 360 1125 l 493 1125 l 554 957 l 464 957 m 500 854 l 500 761 l 335 850 l 169 761 l 169 854 l 335 971 l 500 854 z "},"ổ":{"ha":668,"x_min":33,"x_max":635,"o":"m 333 -14 q 174 34 242 -14 q 69 163 106 82 q 33 343 33 244 q 69 523 33 442 q 173 651 106 604 q 333 699 240 699 q 494 651 426 699 q 599 523 563 604 q 635 343 635 442 q 599 163 635 244 q 494 34 563 82 q 333 -14 426 -14 m 333 106 q 449 169 408 106 q 490 343 490 233 q 449 516 490 453 q 333 579 407 579 q 219 516 260 579 q 178 343 178 453 q 219 169 178 233 q 333 106 260 106 m 500 849 l 500 756 l 335 844 l 169 756 l 169 849 l 335 965 l 500 849 m 454 979 q 483 999 474 988 q 493 1031 493 1011 q 481 1062 493 1051 q 446 1072 468 1072 q 378 1053 417 1072 l 354 1129 q 454 1149 400 1149 q 543 1121 508 1149 q 578 1043 578 1093 q 552 970 578 999 q 474 922 526 942 l 454 979 z "},"ỗ":{"ha":668,"x_min":33,"x_max":635,"o":"m 333 -14 q 174 34 242 -14 q 69 163 106 82 q 33 343 33 244 q 69 523 33 442 q 173 651 106 604 q 333 699 240 699 q 494 651 426 699 q 599 523 563 604 q 635 343 635 442 q 599 163 635 244 q 494 34 563 82 q 333 -14 426 -14 m 333 106 q 449 169 408 106 q 490 343 490 233 q 449 516 490 453 q 333 579 407 579 q 219 516 260 579 q 178 343 178 453 q 219 169 178 233 q 333 106 260 106 m 500 849 l 500 756 l 335 844 l 169 756 l 169 849 l 335 965 l 500 849 m 438 1019 q 392 1027 414 1019 q 339 1049 371 1035 q 301 1065 319 1058 q 268 1072 282 1072 q 226 1026 226 1072 l 131 1026 q 156 1133 131 1096 q 232 1169 182 1169 q 278 1161 256 1169 q 331 1139 301 1153 q 369 1122 350 1129 q 401 1115 388 1115 q 443 1161 443 1115 l 539 1161 q 513 1056 539 1092 q 438 1019 488 1019 z "},"ȍ":{"ha":668,"x_min":33,"x_max":635,"o":"m 333 -14 q 174 34 242 -14 q 69 163 106 82 q 33 343 33 244 q 69 523 33 442 q 173 651 106 604 q 333 699 240 699 q 494 651 426 699 q 599 523 563 604 q 635 343 635 442 q 599 163 635 244 q 494 34 563 82 q 333 -14 426 -14 m 333 106 q 449 169 408 106 q 490 343 490 233 q 449 516 490 453 q 333 579 407 579 q 219 516 260 579 q 178 343 178 453 q 219 169 178 233 q 333 106 260 106 m 203 808 l 75 1046 l 217 1046 l 299 808 l 203 808 m 399 808 l 279 1046 l 415 1046 l 489 808 l 399 808 z "},"ö":{"ha":668,"x_min":33,"x_max":635,"o":"m 333 -14 q 174 34 242 -14 q 69 163 106 82 q 33 343 33 244 q 69 523 33 442 q 173 651 106 604 q 333 699 240 699 q 494 651 426 699 q 599 523 563 604 q 635 343 635 442 q 599 163 635 244 q 494 34 563 82 q 333 -14 426 -14 m 333 106 q 449 169 408 106 q 490 343 490 233 q 449 516 490 453 q 333 579 407 579 q 219 516 260 579 q 178 343 178 453 q 219 169 178 233 q 333 106 260 106 m 164 938 l 283 938 l 283 821 l 164 821 l 164 938 m 386 938 l 506 938 l 506 821 l 386 821 l 386 938 z "},"ȫ":{"ha":668,"x_min":33,"x_max":635,"o":"m 333 -14 q 174 34 242 -14 q 69 163 106 82 q 33 343 33 244 q 69 523 33 442 q 173 651 106 604 q 333 699 240 699 q 494 651 426 699 q 599 523 563 604 q 635 343 635 442 q 599 163 635 244 q 494 34 563 82 q 333 -14 426 -14 m 333 106 q 449 169 408 106 q 490 343 490 233 q 449 516 490 453 q 333 579 407 579 q 219 516 260 579 q 178 343 178 453 q 219 169 178 233 q 333 106 260 106 m 164 921 l 285 921 l 285 811 l 164 811 l 164 921 m 385 921 l 506 921 l 506 811 l 385 811 l 385 921 m 124 1128 l 546 1128 l 546 1032 l 124 1032 l 124 1128 z "},"ȱ":{"ha":668,"x_min":33,"x_max":635,"o":"m 333 -14 q 174 34 242 -14 q 69 163 106 82 q 33 343 33 244 q 69 523 33 442 q 173 651 106 604 q 333 699 240 699 q 494 651 426 699 q 599 523 563 604 q 635 343 635 442 q 599 163 635 244 q 494 34 563 82 q 333 -14 426 -14 m 333 106 q 449 169 408 106 q 490 343 490 233 q 449 516 490 453 q 333 579 407 579 q 219 516 260 579 q 178 343 178 453 q 219 169 178 233 q 333 106 260 106 m 268 943 l 401 943 l 401 814 l 268 814 l 268 943 m 124 1150 l 546 1150 l 546 1054 l 124 1054 l 124 1150 z "},"ọ":{"ha":668,"x_min":33,"x_max":635,"o":"m 333 -14 q 174 34 242 -14 q 69 163 106 82 q 33 343 33 244 q 69 523 33 442 q 173 651 106 604 q 333 699 240 699 q 494 651 426 699 q 599 523 563 604 q 635 343 635 442 q 599 163 635 244 q 494 34 563 82 q 333 -14 426 -14 m 333 106 q 449 169 408 106 q 490 343 490 233 q 449 516 490 453 q 333 579 407 579 q 219 516 260 579 q 178 343 178 453 q 219 169 178 233 q 333 106 260 106 m 271 -112 l 399 -112 l 399 -242 l 271 -242 l 271 -112 z "},"ò":{"ha":668,"x_min":33,"x_max":635,"o":"m 333 -14 q 174 34 242 -14 q 69 163 106 82 q 33 343 33 244 q 69 523 33 442 q 173 651 106 604 q 333 699 240 699 q 494 651 426 699 q 599 523 563 604 q 635 343 635 442 q 599 163 635 244 q 494 34 563 82 q 333 -14 426 -14 m 333 106 q 449 169 408 106 q 490 343 490 233 q 449 516 490 453 q 333 579 407 579 q 219 516 260 579 q 178 343 178 453 q 219 169 178 233 q 333 106 260 106 m 229 890 l 229 1040 l 439 906 l 439 807 l 229 890 z "},"ỏ":{"ha":668,"x_min":33,"x_max":635,"o":"m 333 -14 q 174 34 242 -14 q 69 163 106 82 q 33 343 33 244 q 69 523 33 442 q 173 651 106 604 q 333 699 240 699 q 494 651 426 699 q 599 523 563 604 q 635 343 635 442 q 599 163 635 244 q 494 34 563 82 q 333 -14 426 -14 m 333 106 q 449 169 408 106 q 490 343 490 233 q 449 516 490 453 q 333 579 407 579 q 219 516 260 579 q 178 343 178 453 q 219 169 178 233 q 333 106 260 106 m 307 783 q 346 832 335 814 q 357 874 357 850 q 344 908 357 896 q 310 919 332 919 q 240 897 282 919 l 217 971 q 317 993 261 993 q 403 963 369 993 q 438 878 438 932 q 418 803 438 835 q 356 735 399 772 l 307 783 z "},"ơ":{"ha":668,"x_min":33,"x_max":635,"o":"m 529 622 q 608 501 581 574 q 635 343 635 429 q 599 163 635 244 q 494 34 563 82 q 333 -14 426 -14 q 174 34 242 -14 q 69 163 106 82 q 33 343 33 244 q 69 523 33 442 q 173 651 106 604 q 333 699 240 699 q 415 688 375 699 q 492 789 492 699 l 617 789 q 594 692 617 733 q 529 622 571 650 m 333 106 q 449 169 408 106 q 490 343 490 233 q 449 516 490 453 q 333 579 407 579 q 219 516 260 579 q 178 343 178 453 q 219 169 178 233 q 333 106 260 106 z "},"ớ":{"ha":668,"x_min":33,"x_max":635,"o":"m 529 622 q 608 501 581 574 q 635 343 635 429 q 599 163 635 244 q 494 34 563 82 q 333 -14 426 -14 q 174 34 242 -14 q 69 163 106 82 q 33 343 33 244 q 69 523 33 442 q 173 651 106 604 q 333 699 240 699 q 415 688 375 699 q 492 789 492 699 l 617 789 q 594 692 617 733 q 529 622 571 650 m 333 106 q 449 169 408 106 q 490 343 490 233 q 449 516 490 453 q 333 579 407 579 q 219 516 260 579 q 178 343 178 453 q 219 169 178 233 q 333 106 260 106 m 231 903 l 440 1035 l 440 889 l 231 807 l 231 903 z "},"ợ":{"ha":668,"x_min":33,"x_max":635,"o":"m 529 622 q 608 501 581 574 q 635 343 635 429 q 599 163 635 244 q 494 34 563 82 q 333 -14 426 -14 q 174 34 242 -14 q 69 163 106 82 q 33 343 33 244 q 69 523 33 442 q 173 651 106 604 q 333 699 240 699 q 415 688 375 699 q 492 789 492 699 l 617 789 q 594 692 617 733 q 529 622 571 650 m 333 106 q 449 169 408 106 q 490 343 490 233 q 449 516 490 453 q 333 579 407 579 q 219 516 260 579 q 178 343 178 453 q 219 169 178 233 q 333 106 260 106 m 271 -112 l 399 -112 l 399 -242 l 271 -242 l 271 -112 z "},"ờ":{"ha":668,"x_min":33,"x_max":635,"o":"m 529 622 q 608 501 581 574 q 635 343 635 429 q 599 163 635 244 q 494 34 563 82 q 333 -14 426 -14 q 174 34 242 -14 q 69 163 106 82 q 33 343 33 244 q 69 523 33 442 q 173 651 106 604 q 333 699 240 699 q 415 688 375 699 q 492 789 492 699 l 617 789 q 594 692 617 733 q 529 622 571 650 m 333 106 q 449 169 408 106 q 490 343 490 233 q 449 516 490 453 q 333 579 407 579 q 219 516 260 579 q 178 343 178 453 q 219 169 178 233 q 333 106 260 106 m 229 890 l 229 1040 l 439 906 l 439 807 l 229 890 z "},"ở":{"ha":668,"x_min":33,"x_max":635,"o":"m 529 622 q 608 501 581 574 q 635 343 635 429 q 599 163 635 244 q 494 34 563 82 q 333 -14 426 -14 q 174 34 242 -14 q 69 163 106 82 q 33 343 33 244 q 69 523 33 442 q 173 651 106 604 q 333 699 240 699 q 415 688 375 699 q 492 789 492 699 l 617 789 q 594 692 617 733 q 529 622 571 650 m 333 106 q 449 169 408 106 q 490 343 490 233 q 449 516 490 453 q 333 579 407 579 q 219 516 260 579 q 178 343 178 453 q 219 169 178 233 q 333 106 260 106 m 307 783 q 346 832 335 814 q 357 874 357 850 q 344 908 357 896 q 310 919 332 919 q 240 897 282 919 l 217 971 q 317 993 261 993 q 403 963 369 993 q 438 878 438 932 q 418 803 438 835 q 356 735 399 772 l 307 783 z "},"ỡ":{"ha":668,"x_min":33,"x_max":635,"o":"m 529 622 q 608 501 581 574 q 635 343 635 429 q 599 163 635 244 q 494 34 563 82 q 333 -14 426 -14 q 174 34 242 -14 q 69 163 106 82 q 33 343 33 244 q 69 523 33 442 q 173 651 106 604 q 333 699 240 699 q 415 688 375 699 q 492 789 492 699 l 617 789 q 594 692 617 733 q 529 622 571 650 m 333 106 q 449 169 408 106 q 490 343 490 233 q 449 516 490 453 q 333 579 407 579 q 219 516 260 579 q 178 343 178 453 q 219 169 178 233 q 333 106 260 106 m 432 804 q 383 814 406 804 q 335 842 361 824 q 301 862 315 856 q 272 868 288 868 q 244 853 254 868 q 235 815 235 839 l 129 815 q 238 975 136 975 q 285 966 264 975 q 335 939 307 957 q 368 919 354 925 q 397 913 382 913 q 425 926 415 913 q 435 964 435 940 l 540 964 q 510 845 538 886 q 432 804 482 804 z "},"ő":{"ha":668,"x_min":33,"x_max":635,"o":"m 333 -14 q 174 34 242 -14 q 69 163 106 82 q 33 343 33 244 q 69 523 33 442 q 173 651 106 604 q 333 699 240 699 q 494 651 426 699 q 599 523 563 604 q 635 343 635 442 q 599 163 635 244 q 494 34 563 82 q 333 -14 426 -14 m 333 106 q 449 169 408 106 q 490 343 490 233 q 449 516 490 453 q 333 579 407 579 q 219 516 260 579 q 178 343 178 453 q 219 169 178 233 q 333 106 260 106 m 269 1046 l 410 1046 l 281 808 l 188 808 l 269 1046 m 471 1046 l 611 1046 l 474 808 l 381 808 l 471 1046 z "},"ȏ":{"ha":668,"x_min":33,"x_max":635,"o":"m 333 -14 q 174 34 242 -14 q 69 163 106 82 q 33 343 33 244 q 69 523 33 442 q 173 651 106 604 q 333 699 240 699 q 494 651 426 699 q 599 523 563 604 q 635 343 635 442 q 599 163 635 244 q 494 34 563 82 q 333 -14 426 -14 m 333 106 q 449 169 408 106 q 490 343 490 233 q 449 516 490 453 q 333 579 407 579 q 219 516 260 579 q 178 343 178 453 q 219 169 178 233 q 333 106 260 106 m 335 976 q 480 928 428 976 q 532 807 532 879 l 419 807 q 397 860 419 840 q 335 879 375 879 q 272 860 294 879 q 250 807 250 840 l 138 807 q 190 928 138 879 q 335 976 242 976 z "},"ō":{"ha":668,"x_min":33,"x_max":635,"o":"m 333 -14 q 174 34 242 -14 q 69 163 106 82 q 33 343 33 244 q 69 523 33 442 q 173 651 106 604 q 333 699 240 699 q 494 651 426 699 q 599 523 563 604 q 635 343 635 442 q 599 163 635 244 q 494 34 563 82 q 333 -14 426 -14 m 333 106 q 449 169 408 106 q 490 343 490 233 q 449 516 490 453 q 333 579 407 579 q 219 516 260 579 q 178 343 178 453 q 219 169 178 233 q 333 106 260 106 m 138 928 l 532 928 l 532 828 l 138 828 l 138 928 z "},"ṓ":{"ha":668,"x_min":33,"x_max":635,"o":"m 333 -14 q 174 34 242 -14 q 69 163 106 82 q 33 343 33 244 q 69 523 33 442 q 173 651 106 604 q 333 699 240 699 q 494 651 426 699 q 599 523 563 604 q 635 343 635 442 q 599 163 635 244 q 494 34 563 82 q 333 -14 426 -14 m 333 106 q 449 169 408 106 q 490 343 490 233 q 449 516 490 453 q 333 579 407 579 q 219 516 260 579 q 178 343 178 453 q 219 169 178 233 q 333 106 260 106 m 124 911 l 546 911 l 546 815 l 124 815 l 124 911 m 231 1085 l 440 1196 l 440 1061 l 231 997 l 231 1085 z "},"ṑ":{"ha":668,"x_min":33,"x_max":635,"o":"m 333 -14 q 174 34 242 -14 q 69 163 106 82 q 33 343 33 244 q 69 523 33 442 q 173 651 106 604 q 333 699 240 699 q 494 651 426 699 q 599 523 563 604 q 635 343 635 442 q 599 163 635 244 q 494 34 563 82 q 333 -14 426 -14 m 333 106 q 449 169 408 106 q 490 343 490 233 q 449 516 490 453 q 333 579 407 579 q 219 516 260 579 q 178 343 178 453 q 219 169 178 233 q 333 106 260 106 m 124 911 l 546 911 l 546 815 l 124 815 l 124 911 m 229 1060 l 229 1196 l 439 1085 l 439 997 l 229 1060 z "},"ǫ":{"ha":668,"x_min":33,"x_max":635,"o":"m 394 -8 q 331 -83 353 -49 q 308 -151 308 -118 q 326 -198 308 -182 q 375 -214 344 -214 q 439 -200 404 -214 l 461 -269 q 361 -290 417 -290 q 263 -260 301 -290 q 225 -174 225 -229 q 247 -91 225 -129 q 310 -12 269 -53 q 163 42 225 -7 q 67 169 100 90 q 33 343 33 249 q 69 523 33 442 q 173 651 106 604 q 333 699 240 699 q 494 651 426 699 q 599 523 563 604 q 635 343 635 442 q 571 113 635 210 q 394 -8 507 15 m 178 343 q 219 169 178 233 q 333 106 260 106 q 449 169 408 106 q 490 343 490 233 q 449 516 490 453 q 333 579 407 579 q 219 516 260 579 q 178 343 178 453 z "},"ø":{"ha":668,"x_min":33,"x_max":635,"o":"m 542 611 q 610 493 586 563 q 635 343 635 424 q 599 163 635 244 q 494 34 563 82 q 333 -14 426 -14 q 203 17 261 -14 l 161 -56 l 54 -56 l 128 74 q 58 192 82 122 q 33 343 33 263 q 69 523 33 442 q 173 651 106 604 q 333 699 240 699 q 467 668 406 699 l 506 736 l 613 736 l 542 611 m 178 343 q 201 203 178 261 l 406 560 q 333 579 374 579 q 219 516 260 579 q 178 343 178 453 m 333 106 q 449 169 408 106 q 490 343 490 233 q 467 481 490 425 l 264 125 q 333 106 294 106 z "},"ǿ":{"ha":668,"x_min":33,"x_max":635,"o":"m 542 611 q 610 493 586 563 q 635 343 635 424 q 599 163 635 244 q 494 34 563 82 q 333 -14 426 -14 q 203 17 261 -14 l 161 -56 l 54 -56 l 128 74 q 58 192 82 122 q 33 343 33 263 q 69 523 33 442 q 173 651 106 604 q 333 699 240 699 q 467 668 406 699 l 506 736 l 613 736 l 542 611 m 178 343 q 201 203 178 261 l 406 560 q 333 579 374 579 q 219 516 260 579 q 178 343 178 453 m 333 106 q 449 169 408 106 q 490 343 490 233 q 467 481 490 425 l 264 125 q 333 106 294 106 m 231 903 l 440 1035 l 440 889 l 231 807 l 231 903 z "},"õ":{"ha":668,"x_min":33,"x_max":635,"o":"m 333 -14 q 174 34 242 -14 q 69 163 106 82 q 33 343 33 244 q 69 523 33 442 q 173 651 106 604 q 333 699 240 699 q 494 651 426 699 q 599 523 563 604 q 635 343 635 442 q 599 163 635 244 q 494 34 563 82 q 333 -14 426 -14 m 333 106 q 449 169 408 106 q 490 343 490 233 q 449 516 490 453 q 333 579 407 579 q 219 516 260 579 q 178 343 178 453 q 219 169 178 233 q 333 106 260 106 m 432 804 q 383 814 406 804 q 335 842 361 824 q 301 862 315 856 q 272 868 288 868 q 244 853 254 868 q 235 815 235 839 l 129 815 q 238 975 136 975 q 285 966 264 975 q 335 939 307 957 q 368 919 354 925 q 397 913 382 913 q 425 926 415 913 q 435 964 435 940 l 540 964 q 510 845 538 886 q 432 804 482 804 z "},"ṍ":{"ha":668,"x_min":33,"x_max":635,"o":"m 333 -14 q 174 34 242 -14 q 69 163 106 82 q 33 343 33 244 q 69 523 33 442 q 173 651 106 604 q 333 699 240 699 q 494 651 426 699 q 599 523 563 604 q 635 343 635 442 q 599 163 635 244 q 494 34 563 82 q 333 -14 426 -14 m 333 106 q 449 169 408 106 q 490 343 490 233 q 449 516 490 453 q 333 579 407 579 q 219 516 260 579 q 178 343 178 453 q 219 169 178 233 q 333 106 260 106 m 438 803 q 392 810 414 803 q 339 832 371 818 q 301 849 319 842 q 268 856 282 856 q 226 810 226 856 l 131 810 q 156 916 131 879 q 232 953 182 953 q 278 944 256 953 q 331 922 301 936 q 369 906 350 913 q 401 899 388 899 q 443 944 443 899 l 539 944 q 513 839 539 875 q 438 803 488 803 m 231 1097 l 440 1208 l 440 1074 l 231 1010 l 231 1097 z "},"ṏ":{"ha":668,"x_min":33,"x_max":635,"o":"m 333 -14 q 174 34 242 -14 q 69 163 106 82 q 33 343 33 244 q 69 523 33 442 q 173 651 106 604 q 333 699 240 699 q 494 651 426 699 q 599 523 563 604 q 635 343 635 442 q 599 163 635 244 q 494 34 563 82 q 333 -14 426 -14 m 333 106 q 449 169 408 106 q 490 343 490 233 q 449 516 490 453 q 333 579 407 579 q 219 516 260 579 q 178 343 178 453 q 219 169 178 233 q 333 106 260 106 m 438 803 q 392 810 414 803 q 339 832 371 818 q 301 849 319 842 q 268 856 282 856 q 226 810 226 856 l 131 810 q 156 916 131 879 q 232 953 182 953 q 278 944 256 953 q 331 922 301 936 q 369 906 350 913 q 401 899 388 899 q 443 944 443 899 l 539 944 q 513 839 539 875 q 438 803 488 803 m 164 1158 l 285 1158 l 285 1049 l 164 1049 l 164 1158 m 385 1158 l 506 1158 l 506 1049 l 385 1049 l 385 1158 z "},"ȭ":{"ha":668,"x_min":33,"x_max":635,"o":"m 333 -14 q 174 34 242 -14 q 69 163 106 82 q 33 343 33 244 q 69 523 33 442 q 173 651 106 604 q 333 699 240 699 q 494 651 426 699 q 599 523 563 604 q 635 343 635 442 q 599 163 635 244 q 494 34 563 82 q 333 -14 426 -14 m 333 106 q 449 169 408 106 q 490 343 490 233 q 449 516 490 453 q 333 579 407 579 q 219 516 260 579 q 178 343 178 453 q 219 169 178 233 q 333 106 260 106 m 438 803 q 392 810 414 803 q 339 832 371 818 q 301 849 319 842 q 268 856 282 856 q 226 810 226 856 l 131 810 q 156 916 131 879 q 232 953 182 953 q 278 944 256 953 q 331 922 301 936 q 369 906 350 913 q 401 899 388 899 q 443 944 443 899 l 539 944 q 513 839 539 875 q 438 803 488 803 m 124 1149 l 546 1149 l 546 1053 l 124 1053 l 124 1149 z "},"œ":{"ha":1069,"x_min":33,"x_max":1038,"o":"m 1038 414 q 1029 328 1038 374 l 639 328 q 698 163 649 217 q 828 110 747 110 q 1003 161 917 110 l 1011 43 q 813 -14 922 -14 q 666 20 729 -14 q 563 117 603 54 q 465 20 524 54 q 333 -14 407 -14 q 174 34 242 -14 q 69 163 106 82 q 33 343 33 244 q 69 523 33 442 q 173 651 106 604 q 333 699 240 699 q 465 664 407 699 q 560 568 522 629 q 658 664 597 629 q 794 699 718 699 q 972 623 906 699 q 1038 414 1038 547 m 333 110 q 447 172 407 110 q 488 343 488 235 q 447 513 488 450 q 333 575 407 575 q 219 513 260 575 q 179 343 179 450 q 219 172 179 235 q 333 110 260 110 m 893 426 q 867 531 893 488 q 781 575 840 575 q 687 537 724 575 q 640 426 650 499 l 893 426 z "},"p":{"ha":679,"x_min":71,"x_max":650,"o":"m 381 699 q 525 651 464 699 q 618 523 586 604 q 650 343 650 442 q 619 162 650 243 q 527 33 588 81 q 381 -14 467 -14 q 213 49 278 -14 l 213 -336 l 71 -336 l 71 686 l 182 686 l 197 613 q 381 699 269 699 m 354 106 q 465 169 425 106 q 506 343 506 233 q 465 515 506 451 q 354 579 425 579 q 243 517 286 579 q 200 343 200 454 q 243 168 200 231 q 354 106 286 106 z "},"þ":{"ha":679,"x_min":71,"x_max":650,"o":"m 381 699 q 525 651 464 699 q 618 523 586 604 q 650 343 650 442 q 619 162 650 243 q 527 33 588 81 q 381 -14 467 -14 q 213 49 278 -14 l 213 -336 l 71 -336 l 71 1042 l 213 1042 l 213 629 q 381 699 279 699 m 354 106 q 465 169 425 106 q 506 343 506 233 q 465 515 506 451 q 354 579 425 579 q 243 517 286 579 q 200 343 200 454 q 243 168 200 231 q 354 106 286 106 z "},"q":{"ha":685,"x_min":71,"x_max":650,"o":"m 650 686 l 650 -336 l 508 -336 l 508 40 q 351 -14 446 -14 q 199 33 263 -14 q 103 162 135 81 q 71 343 71 243 q 104 520 71 439 q 201 650 138 601 q 350 699 264 699 q 529 625 460 699 l 542 686 l 650 686 m 368 106 q 481 167 439 106 q 522 343 522 229 q 481 517 522 456 q 368 579 439 579 q 256 515 297 579 q 215 343 215 451 q 256 169 215 233 q 368 106 297 106 z "},"r":{"ha":406,"x_min":72,"x_max":403,"o":"m 72 686 l 192 686 l 206 590 q 286 673 249 647 q 369 699 324 699 q 403 694 389 699 l 390 544 q 347 550 365 550 q 274 530 308 550 q 213 478 239 510 l 213 0 l 72 0 l 72 686 z "},"ŕ":{"ha":406,"x_min":72,"x_max":403,"o":"m 72 686 l 192 686 l 206 590 q 286 673 249 647 q 369 699 324 699 q 403 694 389 699 l 390 544 q 347 550 365 550 q 274 530 308 550 q 213 478 239 510 l 213 0 l 72 0 l 72 686 m 144 903 l 354 1035 l 354 889 l 144 807 l 144 903 z "},"ř":{"ha":406,"x_min":72,"x_max":403,"o":"m 72 686 l 192 686 l 206 590 q 286 673 249 647 q 369 699 324 699 q 403 694 389 699 l 390 544 q 347 550 365 550 q 274 530 308 550 q 213 478 239 510 l 213 0 l 72 0 l 72 686 m 97 908 l 97 1004 l 249 908 l 400 1004 l 400 908 l 249 779 l 97 908 z "},"ŗ":{"ha":406,"x_min":68,"x_max":403,"o":"m 72 686 l 192 686 l 206 590 q 286 673 249 647 q 369 699 324 699 q 403 694 389 699 l 390 544 q 347 550 365 550 q 274 530 308 550 q 213 478 239 510 l 213 0 l 72 0 l 72 686 m 68 -403 l 122 -253 l 76 -253 l 76 -126 l 210 -126 l 210 -237 l 131 -403 l 68 -403 z "},"ȑ":{"ha":406,"x_min":-11,"x_max":403,"o":"m 72 686 l 192 686 l 206 590 q 286 673 249 647 q 369 699 324 699 q 403 694 389 699 l 390 544 q 347 550 365 550 q 274 530 308 550 q 213 478 239 510 l 213 0 l 72 0 l 72 686 m 117 808 l -11 1046 l 131 1046 l 213 808 l 117 808 m 313 808 l 193 1046 l 329 1046 l 403 808 l 313 808 z "},"ṛ":{"ha":406,"x_min":72,"x_max":403,"o":"m 72 686 l 192 686 l 206 590 q 286 673 249 647 q 369 699 324 699 q 403 694 389 699 l 390 544 q 347 550 365 550 q 274 530 308 550 q 213 478 239 510 l 213 0 l 72 0 l 72 686 m 79 -112 l 207 -112 l 207 -242 l 79 -242 l 79 -112 z "},"ȓ":{"ha":406,"x_min":51,"x_max":446,"o":"m 72 686 l 192 686 l 206 590 q 286 673 249 647 q 369 699 324 699 q 403 694 389 699 l 390 544 q 347 550 365 550 q 274 530 308 550 q 213 478 239 510 l 213 0 l 72 0 l 72 686 m 249 976 q 394 928 342 976 q 446 807 446 879 l 333 807 q 311 860 333 840 q 249 879 289 879 q 186 860 208 879 q 164 807 164 840 l 51 807 q 103 928 51 879 q 249 976 156 976 z "},"ṟ":{"ha":406,"x_min":-54,"x_max":403,"o":"m 72 686 l 192 686 l 206 590 q 286 673 249 647 q 369 699 324 699 q 403 694 389 699 l 390 544 q 347 550 365 550 q 274 530 308 550 q 213 478 239 510 l 213 0 l 72 0 l 72 686 m -54 -129 l 340 -129 l 340 -229 l -54 -229 l -54 -129 z "},"s":{"ha":506,"x_min":43,"x_max":478,"o":"m 247 -14 q 138 -1 188 -14 q 43 39 89 13 l 58 172 q 236 103 153 103 q 312 122 285 103 q 339 179 339 142 q 313 241 339 218 q 204 303 286 264 q 87 385 124 340 q 50 506 50 431 q 111 645 50 592 q 275 699 172 699 q 453 651 376 699 l 438 525 q 364 570 399 556 q 285 585 329 585 q 214 565 240 585 q 188 511 188 546 q 213 456 188 476 q 311 400 238 436 q 439 312 400 358 q 478 190 478 265 q 415 40 478 94 q 247 -14 353 -14 z "},"ś":{"ha":506,"x_min":43,"x_max":478,"o":"m 247 -14 q 138 -1 188 -14 q 43 39 89 13 l 58 172 q 236 103 153 103 q 312 122 285 103 q 339 179 339 142 q 313 241 339 218 q 204 303 286 264 q 87 385 124 340 q 50 506 50 431 q 111 645 50 592 q 275 699 172 699 q 453 651 376 699 l 438 525 q 364 570 399 556 q 285 585 329 585 q 214 565 240 585 q 188 511 188 546 q 213 456 188 476 q 311 400 238 436 q 439 312 400 358 q 478 190 478 265 q 415 40 478 94 q 247 -14 353 -14 m 172 903 l 382 1035 l 382 889 l 172 807 l 172 903 z "},"ṥ":{"ha":506,"x_min":43,"x_max":478,"o":"m 247 -14 q 138 -1 188 -14 q 43 39 89 13 l 58 172 q 236 103 153 103 q 312 122 285 103 q 339 179 339 142 q 313 241 339 218 q 204 303 286 264 q 87 385 124 340 q 50 506 50 431 q 111 645 50 592 q 275 699 172 699 q 453 651 376 699 l 438 525 q 364 570 399 556 q 285 585 329 585 q 214 565 240 585 q 188 511 188 546 q 213 456 188 476 q 311 400 238 436 q 439 312 400 358 q 478 190 478 265 q 415 40 478 94 q 247 -14 353 -14 m 172 860 l 382 971 l 382 836 l 172 772 l 172 860 m 210 1169 l 343 1169 l 343 1040 l 210 1040 l 210 1169 z "},"š":{"ha":506,"x_min":43,"x_max":478,"o":"m 247 -14 q 138 -1 188 -14 q 43 39 89 13 l 58 172 q 236 103 153 103 q 312 122 285 103 q 339 179 339 142 q 313 241 339 218 q 204 303 286 264 q 87 385 124 340 q 50 506 50 431 q 111 645 50 592 q 275 699 172 699 q 453 651 376 699 l 438 525 q 364 570 399 556 q 285 585 329 585 q 214 565 240 585 q 188 511 188 546 q 213 456 188 476 q 311 400 238 436 q 439 312 400 358 q 478 190 478 265 q 415 40 478 94 q 247 -14 353 -14 m 125 908 l 125 1004 l 276 908 l 428 1004 l 428 908 l 276 779 l 125 908 z "},"ṧ":{"ha":506,"x_min":43,"x_max":478,"o":"m 247 -14 q 138 -1 188 -14 q 43 39 89 13 l 58 172 q 236 103 153 103 q 312 122 285 103 q 339 179 339 142 q 313 241 339 218 q 204 303 286 264 q 87 385 124 340 q 50 506 50 431 q 111 645 50 592 q 275 699 172 699 q 453 651 376 699 l 438 525 q 364 570 399 556 q 285 585 329 585 q 214 565 240 585 q 188 511 188 546 q 213 456 188 476 q 311 400 238 436 q 439 312 400 358 q 478 190 478 265 q 415 40 478 94 q 247 -14 353 -14 m 111 917 l 111 1010 l 276 921 l 442 1010 l 442 917 l 276 800 l 111 917 m 210 1201 l 343 1201 l 343 1072 l 210 1072 l 210 1201 z "},"ş":{"ha":506,"x_min":43,"x_max":478,"o":"m 478 190 q 428 53 478 106 q 293 -11 379 0 l 272 -76 q 355 -108 325 -78 q 385 -192 385 -139 q 344 -287 385 -253 q 242 -322 304 -322 q 147 -304 189 -322 l 171 -233 q 240 -249 204 -249 q 288 -235 271 -249 q 306 -193 306 -221 q 246 -139 306 -139 q 193 -147 221 -139 l 226 -14 q 43 39 126 -10 l 58 172 q 236 103 153 103 q 312 122 285 103 q 339 179 339 142 q 313 241 339 218 q 204 303 286 264 q 87 385 124 340 q 50 506 50 431 q 111 645 50 592 q 275 699 172 699 q 453 651 376 699 l 438 525 q 364 570 399 556 q 285 585 329 585 q 214 565 240 585 q 188 511 188 546 q 213 456 188 476 q 311 400 238 436 q 439 312 400 358 q 478 190 478 265 z "},"ŝ":{"ha":506,"x_min":43,"x_max":478,"o":"m 247 -14 q 138 -1 188 -14 q 43 39 89 13 l 58 172 q 236 103 153 103 q 312 122 285 103 q 339 179 339 142 q 313 241 339 218 q 204 303 286 264 q 87 385 124 340 q 50 506 50 431 q 111 645 50 592 q 275 699 172 699 q 453 651 376 699 l 438 525 q 364 570 399 556 q 285 585 329 585 q 214 565 240 585 q 188 511 188 546 q 213 456 188 476 q 311 400 238 436 q 439 312 400 358 q 478 190 478 265 q 415 40 478 94 q 247 -14 353 -14 m 125 879 l 276 1007 l 428 879 l 428 783 l 276 878 l 125 783 l 125 879 z "},"ș":{"ha":506,"x_min":43,"x_max":478,"o":"m 247 -14 q 138 -1 188 -14 q 43 39 89 13 l 58 172 q 236 103 153 103 q 312 122 285 103 q 339 179 339 142 q 313 241 339 218 q 204 303 286 264 q 87 385 124 340 q 50 506 50 431 q 111 645 50 592 q 275 699 172 699 q 453 651 376 699 l 438 525 q 364 570 399 556 q 285 585 329 585 q 214 565 240 585 q 188 511 188 546 q 213 456 188 476 q 311 400 238 436 q 439 312 400 358 q 478 190 478 265 q 415 40 478 94 q 247 -14 353 -14 m 174 -403 l 228 -253 l 182 -253 l 182 -126 l 315 -126 l 315 -237 l 236 -403 l 174 -403 z "},"ṡ":{"ha":506,"x_min":43,"x_max":478,"o":"m 247 -14 q 138 -1 188 -14 q 43 39 89 13 l 58 172 q 236 103 153 103 q 312 122 285 103 q 339 179 339 142 q 313 241 339 218 q 204 303 286 264 q 87 385 124 340 q 50 506 50 431 q 111 645 50 592 q 275 699 172 699 q 453 651 376 699 l 438 525 q 364 570 399 556 q 285 585 329 585 q 214 565 240 585 q 188 511 188 546 q 213 456 188 476 q 311 400 238 436 q 439 312 400 358 q 478 190 478 265 q 415 40 478 94 q 247 -14 353 -14 m 213 957 l 340 957 l 340 828 l 213 828 l 213 957 z "},"ṣ":{"ha":506,"x_min":43,"x_max":478,"o":"m 247 -14 q 138 -1 188 -14 q 43 39 89 13 l 58 172 q 236 103 153 103 q 312 122 285 103 q 339 179 339 142 q 313 241 339 218 q 204 303 286 264 q 87 385 124 340 q 50 506 50 431 q 111 645 50 592 q 275 699 172 699 q 453 651 376 699 l 438 525 q 364 570 399 556 q 285 585 329 585 q 214 565 240 585 q 188 511 188 546 q 213 456 188 476 q 311 400 238 436 q 439 312 400 358 q 478 190 478 265 q 415 40 478 94 q 247 -14 353 -14 m 185 -112 l 313 -112 l 313 -242 l 185 -242 l 185 -112 z "},"ṩ":{"ha":506,"x_min":43,"x_max":478,"o":"m 247 -14 q 138 -1 188 -14 q 43 39 89 13 l 58 172 q 236 103 153 103 q 312 122 285 103 q 339 179 339 142 q 313 241 339 218 q 204 303 286 264 q 87 385 124 340 q 50 506 50 431 q 111 645 50 592 q 275 699 172 699 q 453 651 376 699 l 438 525 q 364 570 399 556 q 285 585 329 585 q 214 565 240 585 q 188 511 188 546 q 213 456 188 476 q 311 400 238 436 q 439 312 400 358 q 478 190 478 265 q 415 40 478 94 q 247 -14 353 -14 m 213 957 l 340 957 l 340 828 l 213 828 l 213 957 m 185 -112 l 313 -112 l 313 -242 l 185 -242 l 185 -112 z "},"ß":{"ha":728,"x_min":24,"x_max":701,"o":"m 433 -19 q 311 -3 372 -19 l 311 115 q 431 100 372 100 q 523 130 489 100 q 557 214 557 160 q 530 297 557 265 q 450 367 503 329 q 367 439 394 406 q 339 528 339 472 q 357 603 339 568 q 414 686 375 639 q 469 766 454 736 q 483 835 483 796 q 456 911 483 883 q 379 939 429 939 q 280 890 315 939 q 244 756 244 842 l 244 0 l 104 0 l 104 571 l 24 571 l 36 686 l 104 686 l 104 753 q 179 981 104 901 q 385 1061 254 1061 q 558 1002 493 1061 q 624 846 624 943 q 608 751 624 792 q 553 664 592 711 q 497 591 511 614 q 482 543 482 568 q 501 494 482 515 q 563 440 519 474 q 633 382 606 408 q 681 315 661 356 q 701 218 701 274 q 665 90 701 143 q 568 8 629 36 q 433 -19 507 -19 z "},"t":{"ha":414,"x_min":24,"x_max":386,"o":"m 269 -14 q 151 33 192 -14 q 110 157 110 79 l 110 571 l 24 571 l 36 686 l 110 686 l 110 849 l 251 863 l 251 686 l 386 686 l 386 571 l 251 571 l 251 203 q 272 127 251 150 q 340 104 293 104 l 386 104 l 374 -14 l 269 -14 z "},"ŧ":{"ha":414,"x_min":24,"x_max":386,"o":"m 251 571 l 251 425 l 379 425 l 379 325 l 251 325 l 251 203 q 272 127 251 150 q 340 104 293 104 l 386 104 l 374 -14 l 269 -14 q 151 33 192 -14 q 110 157 110 79 l 110 325 l 24 325 l 24 425 l 110 425 l 110 571 l 24 571 l 36 686 l 110 686 l 110 849 l 251 863 l 251 686 l 386 686 l 386 571 l 251 571 z "},"ť":{"ha":414,"x_min":24,"x_max":433,"o":"m 269 -14 q 151 33 192 -14 q 110 157 110 79 l 110 571 l 24 571 l 36 686 l 110 686 l 110 849 l 251 863 l 251 686 l 386 686 l 386 571 l 251 571 l 251 203 q 272 127 251 150 q 340 104 293 104 l 386 104 l 374 -14 l 269 -14 m 304 992 l 433 992 l 394 754 l 304 754 l 304 992 z "},"ţ":{"ha":414,"x_min":24,"x_max":393,"o":"m 281 -76 q 363 -108 333 -78 q 393 -192 393 -139 q 353 -287 393 -253 q 250 -322 313 -322 q 156 -304 197 -322 l 179 -233 q 249 -249 213 -249 q 297 -235 279 -249 q 314 -193 314 -221 q 254 -139 314 -139 q 201 -147 228 -139 l 235 -11 q 142 44 174 -1 q 110 157 110 89 l 110 571 l 24 571 l 36 686 l 110 686 l 110 849 l 251 863 l 251 686 l 386 686 l 386 571 l 251 571 l 251 203 q 272 127 251 150 q 340 104 293 104 l 386 104 l 374 -14 l 300 -14 l 281 -76 z "},"ț":{"ha":414,"x_min":24,"x_max":386,"o":"m 269 -14 q 151 33 192 -14 q 110 157 110 79 l 110 571 l 24 571 l 36 686 l 110 686 l 110 849 l 251 863 l 251 686 l 386 686 l 386 571 l 251 571 l 251 203 q 272 127 251 150 q 340 104 293 104 l 386 104 l 374 -14 l 269 -14 m 182 -403 l 236 -253 l 190 -253 l 190 -126 l 324 -126 l 324 -237 l 244 -403 l 182 -403 z "},"ẗ":{"ha":414,"x_min":10,"x_max":386,"o":"m 269 -14 q 151 33 192 -14 q 110 157 110 79 l 110 571 l 24 571 l 36 686 l 110 686 l 110 849 l 251 863 l 251 686 l 386 686 l 386 571 l 251 571 l 251 203 q 272 127 251 150 q 340 104 293 104 l 386 104 l 374 -14 l 269 -14 m 10 1104 l 129 1104 l 129 988 l 10 988 l 10 1104 m 232 1104 l 351 1104 l 351 988 l 232 988 l 232 1104 z "},"ṭ":{"ha":414,"x_min":24,"x_max":386,"o":"m 269 -14 q 151 33 192 -14 q 110 157 110 79 l 110 571 l 24 571 l 36 686 l 110 686 l 110 849 l 251 863 l 251 686 l 386 686 l 386 571 l 251 571 l 251 203 q 272 127 251 150 q 340 104 293 104 l 386 104 l 374 -14 l 269 -14 m 193 -112 l 321 -112 l 321 -242 l 193 -242 l 193 -112 z "},"ṯ":{"ha":414,"x_min":24,"x_max":454,"o":"m 269 -14 q 151 33 192 -14 q 110 157 110 79 l 110 571 l 24 571 l 36 686 l 110 686 l 110 849 l 251 863 l 251 686 l 386 686 l 386 571 l 251 571 l 251 203 q 272 127 251 150 q 340 104 293 104 l 386 104 l 374 -14 l 269 -14 m 60 -129 l 454 -129 l 454 -229 l 60 -229 l 60 -129 z "},"u":{"ha":656,"x_min":64,"x_max":581,"o":"m 581 686 l 581 0 l 458 0 l 451 69 q 276 -12 388 -12 q 117 58 169 -12 q 64 254 64 128 l 64 686 l 206 686 l 206 272 q 231 150 206 192 q 313 108 256 108 q 439 188 389 108 l 439 686 l 581 686 z "},"ú":{"ha":656,"x_min":64,"x_max":581,"o":"m 581 686 l 581 0 l 458 0 l 451 69 q 276 -12 388 -12 q 117 58 169 -12 q 64 254 64 128 l 64 686 l 206 686 l 206 272 q 231 150 206 192 q 313 108 256 108 q 439 188 389 108 l 439 686 l 581 686 m 215 903 l 425 1035 l 425 889 l 215 807 l 215 903 z "},"ŭ":{"ha":656,"x_min":64,"x_max":581,"o":"m 581 686 l 581 0 l 458 0 l 451 69 q 276 -12 388 -12 q 117 58 169 -12 q 64 254 64 128 l 64 686 l 206 686 l 206 272 q 231 150 206 192 q 313 108 256 108 q 439 188 389 108 l 439 686 l 581 686 m 319 807 q 179 857 229 807 q 129 981 129 907 l 239 981 q 259 922 239 943 q 319 901 279 901 q 380 922 360 901 q 400 981 400 943 l 510 981 q 460 857 510 907 q 319 807 410 807 z "},"û":{"ha":656,"x_min":64,"x_max":581,"o":"m 581 686 l 581 0 l 458 0 l 451 69 q 276 -12 388 -12 q 117 58 169 -12 q 64 254 64 128 l 64 686 l 206 686 l 206 272 q 231 150 206 192 q 313 108 256 108 q 439 188 389 108 l 439 686 l 581 686 m 168 879 l 319 1007 l 471 879 l 471 783 l 319 878 l 168 783 l 168 879 z "},"ȕ":{"ha":656,"x_min":60,"x_max":581,"o":"m 581 686 l 581 0 l 458 0 l 451 69 q 276 -12 388 -12 q 117 58 169 -12 q 64 254 64 128 l 64 686 l 206 686 l 206 272 q 231 150 206 192 q 313 108 256 108 q 439 188 389 108 l 439 686 l 581 686 m 188 808 l 60 1046 l 201 1046 l 283 808 l 188 808 m 383 808 l 264 1046 l 400 1046 l 474 808 l 383 808 z "},"ü":{"ha":656,"x_min":64,"x_max":581,"o":"m 581 686 l 581 0 l 458 0 l 451 69 q 276 -12 388 -12 q 117 58 169 -12 q 64 254 64 128 l 64 686 l 206 686 l 206 272 q 231 150 206 192 q 313 108 256 108 q 439 188 389 108 l 439 686 l 581 686 m 149 938 l 268 938 l 268 821 l 149 821 l 149 938 m 371 938 l 490 938 l 490 821 l 371 821 l 371 938 z "},"ụ":{"ha":656,"x_min":64,"x_max":581,"o":"m 581 686 l 581 0 l 458 0 l 451 69 q 276 -12 388 -12 q 117 58 169 -12 q 64 254 64 128 l 64 686 l 206 686 l 206 272 q 231 150 206 192 q 313 108 256 108 q 439 188 389 108 l 439 686 l 581 686 m 242 -112 l 369 -112 l 369 -242 l 242 -242 l 242 -112 z "},"ù":{"ha":656,"x_min":64,"x_max":581,"o":"m 581 686 l 581 0 l 458 0 l 451 69 q 276 -12 388 -12 q 117 58 169 -12 q 64 254 64 128 l 64 686 l 206 686 l 206 272 q 231 150 206 192 q 313 108 256 108 q 439 188 389 108 l 439 686 l 581 686 m 214 890 l 214 1040 l 424 906 l 424 807 l 214 890 z "},"ủ":{"ha":656,"x_min":64,"x_max":581,"o":"m 581 686 l 581 0 l 458 0 l 451 69 q 276 -12 388 -12 q 117 58 169 -12 q 64 254 64 128 l 64 686 l 206 686 l 206 272 q 231 150 206 192 q 313 108 256 108 q 439 188 389 108 l 439 686 l 581 686 m 292 783 q 331 832 319 814 q 342 874 342 850 q 329 908 342 896 q 294 919 317 919 q 225 897 267 919 l 201 971 q 301 993 246 993 q 388 963 354 993 q 422 878 422 932 q 403 803 422 835 q 340 735 383 772 l 292 783 z "},"ư":{"ha":656,"x_min":64,"x_max":700,"o":"m 581 686 l 581 0 l 458 0 l 451 69 q 276 -12 388 -12 q 117 58 169 -12 q 64 254 64 128 l 64 686 l 206 686 l 206 272 q 231 150 206 192 q 313 108 256 108 q 439 188 389 108 l 439 686 l 581 686 m 476 686 q 575 789 575 686 l 700 789 q 636 640 700 694 q 476 586 572 586 l 476 686 z "},"ứ":{"ha":656,"x_min":64,"x_max":700,"o":"m 581 686 l 581 0 l 458 0 l 451 69 q 276 -12 388 -12 q 117 58 169 -12 q 64 254 64 128 l 64 686 l 206 686 l 206 272 q 231 150 206 192 q 313 108 256 108 q 439 188 389 108 l 439 686 l 581 686 m 476 686 q 575 789 575 686 l 700 789 q 636 640 700 694 q 476 586 572 586 l 476 686 m 215 903 l 425 1035 l 425 889 l 215 807 l 215 903 z "},"ự":{"ha":656,"x_min":64,"x_max":700,"o":"m 581 686 l 581 0 l 458 0 l 451 69 q 276 -12 388 -12 q 117 58 169 -12 q 64 254 64 128 l 64 686 l 206 686 l 206 272 q 231 150 206 192 q 313 108 256 108 q 439 188 389 108 l 439 686 l 581 686 m 476 686 q 575 789 575 686 l 700 789 q 636 640 700 694 q 476 586 572 586 l 476 686 m 242 -112 l 369 -112 l 369 -242 l 242 -242 l 242 -112 z "},"ừ":{"ha":656,"x_min":64,"x_max":700,"o":"m 581 686 l 581 0 l 458 0 l 451 69 q 276 -12 388 -12 q 117 58 169 -12 q 64 254 64 128 l 64 686 l 206 686 l 206 272 q 231 150 206 192 q 313 108 256 108 q 439 188 389 108 l 439 686 l 581 686 m 476 686 q 575 789 575 686 l 700 789 q 636 640 700 694 q 476 586 572 586 l 476 686 m 214 890 l 214 1040 l 424 906 l 424 807 l 214 890 z "},"ử":{"ha":656,"x_min":64,"x_max":700,"o":"m 581 686 l 581 0 l 458 0 l 451 69 q 276 -12 388 -12 q 117 58 169 -12 q 64 254 64 128 l 64 686 l 206 686 l 206 272 q 231 150 206 192 q 313 108 256 108 q 439 188 389 108 l 439 686 l 581 686 m 476 686 q 575 789 575 686 l 700 789 q 636 640 700 694 q 476 586 572 586 l 476 686 m 292 783 q 331 832 319 814 q 342 874 342 850 q 329 908 342 896 q 294 919 317 919 q 225 897 267 919 l 201 971 q 301 993 246 993 q 388 963 354 993 q 422 878 422 932 q 403 803 422 835 q 340 735 383 772 l 292 783 z "},"ữ":{"ha":656,"x_min":64,"x_max":700,"o":"m 581 686 l 581 0 l 458 0 l 451 69 q 276 -12 388 -12 q 117 58 169 -12 q 64 254 64 128 l 64 686 l 206 686 l 206 272 q 231 150 206 192 q 313 108 256 108 q 439 188 389 108 l 439 686 l 581 686 m 476 686 q 575 789 575 686 l 700 789 q 636 640 700 694 q 476 586 572 586 l 476 686 m 417 804 q 368 814 390 804 q 319 842 346 824 q 286 862 300 856 q 257 868 272 868 q 229 853 239 868 q 219 815 219 839 l 114 815 q 222 975 121 975 q 270 966 249 975 q 319 939 292 957 q 353 919 339 925 q 382 913 367 913 q 410 926 400 913 q 419 964 419 940 l 525 964 q 494 845 522 886 q 417 804 467 804 z "},"ű":{"ha":656,"x_min":64,"x_max":596,"o":"m 581 686 l 581 0 l 458 0 l 451 69 q 276 -12 388 -12 q 117 58 169 -12 q 64 254 64 128 l 64 686 l 206 686 l 206 272 q 231 150 206 192 q 313 108 256 108 q 439 188 389 108 l 439 686 l 581 686 m 254 1046 l 394 1046 l 265 808 l 172 808 l 254 1046 m 456 1046 l 596 1046 l 458 808 l 365 808 l 456 1046 z "},"ȗ":{"ha":656,"x_min":64,"x_max":581,"o":"m 581 686 l 581 0 l 458 0 l 451 69 q 276 -12 388 -12 q 117 58 169 -12 q 64 254 64 128 l 64 686 l 206 686 l 206 272 q 231 150 206 192 q 313 108 256 108 q 439 188 389 108 l 439 686 l 581 686 m 319 976 q 465 928 413 976 q 517 807 517 879 l 404 807 q 382 860 404 840 q 319 879 360 879 q 257 860 279 879 q 235 807 235 840 l 122 807 q 174 928 122 879 q 319 976 226 976 z "},"ū":{"ha":656,"x_min":64,"x_max":581,"o":"m 581 686 l 581 0 l 458 0 l 451 69 q 276 -12 388 -12 q 117 58 169 -12 q 64 254 64 128 l 64 686 l 206 686 l 206 272 q 231 150 206 192 q 313 108 256 108 q 439 188 389 108 l 439 686 l 581 686 m 122 928 l 517 928 l 517 828 l 122 828 l 122 928 z "},"ṻ":{"ha":656,"x_min":64,"x_max":581,"o":"m 581 686 l 581 0 l 458 0 l 451 69 q 276 -12 388 -12 q 117 58 169 -12 q 64 254 64 128 l 64 686 l 206 686 l 206 272 q 231 150 206 192 q 313 108 256 108 q 439 188 389 108 l 439 686 l 581 686 m 108 911 l 531 911 l 531 815 l 108 815 l 108 911 m 149 1146 l 269 1146 l 269 1036 l 149 1036 l 149 1146 m 369 1146 l 490 1146 l 490 1036 l 369 1036 l 369 1146 z "},"ų":{"ha":656,"x_min":64,"x_max":639,"o":"m 639 -269 q 539 -290 594 -290 q 441 -260 479 -290 q 403 -174 403 -229 q 429 -85 403 -125 q 501 0 456 -44 l 458 0 l 451 69 q 276 -12 388 -12 q 117 58 169 -12 q 64 254 64 128 l 64 686 l 206 686 l 206 272 q 231 150 206 192 q 313 108 256 108 q 439 188 389 108 l 439 686 l 581 686 l 581 0 q 510 -81 533 -46 q 486 -151 486 -115 q 504 -198 486 -182 q 553 -214 522 -214 q 617 -200 582 -214 l 639 -269 z "},"ů":{"ha":656,"x_min":64,"x_max":581,"o":"m 581 686 l 581 0 l 458 0 l 451 69 q 276 -12 388 -12 q 117 58 169 -12 q 64 254 64 128 l 64 686 l 206 686 l 206 272 q 231 150 206 192 q 313 108 256 108 q 439 188 389 108 l 439 686 l 581 686 m 319 790 q 223 830 257 790 q 189 928 189 869 q 223 1025 189 985 q 319 1065 257 1065 q 416 1025 382 1065 q 450 928 450 985 q 417 830 450 869 q 319 790 383 790 m 319 854 q 363 874 347 854 q 378 928 378 893 q 362 980 378 960 q 319 1000 346 1000 q 277 980 293 1000 q 261 928 261 960 q 276 874 261 893 q 319 854 292 854 z "},"ũ":{"ha":656,"x_min":64,"x_max":581,"o":"m 581 686 l 581 0 l 458 0 l 451 69 q 276 -12 388 -12 q 117 58 169 -12 q 64 254 64 128 l 64 686 l 206 686 l 206 272 q 231 150 206 192 q 313 108 256 108 q 439 188 389 108 l 439 686 l 581 686 m 417 804 q 368 814 390 804 q 319 842 346 824 q 286 862 300 856 q 257 868 272 868 q 229 853 239 868 q 219 815 219 839 l 114 815 q 222 975 121 975 q 270 966 249 975 q 319 939 292 957 q 353 919 339 925 q 382 913 367 913 q 410 926 400 913 q 419 964 419 940 l 525 964 q 494 845 522 886 q 417 804 467 804 z "},"ṹ":{"ha":656,"x_min":64,"x_max":581,"o":"m 581 686 l 581 0 l 458 0 l 451 69 q 276 -12 388 -12 q 117 58 169 -12 q 64 254 64 128 l 64 686 l 206 686 l 206 272 q 231 150 206 192 q 313 108 256 108 q 439 188 389 108 l 439 686 l 581 686 m 422 803 q 377 810 399 803 q 324 832 356 818 q 285 849 304 842 q 253 856 267 856 q 211 810 211 856 l 115 810 q 141 916 115 879 q 217 953 167 953 q 263 944 240 953 q 315 922 286 936 q 353 906 335 913 q 386 899 372 899 q 428 944 428 899 l 524 944 q 498 839 524 875 q 422 803 472 803 m 215 1097 l 425 1208 l 425 1074 l 215 1010 l 215 1097 z "},"v":{"ha":600,"x_min":4,"x_max":594,"o":"m 4 686 l 153 686 l 300 178 l 446 686 l 594 686 l 365 0 l 235 0 l 4 686 z "},"w":{"ha":861,"x_min":4,"x_max":857,"o":"m 4 686 l 154 686 l 258 174 l 367 668 l 493 668 l 604 174 l 707 686 l 857 686 l 674 0 l 543 0 l 431 479 l 318 0 l 188 0 l 4 686 z "},"ẃ":{"ha":861,"x_min":4,"x_max":857,"o":"m 4 686 l 154 686 l 258 174 l 367 668 l 493 668 l 604 174 l 707 686 l 857 686 l 674 0 l 543 0 l 431 479 l 318 0 l 188 0 l 4 686 m 326 903 l 536 1035 l 536 889 l 326 807 l 326 903 z "},"ŵ":{"ha":861,"x_min":4,"x_max":857,"o":"m 4 686 l 154 686 l 258 174 l 367 668 l 493 668 l 604 174 l 707 686 l 857 686 l 674 0 l 543 0 l 431 479 l 318 0 l 188 0 l 4 686 m 279 879 l 431 1007 l 582 879 l 582 783 l 431 878 l 279 783 l 279 879 z "},"ẅ":{"ha":861,"x_min":4,"x_max":857,"o":"m 4 686 l 154 686 l 258 174 l 367 668 l 493 668 l 604 174 l 707 686 l 857 686 l 674 0 l 543 0 l 431 479 l 318 0 l 188 0 l 4 686 m 260 938 l 379 938 l 379 821 l 260 821 l 260 938 m 482 938 l 601 938 l 601 821 l 482 821 l 482 938 z "},"ẁ":{"ha":861,"x_min":4,"x_max":857,"o":"m 4 686 l 154 686 l 258 174 l 367 668 l 493 668 l 604 174 l 707 686 l 857 686 l 674 0 l 543 0 l 431 479 l 318 0 l 188 0 l 4 686 m 325 890 l 325 1040 l 535 906 l 535 807 l 325 890 z "},"x":{"ha":579,"x_min":10,"x_max":569,"o":"m 207 343 l 10 686 l 172 686 l 293 444 l 406 686 l 568 686 l 371 349 l 569 0 l 408 0 l 286 240 l 171 0 l 10 0 l 207 343 z "},"y":{"ha":639,"x_min":8,"x_max":631,"o":"m 251 31 l 8 686 l 157 686 l 324 194 l 482 686 l 631 686 l 260 -336 l 113 -336 l 251 31 z "},"ý":{"ha":639,"x_min":8,"x_max":631,"o":"m 251 31 l 8 686 l 157 686 l 324 194 l 482 686 l 631 686 l 260 -336 l 113 -336 l 251 31 m 217 903 l 426 1035 l 426 889 l 217 807 l 217 903 z "},"ŷ":{"ha":639,"x_min":8,"x_max":631,"o":"m 251 31 l 8 686 l 157 686 l 324 194 l 482 686 l 631 686 l 260 -336 l 113 -336 l 251 31 m 169 879 l 321 1007 l 472 879 l 472 783 l 321 878 l 169 783 l 169 879 z "},"ÿ":{"ha":639,"x_min":8,"x_max":631,"o":"m 251 31 l 8 686 l 157 686 l 324 194 l 482 686 l 631 686 l 260 -336 l 113 -336 l 251 31 m 150 938 l 269 938 l 269 821 l 150 821 l 150 938 m 372 938 l 492 938 l 492 821 l 372 821 l 372 938 z "},"ẏ":{"ha":639,"x_min":8,"x_max":631,"o":"m 251 31 l 8 686 l 157 686 l 324 194 l 482 686 l 631 686 l 260 -336 l 113 -336 l 251 31 m 257 957 l 385 957 l 385 828 l 257 828 l 257 957 z "},"ỵ":{"ha":639,"x_min":8,"x_max":631,"o":"m 340 -112 l 465 -112 l 465 -242 l 338 -242 l 338 -122 l 260 -336 l 113 -336 l 251 31 l 8 686 l 157 686 l 324 194 l 482 686 l 631 686 l 340 -112 z "},"ỳ":{"ha":639,"x_min":8,"x_max":631,"o":"m 251 31 l 8 686 l 157 686 l 324 194 l 482 686 l 631 686 l 260 -336 l 113 -336 l 251 31 m 215 890 l 215 1040 l 425 906 l 425 807 l 215 890 z "},"ỷ":{"ha":639,"x_min":8,"x_max":631,"o":"m 251 31 l 8 686 l 157 686 l 324 194 l 482 686 l 631 686 l 260 -336 l 113 -336 l 251 31 m 293 783 q 332 832 321 814 q 343 874 343 850 q 331 908 343 896 q 296 919 318 919 q 226 897 268 919 l 203 971 q 303 993 247 993 q 390 963 356 993 q 424 878 424 932 q 404 803 424 835 q 342 735 385 772 l 293 783 z "},"ȳ":{"ha":639,"x_min":8,"x_max":631,"o":"m 251 31 l 8 686 l 157 686 l 324 194 l 482 686 l 631 686 l 260 -336 l 113 -336 l 251 31 m 124 928 l 518 928 l 518 828 l 124 828 l 124 928 z "},"ỹ":{"ha":639,"x_min":8,"x_max":631,"o":"m 251 31 l 8 686 l 157 686 l 324 194 l 482 686 l 631 686 l 260 -336 l 113 -336 l 251 31 m 418 804 q 369 814 392 804 q 321 842 347 824 q 288 862 301 856 q 258 868 274 868 q 231 853 240 868 q 221 815 221 839 l 115 815 q 224 975 122 975 q 272 966 250 975 q 321 939 293 957 q 354 919 340 925 q 383 913 368 913 q 411 926 401 913 q 421 964 421 940 l 526 964 q 496 845 524 886 q 418 804 468 804 z "},"z":{"ha":561,"x_min":25,"x_max":535,"o":"m 240 122 l 526 122 l 526 0 l 25 0 l 319 564 l 42 564 l 42 686 l 535 686 l 240 122 z "},"ź":{"ha":561,"x_min":25,"x_max":535,"o":"m 240 122 l 526 122 l 526 0 l 25 0 l 319 564 l 42 564 l 42 686 l 535 686 l 240 122 m 185 903 l 394 1035 l 394 889 l 185 807 l 185 903 z "},"ž":{"ha":561,"x_min":25,"x_max":535,"o":"m 240 122 l 526 122 l 526 0 l 25 0 l 319 564 l 42 564 l 42 686 l 535 686 l 240 122 m 138 908 l 138 1004 l 289 908 l 440 1004 l 440 908 l 289 779 l 138 908 z "},"ż":{"ha":561,"x_min":25,"x_max":535,"o":"m 240 122 l 526 122 l 526 0 l 25 0 l 319 564 l 42 564 l 42 686 l 535 686 l 240 122 m 225 957 l 353 957 l 353 828 l 225 828 l 225 957 z "},"ẓ":{"ha":561,"x_min":25,"x_max":535,"o":"m 240 122 l 526 122 l 526 0 l 25 0 l 319 564 l 42 564 l 42 686 l 535 686 l 240 122 m 213 -112 l 340 -112 l 340 -242 l 213 -242 l 213 -112 z "},"ª":{"ha":422,"x_min":36,"x_max":386,"o":"m 146 603 q 67 632 99 603 q 36 714 36 661 q 228 865 36 843 q 215 900 225 889 q 178 911 206 911 q 72 886 133 911 l 67 982 q 207 1011 144 1011 q 309 974 271 1011 q 347 864 347 938 l 347 740 q 353 713 347 721 q 371 704 358 704 l 386 704 l 379 606 l 329 606 q 244 651 268 606 q 146 603 206 603 m 190 692 q 229 711 214 692 l 229 788 q 161 725 161 778 q 190 692 161 692 z "},"º":{"ha":451,"x_min":36,"x_max":415,"o":"m 226 603 q 88 663 139 603 q 36 807 36 722 q 88 951 36 892 q 226 1011 139 1011 q 365 951 314 1011 q 415 807 415 892 q 365 663 415 722 q 226 603 314 603 m 226 696 q 276 728 258 696 q 294 807 294 760 q 276 887 294 856 q 226 918 258 918 q 176 887 194 918 q 157 807 157 856 q 176 728 157 760 q 226 696 194 696 z "},"π":{"ha":686,"x_min":21,"x_max":661,"o":"m 621 107 q 657 115 638 107 l 657 4 q 572 -14 621 -14 q 464 30 500 -14 q 428 158 428 74 l 428 571 l 253 571 l 253 0 l 111 0 l 111 571 l 21 571 l 21 686 l 661 686 l 661 571 l 568 571 l 568 176 q 621 107 568 107 z "},"₀":{"ha":493,"x_min":40,"x_max":453,"o":"m 247 -100 q 95 -22 150 -100 q 40 182 40 56 q 94 382 40 308 q 247 456 149 456 q 399 382 346 456 q 453 182 453 308 q 399 -22 453 56 q 247 -100 344 -100 m 247 6 q 332 182 332 6 q 247 350 332 350 q 182 308 203 350 q 161 182 161 267 q 182 50 161 94 q 247 6 203 6 z "},"₁":{"ha":293,"x_min":40,"x_max":218,"o":"m 107 299 q 49 254 82 268 l 40 354 q 92 388 65 365 q 135 436 119 411 l 218 436 l 218 -81 l 107 -81 l 107 299 z "},"₂":{"ha":371,"x_min":42,"x_max":335,"o":"m 335 21 l 335 -81 l 42 -81 l 158 139 q 193 215 183 185 q 203 275 203 246 q 186 328 203 308 q 138 349 169 349 q 51 311 99 349 l 42 422 q 165 456 99 456 q 279 411 236 456 q 322 294 322 367 q 307 207 322 249 q 250 89 292 165 l 213 21 l 335 21 z "},"₃":{"ha":413,"x_min":43,"x_max":358,"o":"m 268 190 q 334 140 310 174 q 358 58 358 107 q 309 -57 358 -14 q 185 -100 260 -100 q 43 -71 108 -100 l 69 35 q 164 3 119 3 q 219 20 200 3 q 239 68 239 38 q 153 138 239 138 l 140 138 l 140 233 l 154 233 q 206 249 188 233 q 225 294 225 265 q 209 337 225 321 q 164 353 193 353 q 82 325 124 353 l 72 433 q 188 456 121 456 q 301 417 260 456 q 342 315 342 378 q 268 190 342 226 z "},"₄":{"ha":431,"x_min":-1,"x_max":383,"o":"m 383 110 l 383 26 l 331 26 l 331 -81 l 226 -81 l 226 26 l -1 26 l 239 436 l 331 436 l 331 110 l 383 110 m 226 167 l 231 274 l 186 185 l 144 110 l 226 110 l 226 167 z "},"₅":{"ha":406,"x_min":46,"x_max":361,"o":"m 197 249 q 317 203 274 249 q 361 81 361 157 q 309 -52 361 -4 q 175 -100 257 -100 q 46 -72 108 -100 l 71 33 q 165 3 122 3 q 222 22 200 3 q 243 74 243 40 q 220 130 243 110 q 156 150 197 150 q 75 136 122 150 l 107 436 l 342 436 l 333 335 l 190 335 l 181 249 l 197 249 z "},"₆":{"ha":426,"x_min":51,"x_max":389,"o":"m 246 238 q 349 190 310 238 q 389 69 389 142 q 343 -53 389 -6 q 226 -100 297 -100 q 98 -47 144 -100 q 51 99 51 7 q 116 306 51 213 q 279 456 181 400 l 349 381 q 249 313 294 354 q 176 221 203 271 q 246 238 208 238 m 224 -3 q 267 17 251 -3 q 282 69 282 38 q 267 122 282 101 q 224 142 251 142 q 180 122 196 142 q 164 69 164 101 q 180 17 164 38 q 224 -3 196 -3 z "},"₇":{"ha":376,"x_min":36,"x_max":354,"o":"m 354 444 l 181 -81 l 74 -81 l 210 343 l 36 343 l 36 444 l 354 444 z "},"₈":{"ha":388,"x_min":26,"x_max":360,"o":"m 288 203 q 341 145 322 182 q 360 61 360 108 q 315 -56 360 -11 q 194 -100 269 -100 q 72 -56 117 -100 q 26 61 26 -11 q 46 145 26 108 q 100 203 65 182 q 53 313 53 242 q 90 414 53 372 q 197 456 128 456 q 299 414 264 456 q 335 313 335 372 q 288 203 335 242 m 194 364 q 165 348 175 364 q 154 306 154 332 q 165 265 154 281 q 194 249 175 249 q 223 265 213 249 q 233 306 233 281 q 223 348 233 332 q 194 364 213 364 m 194 -7 q 236 15 221 -7 q 251 72 251 36 q 236 128 251 107 q 194 149 221 149 q 151 128 167 149 q 136 72 136 107 q 151 15 136 36 q 194 -7 167 -7 z "},"₉":{"ha":426,"x_min":38,"x_max":375,"o":"m 200 456 q 328 402 282 456 q 375 257 375 349 q 310 49 375 143 q 147 -100 246 -44 l 78 -25 q 178 42 132 1 q 251 135 225 83 q 181 118 221 118 q 77 166 117 118 q 38 286 38 214 q 83 408 38 361 q 200 456 129 456 m 203 214 q 247 234 231 214 q 263 286 263 254 q 247 338 263 318 q 203 358 231 358 q 160 338 175 358 q 144 286 144 318 q 160 234 144 254 q 203 214 175 214 z "}}}
